<svg width="100" height="100" viewBox="0 0 100 100" fill="none" xmlns="http://www.w3.org/2000/svg">
<g clip-path="url(#clip0_2377_1450)">
<path fill-rule="evenodd" clip-rule="evenodd" d="M35.4901 59.3018H45.1692C45.9911 59.3018 46.6818 59.9284 46.6818 60.7096V68.3105C46.6818 69.0755 46.0086 69.7184 45.1692 69.7184H35.4901C34.6682 69.7184 33.9774 69.0918 33.9774 68.3105V60.7096C33.9862 59.9284 34.6594 59.3018 35.4901 59.3018ZM74.6612 57.5033C73.8043 55.1595 73.0436 52.7995 72.3966 50.3988C74.8098 47.9329 84.1305 48.2585 86.8235 50.3581L84.3403 55.8512C85.6781 54.2155 86.124 53.5482 86.9196 52.6367C87.2606 52.8402 87.5667 53.068 87.8639 53.3203C88.5722 53.9144 89.2017 54.5736 89.3241 55.485C89.4028 56.0791 89.2279 56.6813 88.6509 57.2998L82.9588 63.4766C82.2244 63.3626 81.5074 63.1999 80.8166 62.972C81.1402 62.264 81.5336 61.4827 81.8571 60.7747L79.7849 62.8581C77.6253 62.4349 75.8853 62.6872 74.2677 63.4847L68.4882 57.0312C68.1472 56.6488 67.9899 56.2663 67.9899 55.8757C67.9986 54.3213 70.4905 52.9704 71.802 52.4577L74.6612 57.5033ZM5.70954 0H74.941C76.5061 0 77.94 0.594075 78.9718 1.5625C79.0067 1.59505 79.0417 1.6276 79.0767 1.66829C80.0472 2.62044 80.6505 3.90625 80.6505 5.31413V43.5628C80.1346 43.5303 79.6188 43.5221 79.1117 43.5221C78.4821 43.5221 77.8526 43.5465 77.2318 43.5954V5.31413C77.2318 4.7526 77.0045 4.24805 76.6285 3.8737L76.5585 3.80859C76.1388 3.41797 75.5705 3.18197 74.941 3.18197H5.70954C5.08 3.18197 4.50293 3.41797 4.09198 3.80046L4.08324 3.80859C3.67229 4.19108 3.41873 4.72005 3.41873 5.31413V92.4561C3.41873 93.0094 3.64606 93.5221 4.02203 93.8965L4.09198 93.9616C4.51167 94.3522 5.08 94.5882 5.70954 94.5882H52.6187C52.8023 95.2393 53.0296 95.8903 53.3007 96.5332C53.4843 96.9727 53.6854 97.3796 53.9127 97.7702H5.70954C4.14444 97.7702 2.7105 97.1761 1.67876 96.2077C1.64379 96.1751 1.60881 96.1344 1.57384 96.1019C0.603305 95.1497 0 93.8639 0 92.4561V5.31413C0 3.85742 0.638279 2.53092 1.67876 1.5625L1.68751 1.55436C2.71924 0.594076 4.14444 0 5.70954 0ZM12.7743 10.376H67.8674C68.7068 10.376 69.4588 10.6934 70.0009 11.1979C70.0446 11.2386 70.0883 11.2793 70.1233 11.3281C70.5954 11.8245 70.884 12.4756 70.884 13.1917V29.2155C70.884 29.9886 70.543 30.6885 70.0009 31.2012L69.9921 31.2093C69.4413 31.722 68.6893 32.0312 67.8587 32.0312H12.7743C11.9349 32.0312 11.183 31.7139 10.6409 31.2093C10.5972 31.1686 10.5535 31.1279 10.5185 31.0791C10.0463 30.5827 9.7578 29.9316 9.7578 29.2155V13.1917C9.7578 12.4268 10.0988 11.7269 10.6496 11.2142L10.6584 11.2061C11.2005 10.6934 11.9524 10.376 12.7743 10.376ZM67.474 13.5579H13.1765V28.8493H67.4827V13.5579H67.474ZM82.0757 69.165L80.9478 64.3636C85.7742 65.2018 93.521 74.3408 96.0217 78.4993C97.2982 80.6234 98.4174 82.959 99.3355 85.5713C101.154 91.8945 99.4054 97.8109 92.0346 99.1943C87.418 100.057 78.8056 100.114 73.9442 99.8861C68.7243 99.6338 60.6365 99.6419 58.5293 94.6533C55.1194 86.5967 61.3622 77.002 67.0543 71.1263C67.8062 70.3532 68.5757 69.637 69.3801 68.9697C71.4523 67.277 73.6819 65.2669 76.3487 64.4206L73.7693 68.8802L77.5116 64.266H79.4789L82.0757 69.165ZM79.6712 73.1038V73.9502C80.633 74.0479 81.4637 74.2269 82.1544 74.5036C82.8451 74.7803 83.4485 75.2034 83.9643 75.765C84.3753 76.1963 84.69 76.6357 84.9086 77.0915C85.1272 77.5472 85.2409 77.9622 85.2409 78.3447C85.2409 78.7679 85.0748 79.1341 84.7512 79.4352C84.419 79.7363 84.0168 79.8909 83.5446 79.8909C82.6528 79.8909 82.0845 79.4434 81.8222 78.5563C81.5249 77.5065 80.8079 76.8066 79.6712 76.4648V81.7057C80.7904 81.9906 81.6823 82.251 82.3468 82.487C83.0113 82.723 83.6058 83.0566 84.1305 83.5042C84.69 83.96 85.1185 84.5215 85.4245 85.1562C85.7218 85.7991 85.8792 86.499 85.8792 87.264C85.8792 88.2243 85.6431 89.1195 85.1535 89.9495C84.6726 90.7878 83.9556 91.4632 83.02 92.0003C82.0757 92.5293 80.9653 92.8467 79.6712 92.9443V93.7988C79.6712 94.2952 79.6188 94.6533 79.5139 94.8812C79.4089 95.109 79.1903 95.223 78.8319 95.223C78.5084 95.223 78.281 95.1335 78.1499 94.9463C78.0187 94.7591 77.9575 94.4743 77.9575 94.0837V92.9606C76.8995 92.8548 75.9815 92.6188 75.1858 92.2689C74.3989 91.9189 73.7344 91.4795 73.2098 90.9505C72.6851 90.4215 72.2917 89.8763 72.0469 89.3148C71.7933 88.7451 71.6709 88.1836 71.6709 87.6465C71.6709 87.2477 71.837 86.8815 72.178 86.556C72.519 86.2386 72.9387 86.0758 73.4371 86.0758C73.848 86.0758 74.189 86.1654 74.4688 86.3363C74.7486 86.5153 74.941 86.7594 75.0546 87.0768C75.2995 87.7686 75.5093 88.2894 75.6842 88.6637C75.8678 89.0299 76.1388 89.3636 76.5061 89.6647C76.8733 89.9658 77.3542 90.2018 77.9575 90.3564V84.4971C76.7422 84.1797 75.7366 83.8379 74.9235 83.4554C74.1103 83.0729 73.4546 82.5358 72.9474 81.8278C72.4491 81.1198 72.1868 80.2165 72.1868 79.1097C72.1868 77.6611 72.6764 76.4811 73.6644 75.5615C74.6524 74.6419 76.0776 74.0967 77.9488 73.9502V73.1283C77.9488 72.4202 78.2373 72.0703 78.8056 72.0703C79.3827 72.0703 79.6712 72.4121 79.6712 73.1038ZM77.9488 81.2337V76.4079C77.1881 76.6195 76.5935 76.8962 76.1738 77.238C75.7454 77.5798 75.5355 78.1087 75.5355 78.8086C75.5355 79.4678 75.7366 79.9723 76.1301 80.3141C76.5323 80.6478 77.1356 80.957 77.9488 81.2337ZM79.6712 84.9691V90.4948C80.5806 90.3239 81.2801 89.9902 81.7784 89.4775C82.2681 88.9567 82.5216 88.3626 82.5216 87.6872C82.5216 86.9548 82.2768 86.3932 81.7959 85.9945C81.315 85.5876 80.6068 85.2458 79.6712 84.9691ZM60.7065 16.2516H62.6825V26.1556H60.7065V16.2516ZM14.0509 41.2353H23.73C24.5519 41.2353 25.2426 41.862 25.2426 42.6432V50.2441C25.2426 51.0091 24.5694 51.652 23.73 51.652H14.0509C13.229 51.652 12.5383 51.0254 12.5383 50.2441V42.6432C12.547 41.862 13.229 41.2353 14.0509 41.2353ZM14.0509 77.3682H23.73C24.5519 77.3682 25.2426 77.9948 25.2426 78.776V86.377C25.2426 87.1501 24.5694 87.7848 23.73 87.7848H14.0509C13.229 87.7848 12.5383 87.1582 12.5383 86.377V78.776C12.547 78.0029 13.229 77.3682 14.0509 77.3682ZM14.0509 59.3018H23.73C24.5519 59.3018 25.2426 59.9284 25.2426 60.7096V68.3105C25.2426 69.0755 24.5694 69.7184 23.73 69.7184H14.0509C13.229 69.7184 12.5383 69.0918 12.5383 68.3105V60.7096C12.547 59.9284 13.229 59.3018 14.0509 59.3018ZM56.938 41.2353H66.6084C67.4303 41.2353 68.1123 41.862 68.1123 42.6432V47.0622C67.5964 47.6318 67.2117 48.2992 67.0018 49.0153C66.3461 49.4222 65.6816 49.8861 65.1045 50.4069C64.676 50.7894 64.2826 51.2044 63.9328 51.652H56.9467C56.1249 51.652 55.4341 51.0254 55.4341 50.2441V42.6432C55.4254 41.862 56.1074 41.2353 56.938 41.2353ZM56.938 59.3018H63.3733C63.5919 59.6517 63.8542 59.9935 64.1514 60.3353L64.1602 60.3271L67.2467 63.7695C66.9144 64.0381 66.5909 64.3066 66.2761 64.5671L65.6466 65.0798L65.6553 65.096L65.6204 65.1204C65.0783 65.568 64.6148 65.9749 64.2214 66.3411C63.688 66.8294 63.2421 67.2689 62.8661 67.6595C62.2453 68.3024 61.6158 68.986 60.9863 69.7103H56.9293C56.1074 69.7103 55.4166 69.0837 55.4166 68.3024V60.7096C55.4254 59.9284 56.1074 59.3018 56.938 59.3018ZM35.4901 41.2353H45.1692C45.9911 41.2353 46.6818 41.862 46.6818 42.6432V50.2441C46.6818 51.0091 46.0086 51.652 45.1692 51.652H35.4901C34.6682 51.652 33.9774 51.0254 33.9774 50.2441V42.6432C33.9862 41.862 34.6594 41.2353 35.4901 41.2353ZM35.4901 77.3682H45.1692C45.9911 77.3682 46.6818 77.9948 46.6818 78.776V86.377C46.6818 87.1501 46.0086 87.7848 45.1692 87.7848H35.4901C34.6682 87.7848 33.9774 87.1582 33.9774 86.377V78.776C33.9862 78.0029 34.6594 77.3682 35.4901 77.3682Z" fill="#243A85"/>
<circle cx="78.9897" cy="82.9897" r="13.9897" fill="#243A85"/>
<path d="M72.75 75.25H79C81.7614 75.25 84 77.4886 84 80.25C84 83.0114 81.7614 85.25 79 85.25H75.25L82.75 92.75" stroke="white" stroke-width="2" stroke-linecap="round" stroke-linejoin="round"/>
<path d="M71.5 75.25H86.5" stroke="white" stroke-width="2" stroke-linecap="round" stroke-linejoin="round"/>
<path d="M74 80.25H86.5" stroke="white" stroke-width="2" stroke-linecap="round" stroke-linejoin="round"/>
</g>
<defs>
<clipPath id="clip0_2377_1450">
<rect width="100" height="100" fill="white"/>
</clipPath>
</defs>
</svg>
