<svg width="100" height="100" viewBox="0 0 100 100" fill="none" xmlns="http://www.w3.org/2000/svg">
<path fill-rule="evenodd" clip-rule="evenodd" d="M53.3936 20.3563V91.1702H82.3893C82.6986 91.1702 82.9427 91.472 82.9427 91.8419V99.338C82.9427 99.7079 82.6904 100.01 82.3893 100.01H18.5872C18.278 100.01 18.0257 99.7079 18.0257 99.338V91.8419C18.0257 91.472 18.278 91.1702 18.5872 91.1702H47.583V20.3855C45.0602 19.3341 43.0583 16.949 42.1794 13.9311H23.8444V17.2702C23.8444 17.6402 23.5921 17.9322 23.291 17.9322H18.5872C18.278 17.9322 18.0257 17.6305 18.0257 17.2702V13.9311H13.3626C13.0046 13.9311 12.7116 13.6293 12.7116 13.2691V7.6324C12.7116 7.26246 13.0046 6.96067 13.3626 6.96067H42.1956C43.4001 2.91083 46.639 0 50.4476 0C54.2562 0 57.4951 2.91083 58.6995 6.9704H87.6139C87.972 6.9704 88.265 7.2722 88.265 7.64213V13.2691C88.265 13.639 87.972 13.9311 87.6139 13.9311H82.3568V17.2702C82.3568 17.6402 82.1045 17.9322 81.8034 17.9322H77.0996C76.7904 17.9322 76.5381 17.6305 76.5381 17.2702V13.9311H58.724C57.8532 16.9198 55.8838 19.2854 53.3936 20.3563ZM81.1035 21.7095L99.7477 61.1176C99.9105 61.4583 99.9837 61.8283 99.9756 62.1885H99.9919C99.9919 62.2371 99.9919 62.2858 99.9919 62.3345C99.9919 71.7192 90.7552 79.3322 79.362 79.3322C68.0908 79.3322 58.9356 71.8847 58.7402 62.6363C58.7077 62.4805 58.6914 62.3053 58.6914 62.1398C58.6914 61.7114 58.8053 61.3026 58.9925 60.9716L78.0599 21.6122C78.54 20.6192 79.598 20.2784 80.4281 20.8528C80.7292 21.0767 80.957 21.3688 81.1035 21.7095ZM81.1768 30.2862V60.0759H95.2718L81.1768 30.2862ZM77.8564 60.0662V30.3349L63.444 60.0662H77.8564ZM22.4121 21.7095L41.0563 61.1176C41.2191 61.4583 41.2923 61.8283 41.2842 62.1885H41.3005C41.3005 62.2371 41.3005 62.2858 41.3005 62.3345C41.3005 71.7192 32.0638 79.3322 20.6706 79.3322C9.39941 79.3322 0.244141 71.8847 0.0488281 62.6363C0.016276 62.4903 0 62.3248 0 62.1495C0 61.7212 0.113932 61.3123 0.301107 60.9813L19.3685 21.6219C19.8486 20.6289 20.9066 20.2882 21.7367 20.8625C22.0378 21.0767 22.2656 21.3688 22.4121 21.7095ZM22.4854 30.2862V60.0759H36.5804L22.4854 30.2862ZM19.1569 60.0662V30.3349L4.7526 60.0662H19.1569ZM50.4476 5.90927C52.5553 5.90927 54.2643 7.95366 54.2643 10.4751C54.2643 12.9965 52.5553 15.0409 50.4476 15.0409C48.3398 15.0409 46.6309 12.9965 46.6309 10.4751C46.6309 7.95366 48.3398 5.90927 50.4476 5.90927Z" fill="#243A85"/>
</svg>
