<svg width="100" height="100" viewBox="0 0 100 100" fill="none" xmlns="http://www.w3.org/2000/svg">
<path fill-rule="evenodd" clip-rule="evenodd" d="M14.209 40.389L6.68949 27.36C6.03845 26.2288 6.42907 24.7884 7.56026 24.1374C7.93461 23.9258 8.33337 23.82 8.74027 23.82V23.8119H23.8119V8.67513C23.8119 7.36491 24.878 6.29883 26.1882 6.29883C26.6846 6.29883 27.1403 6.45345 27.5228 6.70573L40.3972 14.1927L47.9574 1.17188C48.6166 0.0406902 50.0651 -0.341797 51.1882 0.309245C51.5625 0.528971 51.8555 0.830078 52.059 1.18815L59.611 14.1927L72.6319 6.61621C73.7631 5.95703 75.2116 6.34766 75.8627 7.47884C76.0824 7.85319 76.1801 8.26009 76.1801 8.66699L76.1882 23.8037H91.3249C92.6351 23.8037 93.7012 24.8698 93.7012 26.18C93.7012 26.6764 93.5466 27.1322 93.2943 27.5147L85.8073 40.389L98.8282 47.9492C99.9594 48.6084 100.342 50.057 99.6908 51.18C99.4711 51.5544 99.17 51.8473 98.8119 52.0508L85.8073 59.6029L93.3838 72.6237C94.043 73.7549 93.6524 75.2035 92.5212 75.8545C92.1469 76.0742 91.74 76.1719 91.3331 76.1719L76.1963 76.18V91.2516C76.1963 92.5618 75.1302 93.6279 73.82 93.6279C73.3073 93.6279 72.8353 93.4652 72.4447 93.1885L59.611 85.7829L52.0508 98.8118C51.3916 99.943 49.9431 100.326 48.82 99.6745C48.4457 99.4548 48.1527 99.1537 47.9493 98.7956L40.3972 85.7829L27.3682 93.3024C26.237 93.9535 24.7966 93.5628 24.1455 92.4316C23.934 92.0573 23.8282 91.6585 23.8282 91.2516H23.82V76.1882H8.74027C7.43005 76.1882 6.36397 75.1221 6.36397 73.8118C6.36397 73.2992 6.52673 72.8272 6.80342 72.4365L14.209 59.6029L1.18005 52.0508C0.0488639 51.3916 -0.333623 49.943 0.317419 48.82C0.537145 48.4456 0.838252 48.1527 1.19632 47.9492L14.209 40.389ZM36.3526 32.9264C39.2741 32.9264 41.626 33.7565 43.4082 35.4248C45.1823 37.0931 46.0694 39.3066 46.0694 42.0654C46.0694 44.8324 45.1823 47.0459 43.4082 48.7142C41.626 50.3825 39.2741 51.2126 36.3526 51.2126C33.431 51.2126 31.0873 50.3744 29.305 48.7142C27.531 47.0459 26.6358 44.8324 26.6358 42.0654C26.6358 39.3066 27.531 37.085 29.305 35.4248C31.0873 33.7565 33.431 32.9264 36.3526 32.9264ZM57.6742 34.2285H65.5844L42.4235 65.7308H34.5134L57.6742 34.2285ZM36.3526 39.9821C35.7178 39.9821 35.2377 40.1693 34.904 40.5273C34.5704 40.8936 34.3995 41.4063 34.3995 42.0736C34.3995 42.7409 34.5704 43.2617 34.904 43.6279C35.2377 43.986 35.7178 44.1732 36.3526 44.1732C36.9873 44.1732 37.4756 43.986 37.8093 43.6279C38.1429 43.2536 38.3057 42.7409 38.3057 42.0736C38.3057 41.4063 38.1429 40.8936 37.8093 40.5273C37.4838 40.1693 36.9955 39.9821 36.3526 39.9821ZM63.6394 48.7712C66.5609 48.7712 68.9047 49.6094 70.6869 51.2695C72.461 52.9378 73.3562 55.1514 73.3562 57.9183C73.3562 60.6771 72.461 62.8988 70.6869 64.5589C68.9047 66.2272 66.5609 67.0573 63.6394 67.0573C60.7178 67.0573 58.3659 66.2272 56.5837 64.5589C54.8096 62.8906 53.9226 60.6771 53.9226 57.9183C53.9226 55.1514 54.8096 52.9378 56.5837 51.2695C58.3659 49.6094 60.7178 48.7712 63.6394 48.7712ZM63.6394 55.8268C63.0046 55.8268 62.5163 56.014 62.1827 56.3721C61.849 56.7464 61.6781 57.251 61.6781 57.9264C61.6781 58.5938 61.849 59.1064 62.1827 59.4727C62.5163 59.8389 63.0046 60.0179 63.6394 60.0179C64.266 60.0179 64.7543 59.8307 65.0879 59.4727C65.4216 59.1064 65.5925 58.5938 65.5925 57.9264C65.5925 57.251 65.4216 56.7383 65.0879 56.3721C64.7624 56.0059 64.2741 55.8268 63.6394 55.8268Z" fill="#243A85"/>
</svg>
