<svg width="100" height="100" viewBox="0 0 100 100" fill="none" xmlns="http://www.w3.org/2000/svg">
<g clip-path="url(#clip0_2375_1446)">
<path fill-rule="evenodd" clip-rule="evenodd" d="M22.3714 90.8664V64.5325H33.0322C37.5488 65.4277 42.0654 68.1588 46.582 71.3149H54.8584C58.61 71.5681 60.5713 75.7822 56.9255 78.5585C54.0283 80.9278 50.1953 80.7922 46.2646 80.4033C43.5547 80.2496 43.4408 84.2919 46.2646 84.31C47.2494 84.3914 48.3154 84.1382 49.2432 84.1382C54.1423 84.1291 58.1787 83.0892 60.6445 78.7936L61.8815 75.5742L74.1943 68.7918C80.3548 66.5401 84.7412 73.6933 80.1921 78.6851C71.2728 85.8926 62.1257 91.8249 52.7751 96.6178C45.9798 101.212 39.1846 101.049 32.3975 96.6178L22.3714 90.8664ZM30.9814 31.6603L70.6543 42.9644L64.8519 67.0194L25.179 55.7153L30.9814 31.6603ZM49.6338 42.268C53.1576 43.3171 55.2409 47.3232 54.2969 51.2389C53.3529 55.1546 49.7396 57.4697 46.224 56.4207C42.7002 55.3717 40.6169 51.3655 41.5609 47.4498C42.4967 43.5522 46.1263 41.2281 49.6338 42.268ZM37.0606 37.3937L62.7767 44.5469C62.3047 46.5003 63.3545 48.526 65.1204 49.0505L62.8337 58.5639C61.0758 58.0394 59.2529 59.206 58.7809 61.1684L33.0566 54.0152C33.5286 52.0619 32.4788 50.0362 30.7129 49.5117L32.9997 39.9982C34.7656 40.5227 36.5885 39.3561 37.0606 37.3937ZM100 37.9996H80.2979V6.49304H100V37.9996ZM77.0833 9.1427V35.4675H66.4225C61.9059 34.5723 57.3893 31.8412 52.8727 28.6851H44.5964C40.8529 28.4319 38.8835 24.2178 42.5293 21.4415C45.4264 19.0722 49.2594 19.2078 53.1901 19.6057C55.9001 19.7594 56.014 15.7081 53.1901 15.699C52.2054 15.6177 51.1393 15.8709 50.2116 15.8709C45.3125 15.8799 41.276 16.9199 38.8102 21.2154L37.5732 24.4348L25.2604 31.2172C19.0999 33.469 14.7135 26.3158 19.2627 21.3239C28.182 14.1074 37.321 8.17508 46.6797 3.38217C53.4749 -1.21179 60.2702 -1.04901 67.0573 3.38217L77.0833 9.1427ZM0 62.0094H19.165V93.516H0V62.0094Z" fill="#243A85"/>
</g>
<defs>
<clipPath id="clip0_2375_1446">
<rect width="100" height="100" fill="white"/>
</clipPath>
</defs>
</svg>
