<svg width="100" height="100" viewBox="0 0 100 100" fill="none" xmlns="http://www.w3.org/2000/svg">
<path fill-rule="evenodd" clip-rule="evenodd" d="M1.69985 11.9548H22.298L22.2707 11.6374V3.361C22.2707 1.51367 24.416 0 27.0521 0C29.6791 0 31.8335 1.52181 31.8335 3.361V11.6374L31.8062 11.9548H66.8848L66.8576 11.6374V3.361C66.8576 1.51367 69.0028 0 71.6299 0C74.2569 0 76.4112 1.52181 76.4112 3.361V11.6374L76.384 11.9548H98.3002C99.2364 11.9548 100 12.6383 100 13.4766V29.3132C100 30.1514 99.2364 30.835 98.3002 30.835H1.69985C0.763567 30.8268 0 30.1432 0 29.305V13.4684C0 12.6302 0.763567 11.9548 1.69985 11.9548ZM0.427234 34.3343H99.5819C99.8182 34.3343 100 34.5052 100 34.7087V99.6175C100 99.821 99.8091 99.9919 99.5819 99.9919H0.427234C0.199982 99.9919 0 99.821 0 99.6175V34.7168C0 34.5052 0.190892 34.3343 0.427234 34.3343ZM88.4192 42.9362H75.9658C75.2113 42.9362 74.6023 43.4489 74.6023 44.0755V54.4434C74.6023 55.07 75.2113 55.5827 75.9658 55.5827H88.4283C89.1828 55.5827 89.8009 55.07 89.8009 54.4434V44.0755C89.7918 43.4489 89.1737 42.9362 88.4192 42.9362ZM11.1263 60.9782H23.5797C24.3342 60.9782 24.9523 61.4909 24.9523 62.1175V72.4854C24.9523 73.112 24.3342 73.6247 23.5797 73.6247H11.5535C10.799 73.6247 10.19 73.112 10.19 72.4854V61.7432C10.19 61.1165 10.8081 60.6038 11.5535 60.6038L11.1263 60.9782ZM11.1263 79.0283H23.5797C24.3342 79.0283 24.9523 79.541 24.9523 80.1676V90.5355C24.9523 91.1621 24.3342 91.6748 23.5797 91.6748H11.5444C10.7899 91.6748 10.1809 91.1621 10.1809 90.5355V80.1676C10.1809 79.541 10.799 79.0283 11.5444 79.0283H11.1263ZM11.1263 42.9362H23.5797C24.3342 42.9362 24.9523 43.4489 24.9523 44.0755V54.4434C24.9523 55.07 24.3342 55.5827 23.5797 55.5827H11.5444C10.7899 55.5827 10.1809 55.07 10.1809 54.4434V44.0755C10.1809 43.4489 10.799 42.9362 11.5444 42.9362H11.1263ZM32.7425 42.9362H45.205C45.9595 42.9362 46.5685 43.4489 46.5685 44.0755V54.4434C46.5685 55.07 45.9504 55.5827 45.205 55.5827H32.7425C31.988 55.5827 31.3699 55.07 31.3699 54.4434V44.0755C31.3699 43.4489 31.988 42.9362 32.7425 42.9362ZM32.7425 60.9782H45.205C45.9595 60.9782 46.5685 61.4909 46.5685 62.1175V72.4854C46.5685 73.112 45.9504 73.6247 45.205 73.6247H32.7425C31.988 73.6247 31.3699 73.112 31.3699 72.4854V61.7432C31.3699 61.1165 31.988 60.6038 32.7425 60.6038V60.9782ZM32.7425 79.0283H45.205C45.9595 79.0283 46.5685 79.541 46.5685 80.1676V90.5355C46.5685 91.1621 45.9504 91.6748 45.205 91.6748H32.7425C31.988 91.6748 31.3699 91.1621 31.3699 90.5355V80.1676C31.3699 79.541 31.988 79.0283 32.7425 79.0283ZM54.3496 42.9362H66.8121C67.5666 42.9362 68.1847 43.4489 68.1847 44.0755V54.4434C68.1847 55.07 67.5666 55.5827 66.8121 55.5827H54.3496C53.5951 55.5827 52.977 55.07 52.977 54.4434V44.0755C52.9861 43.4489 53.5951 42.9362 54.3496 42.9362ZM54.3496 60.9782H66.8121C67.5666 60.9782 68.1847 61.4909 68.1847 62.1175V72.4854C68.1847 73.112 67.5666 73.6247 66.8121 73.6247H54.3496C53.5951 73.6247 52.977 73.112 52.977 72.4854V61.7432C52.977 61.1165 53.5951 60.6038 54.3496 60.6038V60.9782ZM88.4192 60.9782H75.9658C75.2113 60.9782 74.6023 61.4909 74.6023 62.1175V72.4854C74.6023 73.112 75.2113 73.6247 75.9658 73.6247H88.4283C89.1828 73.6247 89.8009 73.112 89.8009 72.4854V61.735C89.8009 61.1084 89.1828 60.5957 88.4283 60.5957L88.4192 60.9782ZM88.4192 79.0283H75.9658C75.2113 79.0283 74.6023 79.541 74.6023 80.1676V90.5355C74.6023 91.1621 75.2113 91.6748 75.9658 91.6748H88.4283C89.1828 91.6748 89.8009 91.1621 89.8009 90.5355V79.7852C89.8009 79.1585 89.1828 78.6458 88.4283 78.6458L88.4192 79.0283ZM54.3496 79.0283H66.8121C67.5666 79.0283 68.1847 79.541 68.1847 80.1676V90.5355C68.1847 91.1621 67.5666 91.6748 66.8121 91.6748H54.3496C53.5951 91.6748 52.977 91.1621 52.977 90.5355V80.1676C52.9861 79.541 53.5951 79.0283 54.3496 79.0283ZM6.37215 38.8265H94.4732C94.9459 38.8265 95.3277 39.1846 95.3277 39.5915V94.7428C95.3277 95.1497 94.9277 95.5078 94.4732 95.5078H5.52677C5.07227 95.5078 4.6723 95.166 4.6723 94.7428V40.3483C4.6723 39.5101 5.43587 38.8265 6.37215 38.8265ZM71.6299 23.9258C74.2569 23.9258 76.4112 22.404 76.4112 20.5648V12.2965L76.384 11.9629H66.8848L66.8576 12.2965V20.5648C66.8576 22.4121 69.0028 23.9258 71.6299 23.9258ZM27.0521 23.9258C29.6791 23.9258 31.8335 22.404 31.8335 20.5648V12.2965L31.8062 11.9629H22.298L22.2707 12.2965V20.5648C22.2707 22.4121 24.416 23.9258 27.0521 23.9258Z" fill="#243A85"/>
</svg>
