<svg width="100" height="100" viewBox="0 0 100 100" fill="none" xmlns="http://www.w3.org/2000/svg">
<g clip-path="url(#clip0_2384_1466)">
<path fill-rule="evenodd" clip-rule="evenodd" d="M0 44.6154H20.2067V90.5405H0V44.6154ZM69.4661 21.2994C76.7985 21.2994 82.7474 28.8877 82.7474 38.264C82.7474 47.6299 76.8066 55.2287 69.4661 55.2287C62.1338 55.2287 56.1849 47.6403 56.1849 38.264C56.1849 28.8981 62.1257 21.2994 69.4661 21.2994ZM46.1589 0C52.4821 0 57.6172 6.54886 57.6172 14.6362C57.6172 22.7131 52.4902 29.2724 46.1589 29.2724C39.8356 29.2724 34.7005 22.7235 34.7005 14.6362C34.7005 6.55925 39.8275 0 46.1589 0ZM47.3226 17.7443C47.3226 17.2661 47.2331 16.9023 47.0459 16.632C46.8587 16.3617 46.5413 16.1123 46.0856 15.8732C45.6299 15.6341 45.2067 15.395 44.8242 15.1559C44.4417 14.9064 44.0999 14.6258 43.8232 14.3035C43.5384 13.9813 43.3268 13.6071 43.1803 13.1913C43.0257 12.7651 42.9606 12.2557 42.9606 11.6528C42.9606 10.6445 43.2292 9.81289 43.7581 9.1684C44.2871 8.52391 44.9951 8.1289 45.8822 8.02495V6.6736H46.9971V8.05613C47.8516 8.21206 48.527 8.65904 49.0153 9.39709C49.5036 10.1351 49.7477 11.0707 49.7477 12.1933H47.3633C47.3633 11.5696 47.2656 11.0915 47.0785 10.7588C46.8913 10.4262 46.6227 10.2599 46.2809 10.2599C45.9717 10.2599 45.7275 10.3846 45.5648 10.6237C45.3939 10.8732 45.3125 11.2162 45.3125 11.6424C45.3125 12.079 45.4102 12.4324 45.6055 12.6923C45.8089 12.9522 46.1182 13.2017 46.5495 13.4407C46.9808 13.6798 47.3958 13.9189 47.7783 14.1684C48.1608 14.4283 48.4945 14.7089 48.7712 15.0312C49.056 15.3534 49.2757 15.738 49.4303 16.1642C49.585 16.5904 49.6745 17.0998 49.6745 17.7131C49.6745 18.7318 49.4222 19.5634 48.9095 20.2079C48.3968 20.8524 47.7132 21.2266 46.8425 21.3306V22.5988H45.7357V21.3306C44.7184 21.185 43.9372 20.7484 43.3919 20C42.8467 19.2412 42.57 18.2536 42.57 17.0166H44.9382C44.9382 17.7027 45.0521 18.2121 45.2881 18.5759C45.5241 18.9293 45.8577 19.1164 46.2891 19.1164C46.6064 19.1164 46.8506 18.9917 47.0378 18.7526C47.2168 18.5031 47.3145 18.1705 47.3226 17.7443ZM70.8089 41.8607C70.8089 41.3098 70.7031 40.8836 70.4915 40.5717C70.28 40.2599 69.9137 39.9688 69.3766 39.6882C68.8477 39.4179 68.3594 39.1268 67.9118 38.8566C67.4642 38.5759 67.0736 38.2432 66.748 37.869C66.4225 37.4948 66.1784 37.0686 65.9994 36.58C65.8203 36.0915 65.7471 35.499 65.7471 34.8025C65.7471 33.6279 66.0563 32.6715 66.6748 31.9231C67.2852 31.1746 68.1071 30.7277 69.1325 30.6029V29.0333H70.4264V30.6445C71.4111 30.8316 72.1924 31.3514 72.7621 32.2037C73.3317 33.0561 73.6165 34.1372 73.6165 35.447H70.8659C70.8659 34.7193 70.752 34.1788 70.5404 33.7838C70.3288 33.3992 70.0114 33.2017 69.6126 33.2017C69.2546 33.2017 68.9779 33.3472 68.7826 33.6279C68.5872 33.9085 68.4896 34.3139 68.4896 34.8129C68.4896 35.3223 68.6035 35.7276 68.8314 36.0291C69.0592 36.3306 69.4173 36.6216 69.9219 36.8919C70.4264 37.1622 70.8984 37.4532 71.346 37.7339C71.7936 38.0249 72.1761 38.368 72.5016 38.7318C72.8271 39.106 73.0794 39.5426 73.2666 40.0416C73.4538 40.5405 73.5433 41.1331 73.5433 41.8295C73.5433 43.0146 73.2503 43.9813 72.6562 44.7193C72.0703 45.4574 71.2728 45.9044 70.2555 46.0187V47.4844H68.9616V46.0083C67.7816 45.842 66.8783 45.3326 66.2435 44.4595C65.6169 43.5863 65.2995 42.4324 65.2995 40.9979H68.042C68.042 41.7879 68.1803 42.3805 68.4489 42.7963C68.7175 43.2017 69.1081 43.42 69.6126 43.42C69.9788 43.42 70.2637 43.2744 70.4834 43.0042C70.695 42.7339 70.8008 42.3493 70.8089 41.8607ZM69.4661 24.6362C75.3499 24.6362 80.127 30.7277 80.127 38.2536C80.127 45.7692 75.3581 51.8711 69.4661 51.8711C63.5824 51.8711 58.8053 45.7796 58.8053 38.2536C58.8053 30.7277 63.5824 24.6362 69.4661 24.6362ZM24.2757 86.684V48.3056H37.793C43.5221 49.6154 49.2513 53.5863 54.9805 58.1913H65.4785C70.2311 58.5551 72.7214 64.7089 68.099 68.7526C64.4206 72.2037 59.5622 72.0062 54.5817 71.4345C51.1475 71.2162 51.001 77.1102 54.5817 77.131C55.8268 77.2557 57.1777 76.8815 58.3577 76.8815C64.5752 76.8711 69.6859 75.3534 72.819 69.0852L74.3897 64.3971L90.0065 54.5114C97.819 51.2266 103.369 61.6632 97.6156 68.9293C86.3037 79.4387 74.707 88.0873 62.8418 95.0728C54.2236 101.767 45.6055 101.538 36.9954 95.0728L24.2757 86.684Z" fill="#243A85"/>
<circle cx="45.989" cy="14.9223" r="14.9223" fill="#243A85"/>
<path d="M40.5833 7.41667H46C48.3932 7.41667 50.3333 9.35676 50.3333 11.75C50.3333 14.1432 48.3932 16.0833 46 16.0833H42.75L49.25 22.5833" stroke="white" stroke-width="2" stroke-linecap="round" stroke-linejoin="round"/>
<path d="M39.5 7.41667H52.5" stroke="white" stroke-width="2" stroke-linecap="round" stroke-linejoin="round"/>
<path d="M41.6667 11.75H52.5" stroke="white" stroke-width="2" stroke-linecap="round" stroke-linejoin="round"/>
<circle cx="71.4873" cy="38.2539" r="16.2539" fill="white" stroke="#243A85" stroke-width="2"/>
<path d="M64.4583 31.0417H70.5C73.1693 31.0417 75.3333 33.2056 75.3333 35.875C75.3333 38.5443 73.1693 40.7083 70.5 40.7083H66.875L74.125 47.9583" stroke="#243A85" stroke-width="2" stroke-linecap="round" stroke-linejoin="round"/>
<path d="M63.25 31.0417H77.75" stroke="#243A85" stroke-width="2" stroke-linecap="round" stroke-linejoin="round"/>
<path d="M65.6667 35.875H77.75" stroke="#243A85" stroke-width="2" stroke-linecap="round" stroke-linejoin="round"/>
</g>
<defs>
<clipPath id="clip0_2384_1466">
<rect width="100" height="100" fill="white"/>
</clipPath>
</defs>
</svg>
