<svg width="43" height="31" viewBox="0 0 43 31" fill="none" xmlns="http://www.w3.org/2000/svg">
<path d="M38.1953 0H4.44531C2.31062 0.0028125 0.580938 1.7325 0.578125 3.86719V26.3672C0.580938 28.5019 2.31062 30.2316 4.44531 30.2344H38.1953C40.33 30.2316 42.0597 28.5019 42.0625 26.3672V3.86719C42.0597 1.7325 40.33 0.0028125 38.1953 0ZM2.6875 7.73438H39.9531V11.25H2.6875V7.73438ZM4.44531 2.10938H38.1953C39.1656 2.11078 39.9517 2.89687 39.9531 3.86719V5.625H2.6875V3.86719C2.68891 2.89687 3.475 2.11078 4.44531 2.10938ZM38.1953 28.125H4.44531C3.475 28.1236 2.68891 27.3375 2.6875 26.3672V13.3594H39.9531V26.3672C39.9517 27.3375 39.1656 28.1236 38.1953 28.125ZM12.8828 22.5H7.25781C6.67562 22.5 6.20312 22.9725 6.20312 23.5547C6.20312 24.1369 6.67562 24.6094 7.25781 24.6094H12.8828C13.465 24.6094 13.9375 24.1369 13.9375 23.5547C13.9375 22.9725 13.465 22.5 12.8828 22.5ZM26.9453 22.5H18.5078C17.9256 22.5 17.4531 22.9725 17.4531 23.5547C17.4531 24.1369 17.9256 24.6094 18.5078 24.6094H26.9453C27.5275 24.6094 28 24.1369 28 23.5547C28 22.9725 27.5275 22.5 26.9453 22.5Z" fill="#DA3731"/>
</svg>
