<svg width="76" height="75" viewBox="0 0 76 75" fill="none" xmlns="http://www.w3.org/2000/svg">
<path d="M41.9447 31.7518C41.5553 31.7518 41.2145 31.8236 40.9224 31.9672C40.6303 32.1109 40.4113 32.3024 40.2652 32.5418C40.1192 32.7812 40.0462 33.0446 40.0462 33.3319C40.0462 33.8107 40.2166 34.1937 40.5573 34.481C40.8981 34.7683 41.3605 34.912 41.9447 34.912C43.3078 34.912 44.4517 35.3429 45.3767 36.2048C46.3016 37.0667 46.764 38.1201 46.764 39.365C46.764 40.3227 46.4476 41.2085 45.8148 42.0225C45.1819 42.8365 44.3787 43.3871 43.4051 43.6744V43.8181C43.4051 44.7757 42.9183 45.2545 41.9447 45.2545C40.9711 45.2545 40.4843 44.7757 40.4843 43.8181V43.6744C38.245 43.0041 37.1254 41.5676 37.1254 39.365C37.1254 38.4074 37.6122 37.9285 38.5858 37.9285C39.5594 37.9285 40.0462 38.4074 40.0462 39.365C40.0462 39.8438 40.2166 40.2269 40.5573 40.5142C40.8981 40.8015 41.3362 40.9451 41.8717 40.9451C42.4072 40.9451 42.8696 40.8015 43.2591 40.5142C43.6485 40.2269 43.8432 39.8438 43.8432 39.365C43.8432 38.8862 43.6485 38.5031 43.2591 38.2158C42.8696 37.9285 42.4315 37.7849 41.9447 37.7849C40.5817 37.7849 39.4377 37.354 38.5128 36.4921C37.5878 35.6302 37.1254 34.5768 37.1254 33.3319C37.1254 32.6615 37.2714 32.039 37.5635 31.4645C37.8556 30.8899 38.245 30.3871 38.7318 29.9562C39.2186 29.5252 39.8028 29.214 40.4843 29.0225V28.8788C40.4843 27.9212 40.9711 27.4424 41.9447 27.4424C42.9183 27.4424 43.4051 27.9212 43.4051 28.8788V29.0225C44.3787 29.3098 45.1819 29.8604 45.8148 30.6744C46.4476 31.4884 46.764 32.3742 46.764 33.3319C46.764 34.2895 46.2772 34.7683 45.3036 34.7683C44.33 34.7683 43.8432 34.2895 43.8432 33.3319C43.8432 32.853 43.6485 32.47 43.2591 32.1827C42.8696 31.8954 42.4315 31.7518 41.9447 31.7518ZM71.0068 44.6799C73.1487 45.1588 74.5361 46.4516 75.1689 48.5584C75.8018 50.6652 75.2906 52.4847 73.6355 54.0169L59.3235 67.6634C54.845 71.9727 49.4901 74.1274 43.2591 74.1274H4.85041C3.68209 74.1274 2.68414 73.7204 1.85658 72.9064C1.02902 72.0925 0.615234 71.1109 0.615234 69.9617V53.0114C0.615234 51.8622 1.02902 50.8807 1.85658 50.0667C2.68414 49.2527 3.68209 48.8457 4.85041 48.8457H12.1524C13.5155 48.8457 14.6351 49.3724 15.5114 50.4258L17.848 49.5639C16.2903 45.3503 15.9495 41.0409 16.8257 36.6357C17.7993 31.4645 20.136 27.0593 23.8357 23.4203L33.7664 13.6523L30.6996 5.17717C30.3101 3.83646 30.6996 2.807 31.8679 2.08877C33.0362 1.37054 34.1072 1.49024 35.0808 2.44788C35.3729 2.73518 35.738 2.87882 36.1761 2.87882C36.6142 2.87882 36.9793 2.73518 37.2714 2.44788C38.5371 1.20295 40.0705 0.580482 41.8717 0.580482C43.6729 0.580482 45.255 1.20295 46.618 2.44788C47.2995 3.214 48.0297 3.214 48.8086 2.44788C49.7822 1.49024 50.8532 1.37054 52.0215 2.08877C53.1898 2.807 53.5306 3.83646 53.0438 5.17717L50.123 13.6523L58.4473 21.8401C59.1288 22.5105 59.1288 23.1809 58.4473 23.8512C57.7658 24.5215 57.0842 24.5215 56.4027 23.8512L47.6403 15.3761H36.2491L25.8802 25.4313C22.7647 28.4958 20.7445 32.1109 19.8196 36.2766C18.8946 40.4424 19.1624 44.5842 20.6228 48.702L21.6451 48.2711C26.5131 46.4516 31.3324 46.691 36.1031 48.9893L46.472 53.7297C47.9324 54.4958 48.906 55.6449 49.3928 57.1772C49.6849 58.1348 49.6849 59.0925 49.3928 60.0501C50.269 59.667 51.0479 59.1403 51.7294 58.47L63.4127 48.2711C65.0678 43.4829 65.0678 38.6947 63.4127 33.9064C63.0232 33.0446 63.291 32.446 64.2159 32.1109C65.1408 31.7757 65.798 32.0869 66.1874 33.0446C67.5505 36.9709 67.8912 41.0409 67.2097 45.2545C68.378 44.5842 69.6437 44.3926 71.0068 44.6799ZM36.1031 5.75175C35.3242 5.75175 34.5453 5.56023 33.7664 5.17717L36.3952 12.5031H47.4942L49.9769 5.17717C49.2954 5.56023 48.5165 5.75175 47.6403 5.75175C46.3746 5.75175 45.3036 5.32082 44.4274 4.45894C43.7459 3.78858 42.894 3.45341 41.8717 3.45341C40.8494 3.45341 39.9975 3.78858 39.316 4.45894C38.4397 5.32082 37.3688 5.75175 36.1031 5.75175ZM3.53605 69.9617C3.53605 70.8236 3.97417 71.2545 4.85041 71.2545H12.1524C13.0287 71.2545 13.4668 70.8236 13.4668 69.9617V53.0114C13.4668 52.1495 13.0287 51.7186 12.1524 51.7186H4.85041C3.97417 51.7186 3.53605 52.1495 3.53605 53.0114V69.9617ZM71.5909 52.0059C72.3698 51.2398 72.6132 50.354 72.3211 49.3484C72.0291 48.3429 71.3962 47.7444 70.4226 47.5529C69.5464 47.3613 68.7675 47.5529 68.086 48.1274L53.774 60.6247C51.0479 63.0188 47.835 64.2158 44.1353 64.2158C44.038 64.2158 43.9893 64.2158 43.9893 64.2158C43.4051 64.2158 42.8209 64.168 42.2368 64.0722L28.509 59.7628C27.6327 59.4755 27.3407 58.877 27.6327 57.9672C27.9248 57.0575 28.5577 56.7462 29.5313 57.0335L43.113 61.3429C44.4761 61.726 45.547 61.3429 46.3259 60.1937C46.7154 59.5234 46.7884 58.8052 46.545 58.039C46.3016 57.2729 45.8391 56.6983 45.1576 56.3153L34.7887 51.575C30.7969 49.6597 26.7565 49.4681 22.6674 51.0004L16.3876 53.1551V69.9617C16.3876 70.4405 16.3389 70.8715 16.2416 71.2545H43.2591C48.7113 71.2545 53.4332 69.3871 57.425 65.6523L71.5909 52.0059ZM62.8285 28.7352C62.8285 28.7352 62.7555 28.807 62.6094 28.9506C62.4634 29.0943 62.1957 29.1661 61.8062 29.1661C61.4168 29.1661 61.076 29.0225 60.7839 28.7352C60.4919 28.4479 60.3458 28.1127 60.3458 27.7297C60.3458 27.3466 60.4919 27.0114 60.7839 26.7241C61.076 26.4368 61.4168 26.2932 61.8062 26.2932C62.1957 26.2932 62.5364 26.4368 62.8285 26.7241C63.1206 27.0114 63.2666 27.3466 63.2666 27.7297C63.2666 28.1127 63.1206 28.4479 62.8285 28.7352Z" fill="#DA3731"/>
</svg>
