<svg width="35" height="36" viewBox="0 0 35 36" fill="none" xmlns="http://www.w3.org/2000/svg">
<rect y="0.75" width="35" height="35" rx="17.5" fill="#243A85"/>
<g clip-path="url(#clip0_1_3449)">
<path d="M13.9745 9.76072C13.9745 9.76072 14.2033 9.53512 14.661 9.08392C15.1186 8.63272 15.9855 8.40712 17.2618 8.40712C18.538 8.40712 19.6273 8.85832 20.5297 9.76072C21.4321 10.6631 21.8833 11.746 21.8833 13.0093C21.8833 13.757 21.6513 14.5305 21.1872 15.3298C20.7231 16.129 20.1559 16.7091 19.4855 17.0701L19.2922 18.1143C19.2664 18.2432 19.189 18.3077 19.0601 18.3077H18.48V23.2966L19.0215 23.8381C19.073 23.8896 19.0988 23.9412 19.0988 23.9928C19.0988 24.0443 19.0859 24.0959 19.0601 24.1475L18.7507 24.5342L19.2535 25.0756C19.3051 25.1272 19.3308 25.1788 19.3308 25.2303C19.3308 25.3077 19.3051 25.3592 19.2535 25.385L18.596 25.9651L18.6347 26.5839C18.6347 26.6613 18.596 26.7257 18.5187 26.7773L17.3971 27.7055C17.3456 27.7312 17.294 27.7441 17.2424 27.7441C17.1909 27.7441 17.1393 27.7312 17.0878 27.7055L15.9662 26.8546C15.9146 26.8031 15.8889 26.7386 15.8889 26.6613V18.3077H15.4248C15.2959 18.3077 15.2185 18.2432 15.1927 18.1143L14.9994 17.0701C14.329 16.7091 13.7618 16.1355 13.2977 15.3491C12.8336 14.5627 12.6016 13.7957 12.6016 13.048C12.6016 11.7589 13.0592 10.6631 13.9745 9.76072ZM19.1761 16.722C19.5887 16.49 19.9625 16.1742 20.2977 15.7745C20.6329 15.3749 20.9036 14.9301 21.1098 14.4403C21.3161 13.9504 21.4192 13.4734 21.4192 13.0093C21.4192 11.8749 21.0132 10.9016 20.201 10.0894C19.3889 9.27729 18.4091 8.87121 17.2618 8.87121C16.1145 8.87121 15.1283 9.27729 14.3032 10.0894C13.4782 10.9016 13.0657 11.8878 13.0657 13.048C13.0657 13.7184 13.2848 14.4145 13.7231 15.1364C14.1614 15.8583 14.69 16.3869 15.3087 16.722C15.3603 16.7478 15.399 16.7994 15.4248 16.8767L15.6181 17.8436H17.0104C17.1651 17.8436 17.2424 17.9209 17.2424 18.0756C17.2424 18.2303 17.1651 18.3077 17.0104 18.3077H16.3529V26.5452L17.0104 27.048V21.1696C17.0104 21.0149 17.0878 20.9375 17.2424 20.9375C17.3971 20.9375 17.4745 21.0149 17.4745 21.1696V27.0093L18.1319 26.4679L18.0933 25.8878C18.0933 25.8104 18.1191 25.746 18.1706 25.6944L18.7507 25.2303L18.2866 24.7276C18.2609 24.676 18.248 24.6244 18.248 24.5729C18.248 24.5213 18.2609 24.4697 18.2866 24.4182L18.5574 24.0314L18.0933 23.5287C18.0417 23.4771 18.0159 23.4255 18.0159 23.374V18.3077H17.9386C17.7839 18.3077 17.7065 18.2303 17.7065 18.0756C17.7065 17.9209 17.7839 17.8436 17.9386 17.8436H18.8668L19.0601 16.8767C19.0859 16.7994 19.1246 16.7478 19.1761 16.722ZM16.1789 11.0176C16.1789 11.0176 16.253 10.9435 16.4013 10.7952C16.5495 10.647 16.8299 10.5729 17.2424 10.5729C17.655 10.5729 18.0095 10.7211 18.306 11.0176C18.6025 11.3141 18.7507 11.6751 18.7507 12.1005C18.7507 12.5259 18.6025 12.8869 18.306 13.1834C18.0095 13.4799 17.655 13.6281 17.2424 13.6281C16.8299 13.6281 16.4754 13.4799 16.1789 13.1834C15.8824 12.8869 15.7342 12.5259 15.7342 12.1005C15.7342 11.6751 15.8824 11.3141 16.1789 11.0176ZM16.5076 12.8546C16.5076 12.8546 16.5592 12.9062 16.6623 13.0093C16.7655 13.1125 16.9588 13.164 17.2424 13.164C17.5261 13.164 17.771 13.0609 17.9773 12.8546C18.1835 12.6484 18.2866 12.397 18.2866 12.1005C18.2866 11.804 18.1835 11.5526 17.9773 11.3463C17.771 11.1401 17.5261 11.037 17.2424 11.037C16.9588 11.037 16.7139 11.1401 16.5076 11.3463C16.3014 11.5526 16.1982 11.804 16.1982 12.1005C16.1982 12.397 16.3014 12.6484 16.5076 12.8546Z" fill="white"/>
</g>
<defs>
<clipPath id="clip0_1_3449">
<rect width="10" height="20" fill="white" transform="matrix(1 0 0 -1 12 28)"/>
</clipPath>
</defs>
</svg>
