<svg width="236" height="62" viewBox="0 0 236 62" fill="none" xmlns="http://www.w3.org/2000/svg">
<rect width="236" height="62" rx="31" fill="url(#paint0_linear_140_3157)"/>
<path d="M37.8398 36.2061L41.8145 39.3535L40.418 40.6426L36.5078 37.5381L37.8398 36.2061ZM41.7607 29.6855V30.6738C41.7607 31.8483 41.6139 32.901 41.3203 33.832C41.0267 34.763 40.6042 35.5544 40.0527 36.2061C39.5013 36.8577 38.8389 37.3555 38.0654 37.6992C37.2992 38.043 36.4398 38.2148 35.4873 38.2148C34.5635 38.2148 33.7148 38.043 32.9414 37.6992C32.1751 37.3555 31.5091 36.8577 30.9434 36.2061C30.3848 35.5544 29.9515 34.763 29.6436 33.832C29.3356 32.901 29.1816 31.8483 29.1816 30.6738V29.6855C29.1816 28.5111 29.332 27.4619 29.6328 26.5381C29.9408 25.6071 30.374 24.8158 30.9326 24.1641C31.4912 23.5052 32.1536 23.0039 32.9199 22.6602C33.6934 22.3164 34.542 22.1445 35.4658 22.1445C36.4183 22.1445 37.2812 22.3164 38.0547 22.6602C38.8281 23.0039 39.4906 23.5052 40.042 24.1641C40.5934 24.8158 41.016 25.6071 41.3096 26.5381C41.6104 27.4619 41.7607 28.5111 41.7607 29.6855ZM39.709 30.6738V29.6641C39.709 28.7331 39.6123 27.9095 39.4189 27.1934C39.2327 26.4772 38.957 25.8757 38.5918 25.3887C38.2266 24.9017 37.7826 24.5329 37.2598 24.2822C36.737 24.0316 36.139 23.9062 35.4658 23.9062C34.8285 23.9062 34.2484 24.0316 33.7256 24.2822C33.21 24.5329 32.766 24.9017 32.3936 25.3887C32.0212 25.8757 31.7347 26.4772 31.5342 27.1934C31.3337 27.9095 31.2334 28.7331 31.2334 29.6641V30.6738C31.2334 31.612 31.3337 32.4427 31.5342 33.166C31.7347 33.8822 32.0212 34.4873 32.3936 34.9814C32.7731 35.4684 33.2243 35.8372 33.7471 36.0879C34.2699 36.3385 34.8499 36.4639 35.4873 36.4639C36.1605 36.4639 36.7585 36.3385 37.2812 36.0879C37.804 35.8372 38.2445 35.4684 38.6025 34.9814C38.9678 34.4873 39.2435 33.8822 39.4297 33.166C39.6159 32.4427 39.709 31.612 39.709 30.6738ZM51.7725 35.3145V26.377H53.7705V38H51.8691L51.7725 35.3145ZM52.1484 32.8652L52.9756 32.8438C52.9756 33.6172 52.8932 34.3333 52.7285 34.9922C52.571 35.6439 52.3132 36.2096 51.9551 36.6895C51.597 37.1693 51.1279 37.5452 50.5479 37.8174C49.9678 38.0824 49.2624 38.2148 48.4316 38.2148C47.8659 38.2148 47.3467 38.1325 46.874 37.9678C46.4085 37.8031 46.0075 37.5488 45.6709 37.2051C45.3343 36.8613 45.0729 36.4137 44.8867 35.8623C44.7077 35.3109 44.6182 34.6484 44.6182 33.875V26.377H46.6055V33.8965C46.6055 34.4193 46.6628 34.8525 46.7773 35.1963C46.8991 35.5329 47.0602 35.8014 47.2607 36.002C47.4684 36.1953 47.6976 36.3314 47.9482 36.4102C48.2061 36.4889 48.471 36.5283 48.7432 36.5283C49.5882 36.5283 50.2578 36.3672 50.752 36.0449C51.2461 35.7155 51.6006 35.2751 51.8154 34.7236C52.0374 34.165 52.1484 33.5456 52.1484 32.8652ZM58.959 26.377V38H56.9609V26.377H58.959ZM56.8105 23.2939C56.8105 22.9717 56.9072 22.6995 57.1006 22.4775C57.3011 22.2555 57.5947 22.1445 57.9814 22.1445C58.361 22.1445 58.651 22.2555 58.8516 22.4775C59.0592 22.6995 59.1631 22.9717 59.1631 23.2939C59.1631 23.6019 59.0592 23.8669 58.8516 24.0889C58.651 24.3037 58.361 24.4111 57.9814 24.4111C57.5947 24.4111 57.3011 24.3037 57.1006 24.0889C56.9072 23.8669 56.8105 23.6019 56.8105 23.2939ZM66.8008 36.582C67.2734 36.582 67.7103 36.4854 68.1113 36.292C68.5124 36.0986 68.8418 35.8337 69.0996 35.4971C69.3574 35.1533 69.5042 34.763 69.54 34.3262H71.4307C71.3949 35.0137 71.1621 35.6546 70.7324 36.249C70.3099 36.8363 69.7549 37.3125 69.0674 37.6777C68.3799 38.0358 67.6243 38.2148 66.8008 38.2148C65.9271 38.2148 65.1644 38.0609 64.5127 37.7529C63.8682 37.445 63.3311 37.0225 62.9014 36.4854C62.4788 35.9482 62.1602 35.3324 61.9453 34.6377C61.7376 33.9359 61.6338 33.1947 61.6338 32.4141V31.9629C61.6338 31.1823 61.7376 30.4447 61.9453 29.75C62.1602 29.0482 62.4788 28.4287 62.9014 27.8916C63.3311 27.3545 63.8682 26.932 64.5127 26.624C65.1644 26.3161 65.9271 26.1621 66.8008 26.1621C67.7103 26.1621 68.5052 26.3483 69.1855 26.7207C69.8659 27.0859 70.3994 27.5872 70.7861 28.2246C71.18 28.8548 71.3949 29.571 71.4307 30.373H69.54C69.5042 29.8932 69.3682 29.46 69.1318 29.0732C68.9027 28.6865 68.5876 28.3786 68.1865 28.1494C67.7926 27.9131 67.3307 27.7949 66.8008 27.7949C66.1921 27.7949 65.68 27.9167 65.2646 28.1602C64.8564 28.3965 64.5306 28.7188 64.2871 29.127C64.0508 29.528 63.8789 29.9756 63.7715 30.4697C63.6712 30.9567 63.6211 31.4544 63.6211 31.9629V32.4141C63.6211 32.9225 63.6712 33.4238 63.7715 33.918C63.8717 34.4121 64.04 34.8597 64.2764 35.2607C64.5199 35.6618 64.8457 35.984 65.2539 36.2275C65.6693 36.4639 66.1849 36.582 66.8008 36.582ZM75.6631 21.5V38H73.665V21.5H75.6631ZM82.7637 26.377L77.6934 31.8018L74.8574 34.7451L74.6963 32.6289L76.7266 30.2012L80.3359 26.377H82.7637ZM80.9482 38L76.8018 32.457L77.833 30.6846L83.29 38H80.9482ZM100.51 36.3135V38H92.2275V36.3135H100.51ZM92.6465 22.3594V38H90.5732V22.3594H92.6465ZM99.4141 29.084V30.7705H92.2275V29.084H99.4141ZM100.402 22.3594V24.0566H92.2275V22.3594H100.402ZM104.764 28.8584V38H102.776V26.377H104.656L104.764 28.8584ZM104.291 31.748L103.464 31.7158C103.471 30.9209 103.589 30.1868 103.818 29.5137C104.048 28.8333 104.37 28.2425 104.785 27.7412C105.201 27.2399 105.695 26.8532 106.268 26.5811C106.848 26.3018 107.489 26.1621 108.19 26.1621C108.763 26.1621 109.279 26.2409 109.737 26.3984C110.196 26.5488 110.586 26.7923 110.908 27.1289C111.238 27.4655 111.488 27.9023 111.66 28.4395C111.832 28.9694 111.918 29.6175 111.918 30.3838V38H109.92V30.3623C109.92 29.7536 109.83 29.2666 109.651 28.9014C109.472 28.529 109.211 28.2604 108.867 28.0957C108.523 27.9238 108.101 27.8379 107.6 27.8379C107.105 27.8379 106.654 27.9417 106.246 28.1494C105.845 28.3571 105.498 28.6436 105.204 29.0088C104.918 29.374 104.692 29.793 104.527 30.2656C104.37 30.7311 104.291 31.2253 104.291 31.748ZM122.252 42.4688V28.6113L122.424 26.377H124.25V42.4688H122.252ZM114.442 32.3174V32.0918C114.442 31.2038 114.546 30.3981 114.754 29.6748C114.962 28.9443 115.266 28.3177 115.667 27.7949C116.068 27.2721 116.551 26.8711 117.117 26.5918C117.69 26.3053 118.342 26.1621 119.072 26.1621C119.803 26.1621 120.444 26.291 120.995 26.5488C121.554 26.7995 122.026 27.1683 122.413 27.6553C122.807 28.1351 123.118 28.7152 123.348 29.3955C123.577 30.0758 123.734 30.8457 123.82 31.7051V32.6934C123.742 33.5456 123.588 34.3118 123.358 34.9922C123.129 35.6725 122.818 36.2526 122.424 36.7324C122.037 37.2122 121.561 37.5811 120.995 37.8389C120.437 38.0895 119.788 38.2148 119.051 38.2148C118.335 38.2148 117.69 38.068 117.117 37.7744C116.551 37.4808 116.068 37.069 115.667 36.5391C115.273 36.0091 114.969 35.3861 114.754 34.6699C114.546 33.9466 114.442 33.1624 114.442 32.3174ZM116.44 32.0918V32.3174C116.44 32.8975 116.501 33.4453 116.623 33.9609C116.745 34.4694 116.931 34.9206 117.182 35.3145C117.439 35.7083 117.762 36.0199 118.148 36.249C118.542 36.471 119.008 36.582 119.545 36.582C120.204 36.582 120.752 36.4388 121.188 36.1523C121.632 35.8659 121.987 35.4899 122.252 35.0244C122.517 34.5518 122.721 34.0469 122.864 33.5098V30.9209C122.785 30.527 122.66 30.1439 122.488 29.7715C122.324 29.3991 122.109 29.0661 121.844 28.7725C121.579 28.4717 121.257 28.2354 120.877 28.0635C120.505 27.8844 120.068 27.7949 119.566 27.7949C119.022 27.7949 118.553 27.9095 118.159 28.1387C117.765 28.3678 117.439 28.6829 117.182 29.084C116.931 29.4779 116.745 29.9326 116.623 30.4482C116.501 30.9639 116.44 31.5117 116.44 32.0918ZM134.552 35.3145V26.377H136.55V38H134.648L134.552 35.3145ZM134.928 32.8652L135.755 32.8438C135.755 33.6172 135.673 34.3333 135.508 34.9922C135.35 35.6439 135.092 36.2096 134.734 36.6895C134.376 37.1693 133.907 37.5452 133.327 37.8174C132.747 38.0824 132.042 38.2148 131.211 38.2148C130.645 38.2148 130.126 38.1325 129.653 37.9678C129.188 37.8031 128.787 37.5488 128.45 37.2051C128.114 36.8613 127.852 36.4137 127.666 35.8623C127.487 35.3109 127.397 34.6484 127.397 33.875V26.377H129.385V33.8965C129.385 34.4193 129.442 34.8525 129.557 35.1963C129.678 35.5329 129.84 35.8014 130.04 36.002C130.248 36.1953 130.477 36.3314 130.728 36.4102C130.985 36.4889 131.25 36.5283 131.522 36.5283C132.368 36.5283 133.037 36.3672 133.531 36.0449C134.025 35.7155 134.38 35.2751 134.595 34.7236C134.817 34.165 134.928 33.5456 134.928 32.8652ZM141.738 26.377V38H139.74V26.377H141.738ZM139.59 23.2939C139.59 22.9717 139.687 22.6995 139.88 22.4775C140.08 22.2555 140.374 22.1445 140.761 22.1445C141.14 22.1445 141.43 22.2555 141.631 22.4775C141.839 22.6995 141.942 22.9717 141.942 23.2939C141.942 23.6019 141.839 23.8669 141.631 24.0889C141.43 24.3037 141.14 24.4111 140.761 24.4111C140.374 24.4111 140.08 24.3037 139.88 24.0889C139.687 23.8669 139.59 23.6019 139.59 23.2939ZM146.916 28.2031V38H144.929V26.377H146.862L146.916 28.2031ZM150.547 26.3125L150.536 28.1602C150.371 28.1243 150.214 28.1029 150.063 28.0957C149.92 28.0814 149.756 28.0742 149.569 28.0742C149.111 28.0742 148.706 28.1458 148.355 28.2891C148.005 28.4323 147.707 28.6328 147.464 28.8906C147.22 29.1484 147.027 29.4564 146.884 29.8145C146.748 30.1654 146.658 30.5521 146.615 30.9746L146.057 31.2969C146.057 30.5951 146.125 29.9362 146.261 29.3203C146.404 28.7044 146.622 28.1602 146.916 27.6875C147.21 27.2077 147.582 26.8353 148.033 26.5703C148.492 26.2982 149.036 26.1621 149.666 26.1621C149.809 26.1621 149.974 26.18 150.16 26.2158C150.346 26.2445 150.475 26.2767 150.547 26.3125ZM155.843 36.7969L159.076 26.377H161.203L156.541 39.7939C156.434 40.0804 156.29 40.3883 156.111 40.7178C155.939 41.0544 155.717 41.373 155.445 41.6738C155.173 41.9746 154.844 42.2181 154.457 42.4043C154.077 42.5977 153.623 42.6943 153.093 42.6943C152.935 42.6943 152.735 42.6729 152.491 42.6299C152.248 42.5869 152.076 42.5511 151.976 42.5225L151.965 40.9111C152.022 40.9183 152.112 40.9255 152.233 40.9326C152.362 40.9469 152.452 40.9541 152.502 40.9541C152.953 40.9541 153.336 40.8932 153.651 40.7715C153.966 40.6569 154.231 40.46 154.446 40.1807C154.668 39.9085 154.858 39.5326 155.016 39.0527L155.843 36.7969ZM153.469 26.377L156.487 35.4004L157.003 37.4951L155.574 38.2256L151.299 26.377H153.469Z" fill="white"/>
<path d="M193.001 22C198.524 22 203.001 26.4771 203.001 32C203.001 37.5228 198.524 42 193.001 42C187.478 42 183.001 37.5228 183.001 32C183.001 26.4771 187.478 22 193.001 22ZM193.001 23.5C188.307 23.5 184.501 27.3056 184.501 32C184.501 36.6944 188.307 40.5 193.001 40.5C197.695 40.5 201.501 36.6944 201.501 32C201.501 27.3056 197.695 23.5 193.001 23.5ZM192.648 27.5531L192.721 27.469C192.987 27.2027 193.404 27.1785 193.697 27.3963L193.781 27.469L197.782 31.4698C198.048 31.7361 198.073 32.1528 197.855 32.4464L197.782 32.5306L193.78 36.5306C193.488 36.8234 193.013 36.8233 192.72 36.5303C192.454 36.264 192.429 35.8474 192.647 35.5538L192.72 35.4697L195.442 32.749L188.75 32.7493C188.371 32.7493 188.057 32.4671 188.007 32.1011L188 31.9993C188 31.6196 188.282 31.3058 188.648 31.2561L188.75 31.2493L195.44 31.249L192.721 28.5296C192.454 28.2634 192.43 27.8467 192.648 27.5531Z" fill="white"/>
<defs>
<linearGradient id="paint0_linear_140_3157" x1="112" y1="11.5" x2="118" y2="62" gradientUnits="userSpaceOnUse">
<stop stop-color="#10C158"/>
<stop offset="1" stop-color="#013F1A"/>
</linearGradient>
</defs>
</svg>
