<svg width="36" height="36" viewBox="0 0 36 36" fill="none" xmlns="http://www.w3.org/2000/svg">
<rect x="0.5" y="0.75" width="35" height="35" rx="17.5" fill="#243A85"/>
<path d="M11.501 12.9945C11.501 12.4788 11.6815 12.0405 12.0424 11.6795C12.4034 11.3186 12.8417 11.1381 13.3573 11.1381C13.873 11.1381 14.3113 11.3186 14.6722 11.6795C15.0332 12.0405 15.2137 12.4788 15.2137 12.9945V13.6132C15.2137 14.2836 14.9301 14.7993 14.3628 15.1602C14.4402 15.2891 14.5562 15.3794 14.7109 15.4309C14.943 14.8379 15.3813 14.5414 16.0258 14.5414H16.0645C16.3223 14.5414 16.5286 14.4383 16.6833 14.232C16.1161 13.8711 15.8325 13.3554 15.8325 12.6851V12.0663C15.8325 11.5506 16.0129 11.1123 16.3739 10.7514C16.7349 10.3904 17.1732 10.2099 17.6888 10.2099C18.2045 10.2099 18.6428 10.3904 19.0037 10.7514C19.3647 11.1123 19.5452 11.5506 19.5452 12.0663V12.6851C19.5452 13.3554 19.2616 13.8711 18.6943 14.232C18.849 14.4383 19.0553 14.5414 19.3131 14.5414H19.3518C19.9964 14.5414 20.4347 14.8379 20.6667 15.4309C20.8214 15.3794 20.9374 15.2891 21.0148 15.1602C20.4476 14.7993 20.164 14.2836 20.164 13.6132V12.9945C20.164 12.4788 20.3444 12.0405 20.7054 11.6795C21.0663 11.3186 21.5047 11.1381 22.0203 11.1381C22.536 11.1381 22.9743 11.3186 23.3352 11.6795C23.6962 12.0405 23.8767 12.4788 23.8767 12.9945V13.6132C23.8767 14.2836 23.5931 14.7993 23.0258 15.1602C23.1805 15.3665 23.3868 15.4696 23.6446 15.4696H23.6833C24.07 15.4696 24.4052 15.6114 24.6888 15.895C24.9724 16.1786 25.1142 16.5138 25.1142 16.9005V18.5635C25.1142 18.7698 25.0111 18.8729 24.8048 18.8729H19.2358C19.0295 18.8729 18.9264 18.7698 18.9264 18.5635V17.6353H16.4512V18.5635C16.4512 18.7698 16.3481 18.8729 16.1419 18.8729H10.5728C10.3665 18.8729 10.2634 18.7698 10.2634 18.5635V16.9005C10.2634 16.5138 10.4052 16.1786 10.6888 15.895C10.9724 15.6114 11.3076 15.4696 11.6943 15.4696H11.733C11.9908 15.4696 12.1971 15.3665 12.3518 15.1602C11.7846 14.7993 11.501 14.2836 11.501 13.6132V12.9945ZM15.8325 18.2541V17.6353H14.9043C14.698 17.6353 14.5949 17.5322 14.5949 17.326V16.2044C14.2597 16.5396 13.8472 16.7072 13.3573 16.7072C12.8675 16.7072 12.442 16.5267 12.0811 16.1657L11.9651 16.0497C11.8877 16.0755 11.8104 16.0884 11.733 16.0884H11.6943C11.4623 16.0884 11.2689 16.1657 11.1142 16.3204C10.9595 16.4751 10.8822 16.6685 10.8822 16.9005V18.2541H15.8325ZM23.6833 16.0884H23.6446C23.5673 16.0884 23.4899 16.0755 23.4126 16.0497L23.2966 16.1657C22.9356 16.5267 22.5102 16.7072 22.0203 16.7072C21.5304 16.7072 21.1179 16.5396 20.7827 16.2044V17.326C20.7827 17.5322 20.6796 17.6353 20.4733 17.6353H19.5452V18.2541H24.4954V16.9005C24.4954 16.6685 24.4181 16.4751 24.2634 16.3204C24.1087 16.1657 23.9153 16.0884 23.6833 16.0884ZM20.7827 12.9945V13.6132C20.7827 13.9484 20.9052 14.2385 21.1501 14.4834C21.3951 14.7283 21.6851 14.8508 22.0203 14.8508C22.3555 14.8508 22.6455 14.7283 22.8905 14.4834C23.1354 14.2385 23.2579 13.9484 23.2579 13.6132V12.9945C23.2579 12.6593 23.1354 12.3692 22.8905 12.1243C22.6455 11.8794 22.3555 11.7569 22.0203 11.7569C21.6851 11.7569 21.3951 11.8794 21.1501 12.1243C20.9052 12.3692 20.7827 12.6593 20.7827 12.9945ZM22.4457 15.4309C22.291 15.4567 22.1492 15.4696 22.0203 15.4696C21.8914 15.4696 21.7496 15.4567 21.5949 15.4309C21.5175 15.5598 21.4015 15.6888 21.2468 15.8177C21.4789 15.9981 21.7367 16.0884 22.0203 16.0884C22.3039 16.0884 22.5617 15.9981 22.7938 15.8177C22.6391 15.7145 22.5231 15.5856 22.4457 15.4309ZM16.4512 12.0663V12.6851C16.4512 13.0202 16.5737 13.3103 16.8187 13.5552C17.0636 13.8002 17.3536 13.9226 17.6888 13.9226C18.024 13.9226 18.314 13.8002 18.559 13.5552C18.8039 13.3103 18.9264 13.0202 18.9264 12.6851V12.0663C18.9264 11.7311 18.8039 11.4411 18.559 11.1961C18.314 10.9512 18.024 10.8287 17.6888 10.8287C17.3536 10.8287 17.0636 10.9512 16.8187 11.1961C16.5737 11.4411 16.4512 11.7311 16.4512 12.0663ZM18.1142 14.5027C17.9595 14.5285 17.8177 14.5414 17.6888 14.5414C17.5599 14.5414 17.4181 14.5285 17.2634 14.5027C17.1861 14.6317 17.07 14.7606 16.9153 14.8895C17.1474 15.07 17.4052 15.1602 17.6888 15.1602C17.9724 15.1602 18.2303 15.07 18.4623 14.8895C18.3076 14.7864 18.1916 14.6574 18.1142 14.5027ZM15.2137 15.9724V17.0166H20.164V15.9724C20.164 15.9208 20.1575 15.8628 20.1446 15.7983C20.1317 15.7339 20.1124 15.6759 20.0866 15.6243C20.0608 15.5727 20.0286 15.5212 19.9899 15.4696C19.9512 15.418 19.9061 15.3729 19.8546 15.3342C19.803 15.2956 19.7514 15.2633 19.6999 15.2376C19.6483 15.2118 19.5903 15.1924 19.5258 15.1795C19.4614 15.1667 19.4034 15.1602 19.3518 15.1602H19.3131C19.2358 15.1602 19.1584 15.1473 19.0811 15.1215L18.9651 15.2376C18.6041 15.5985 18.1787 15.779 17.6888 15.779C17.1989 15.779 16.7735 15.5985 16.4126 15.2376L16.2966 15.1215C16.2192 15.1473 16.1419 15.1602 16.0645 15.1602H16.0258C15.7938 15.1602 15.6004 15.2376 15.4457 15.3923C15.291 15.5469 15.2137 15.7403 15.2137 15.9724ZM14.1308 15.8177C13.9761 15.6888 13.8601 15.5598 13.7827 15.4309C13.628 15.4567 13.4862 15.4696 13.3573 15.4696C13.2284 15.4696 13.0866 15.4567 12.9319 15.4309C12.8546 15.5598 12.7385 15.6888 12.5838 15.8177C12.8159 15.9981 13.0737 16.0884 13.3573 16.0884C13.6409 16.0884 13.8988 15.9981 14.1308 15.8177ZM14.5949 12.9945C14.5949 12.6593 14.4724 12.3692 14.2275 12.1243C13.9826 11.8794 13.6925 11.7569 13.3573 11.7569C13.0222 11.7569 12.7321 11.8794 12.4872 12.1243C12.2422 12.3692 12.1198 12.6593 12.1198 12.9945V13.6132C12.1198 13.9484 12.2422 14.2385 12.4872 14.4834C12.7321 14.7283 13.0222 14.8508 13.3573 14.8508C13.6925 14.8508 13.9826 14.7283 14.2275 14.4834C14.4724 14.2385 14.5949 13.9484 14.5949 13.6132V12.9945ZM25.3463 20.8453C25.501 20.7937 25.6621 20.7679 25.8297 20.7679C25.9973 20.7679 26.1584 20.8002 26.3131 20.8646C26.4678 20.9291 26.6032 21.0064 26.7192 21.0967C26.8352 21.1869 26.9448 21.3094 27.0479 21.4641C27.2026 21.6961 27.28 21.9668 27.28 22.2762V22.5856C27.28 22.7403 27.2155 22.8434 27.0866 22.895L17.1861 26.2983C17.1345 26.2983 17.0958 26.2983 17.07 26.2983C17.0442 26.2983 17.0056 26.2983 16.954 26.2983L15.175 25.6795H13.0479V25.9889C13.0479 26.1952 12.9448 26.2983 12.7385 26.2983H11.1916V26.6077C11.1916 26.814 11.0884 26.9171 10.8822 26.9171H8.40705C8.20079 26.9171 8.09766 26.814 8.09766 26.6077V19.8011C8.09766 19.5948 8.20079 19.4917 8.40705 19.4917H10.8822H12.7385C12.9448 19.4917 13.0479 19.5948 13.0479 19.8011V20.1105H16.4512C16.5286 20.1105 16.6059 20.1363 16.6833 20.1878L18.849 22.3536C18.9006 22.4309 18.9522 22.4954 19.0037 22.5469L25.3463 20.8453ZM10.5728 26.2983V20.1105H8.71644V26.2983H10.5728ZM12.4291 25.6795V20.1105H11.1916V25.6795H12.4291ZM26.6612 22.3536V22.2762C26.6612 22.0958 26.6096 21.9282 26.5065 21.7735C26.2745 21.4125 25.9393 21.2965 25.501 21.4254L19.1584 23.1657C19.1842 23.5009 19.0811 23.7974 18.849 24.0552C18.617 24.2873 18.3334 24.4033 17.9982 24.4033C17.663 24.4033 17.3794 24.2873 17.1474 24.0552L15.6004 22.5083L16.0645 22.0442L17.6115 23.5911C17.8693 23.8748 18.1336 23.8812 18.4043 23.6105C18.675 23.3398 18.6686 23.0755 18.3849 22.8177L16.3352 20.7293H13.0479V25.0608H15.2137C15.2395 25.0608 15.2781 25.0608 15.3297 25.0608L17.07 25.6795L26.6612 22.3536ZM20.512 8.16021L20.3573 8.74032C20.1511 8.68875 19.9577 8.63719 19.7772 8.58562L19.9319 8.00551C20.1124 8.05708 20.3058 8.10864 20.512 8.16021ZM26.6612 17.326C26.6612 17.2744 26.6612 17.2099 26.6612 17.1326H27.28C27.28 17.2099 27.28 17.2744 27.28 17.326C27.28 17.4806 27.28 17.6225 27.28 17.7514H26.6612C26.6612 17.5967 26.6612 17.4549 26.6612 17.326ZM19.3131 7.85081L19.1971 8.4696C18.9908 8.44382 18.7975 8.41804 18.617 8.39225L18.6557 7.77347C18.8877 7.79925 19.1069 7.82503 19.3131 7.85081ZM26.4678 15.3923C26.4163 15.2118 26.3647 15.0184 26.3131 14.8121L26.8932 14.6574C26.9448 14.8637 26.9964 15.07 27.0479 15.2762L26.4678 15.3923ZM21.7109 8.6243L21.4402 9.16573C21.2597 9.08838 21.0792 9.01104 20.8988 8.93369L21.1308 8.35358C21.3113 8.43093 21.5047 8.52117 21.7109 8.6243ZM26.6225 16.5525C26.6225 16.3462 26.5967 16.1528 26.5452 15.9724L27.164 15.895C27.1897 16.1013 27.2155 16.3075 27.2413 16.5138L26.6225 16.5525ZM25.0369 12.1823C24.9338 12.0276 24.8177 11.8729 24.6888 11.7182L25.1529 11.2928C25.2818 11.4733 25.4107 11.6538 25.5396 11.8342L25.0369 12.1823ZM26.1198 14.2707C26.0424 14.0902 25.9651 13.9097 25.8877 13.7293L26.4678 13.4586C26.5452 13.6648 26.6225 13.8582 26.6999 14.0387L26.1198 14.2707ZM24.7662 10.8287L24.3021 11.2541C24.1732 11.0994 24.0314 10.9576 23.8767 10.8287L24.3021 10.3646C24.4568 10.5193 24.6115 10.674 24.7662 10.8287ZM22.8325 9.20441L22.4844 9.74584C22.3297 9.64271 22.1621 9.53958 21.9816 9.43645L22.2524 8.89501C22.4586 8.99814 22.652 9.10128 22.8325 9.20441ZM26.2358 20.0718C26.2873 19.8655 26.3389 19.6722 26.3905 19.4917L27.0093 19.6464C26.9577 19.8527 26.8932 20.0589 26.8159 20.2652L26.2358 20.0718ZM27.2026 18.4088C27.2026 18.6151 27.1768 18.8214 27.1253 19.0276L26.5065 18.9116C26.5581 18.7311 26.5967 18.5377 26.6225 18.3315L27.2026 18.4088ZM23.838 9.97789L23.4512 10.442C23.2966 10.3131 23.1419 10.1841 22.9872 10.0552L23.3352 9.59115C23.5157 9.69428 23.6833 9.82319 23.838 9.97789ZM25.6557 13.1878C25.5525 13.0074 25.4494 12.8398 25.3463 12.6851L25.8877 12.337C25.9908 12.5175 26.094 12.698 26.1971 12.8784L25.6557 13.1878ZM9.10318 14.7735C9.02583 14.9539 8.97427 15.1344 8.94849 15.3149L8.3297 15.1989C8.38127 14.9926 8.43283 14.7864 8.4844 14.5801L9.10318 14.7735ZM9.48992 13.6519C9.41257 13.8324 9.34812 14.0129 9.29655 14.1934L8.71644 14C8.76801 13.7937 8.84535 13.5875 8.94849 13.3812L9.48992 13.6519ZM10.07 12.6077C9.9669 12.7624 9.86377 12.93 9.76064 13.1105L9.2192 12.8398C9.32233 12.6335 9.42546 12.453 9.5286 12.2983L10.07 12.6077ZM10.7275 11.6409C10.6244 11.7956 10.5083 11.9503 10.3794 12.105L9.87666 11.7569C10.0056 11.5764 10.1345 11.4088 10.2634 11.2541L10.7275 11.6409ZM8.71644 17.674L8.09766 17.7127C8.09766 17.5838 8.09766 17.4549 8.09766 17.326C8.09766 17.2228 8.09766 17.1326 8.09766 17.0552L8.71644 17.0939C8.71644 17.1713 8.71644 17.2486 8.71644 17.326C8.71644 17.4549 8.71644 17.5709 8.71644 17.674ZM8.83246 15.895C8.80668 16.1013 8.7809 16.3075 8.75511 16.5138L8.13633 16.4365C8.16211 16.2302 8.1879 16.0239 8.21368 15.8177L8.83246 15.895ZM8.13633 18.3315L8.75511 18.2541C8.7809 18.4604 8.80668 18.6538 8.83246 18.8342L8.25235 18.9503C8.20079 18.744 8.16211 18.5377 8.13633 18.3315ZM12.4678 10.0166C12.3131 10.1455 12.1584 10.2744 12.0037 10.4033L11.617 9.90054C11.7717 9.77163 11.9393 9.64271 12.1198 9.5138L12.4678 10.0166ZM14.5562 8.93369C14.35 8.98525 14.1566 9.0626 13.9761 9.16573L13.7441 8.58562C13.9245 8.50827 14.1179 8.43093 14.3242 8.35358L14.5562 8.93369ZM15.6778 8.58562C15.4715 8.63719 15.2781 8.68875 15.0977 8.74032L14.9043 8.12153C15.1105 8.06997 15.3168 8.0184 15.5231 7.96684L15.6778 8.58562ZM16.838 8.39225C16.6575 8.41804 16.4641 8.44382 16.2579 8.4696L16.1419 7.85081C16.3481 7.82503 16.5544 7.79925 16.7606 7.77347L16.838 8.39225ZM13.4733 9.39778C13.2929 9.50091 13.1253 9.60404 12.9706 9.70717L12.6225 9.16573C12.803 9.0626 12.9835 8.95947 13.164 8.85634L13.4733 9.39778ZM17.6501 8.35358C17.5728 8.35358 17.4954 8.35358 17.4181 8.35358V7.73479C17.4954 7.73479 17.5857 7.73479 17.6888 7.73479C17.8177 7.73479 17.9338 7.73479 18.0369 7.73479V8.35358C17.8822 8.35358 17.7533 8.35358 17.6501 8.35358ZM11.5396 10.79C11.4107 10.919 11.2818 11.0608 11.1529 11.2155L10.6888 10.79C10.8435 10.6353 10.9853 10.4806 11.1142 10.326L11.5396 10.79Z" fill="white"/>
</svg>
