<svg width="35" height="36" viewBox="0 0 35 36" fill="none" xmlns="http://www.w3.org/2000/svg">
<rect y="0.75" width="35" height="35" rx="17.5" fill="#243A85"/>
<path d="M19.3529 21.9434C19.1467 22.0465 19.0436 22.2012 19.0436 22.4075V23.7224H19.1596C19.3401 23.7224 19.4947 23.7869 19.6237 23.9158C19.7526 24.0447 19.817 24.2123 19.817 24.4186V24.8826C19.817 24.9858 19.7912 25.0889 19.7397 25.192C19.6881 25.2952 19.6108 25.379 19.5076 25.4434C19.4045 25.5079 19.3014 25.5401 19.1982 25.5401L18.9662 27.0871C18.9146 27.3449 18.7922 27.5576 18.5988 27.7252C18.4054 27.8928 18.1669 27.9766 17.8833 27.9766H17.4966C17.2903 27.9766 17.1872 27.8799 17.1872 27.6865C17.1872 27.4931 17.2903 27.3965 17.4966 27.3965H17.8833C18.1669 27.3965 18.3345 27.2546 18.3861 26.971L18.6181 25.5401H16.8005C16.5942 25.5401 16.4911 25.4434 16.4911 25.25C16.4911 25.0567 16.5942 24.96 16.8005 24.96H19.1596C19.2111 24.96 19.2369 24.9342 19.2369 24.8826V24.4186C19.2369 24.3412 19.2111 24.3025 19.1596 24.3025H14.4413C14.3898 24.3025 14.364 24.3412 14.364 24.4186V24.8826C14.364 24.9342 14.3898 24.96 14.4413 24.96H15.4469C15.6273 24.96 15.7176 25.0567 15.7176 25.25C15.7176 25.4434 15.6273 25.5401 15.4469 25.5401H14.9828L15.2148 26.971C15.2664 27.2546 15.434 27.3965 15.7176 27.3965H16.1043C16.3106 27.3965 16.4137 27.4931 16.4137 27.6865C16.4137 27.8799 16.3106 27.9766 16.1043 27.9766H15.7176C15.434 27.9766 15.1955 27.8928 15.0021 27.7252C14.8087 27.5576 14.6863 27.3449 14.6347 27.0871L14.4027 25.5401C14.2222 25.5401 14.0739 25.4756 13.9579 25.3467C13.8419 25.2178 13.7839 25.0631 13.7839 24.8826V24.4186C13.7839 24.2123 13.8483 24.0447 13.9773 23.9158C14.1062 23.7869 14.2609 23.7224 14.4413 23.7224H14.5574V22.4075C14.5574 22.2012 14.4671 22.0594 14.2866 21.9821C13.178 21.4664 12.2949 20.6994 11.6375 19.681C10.98 18.6626 10.6513 17.5475 10.6513 16.3357C10.6513 14.634 11.2507 13.1902 12.4496 12.0042C13.6485 10.8182 15.0988 10.2252 16.8005 10.2252C18.3216 10.2252 19.6623 10.7279 20.8226 11.7335C20.9773 11.8366 20.9901 11.9655 20.8612 12.1202C20.7323 12.2749 20.5905 12.2878 20.4358 12.1589C19.4045 11.2565 18.1927 10.8053 16.8005 10.8053C15.2793 10.8053 13.9708 11.3467 12.875 12.4296C11.7793 13.5125 11.2314 14.8145 11.2314 16.3357C11.2314 17.0576 11.3668 17.7537 11.6375 18.4241C11.9082 19.0944 12.2885 19.6874 12.7784 20.2031C13.2682 20.7187 13.8483 21.1313 14.5187 21.4407C14.9312 21.6211 15.1375 21.9434 15.1375 22.4075V23.7224H18.4634V22.4075C18.4634 21.9434 18.6697 21.6211 19.0822 21.4407C20.0878 20.9766 20.887 20.2869 21.48 19.3716C22.073 18.4563 22.3695 17.4572 22.3695 16.3744C22.3695 15.1626 22.0215 14.0668 21.3253 13.0871C21.1964 12.9324 21.2157 12.8034 21.3833 12.7003C21.5509 12.5972 21.6863 12.623 21.7894 12.7777C22.5629 13.8348 22.9496 15.0337 22.9496 16.3744C22.9496 17.5604 22.6209 18.6626 21.9634 19.681C21.306 20.6994 20.4358 21.4535 19.3529 21.9434ZM13.2424 17.9213C13.2424 17.5861 13.3198 17.2767 13.4745 16.9931C13.6292 16.7095 13.8548 16.4839 14.1513 16.3163C14.4478 16.1488 14.7636 16.065 15.0988 16.065H15.2922C14.8023 15.6267 14.5574 15.0723 14.5574 14.402C14.5574 13.7832 14.7765 13.2546 15.2148 12.8163C15.6531 12.378 16.1817 12.1589 16.8005 12.1589C17.4192 12.1589 17.9478 12.378 18.3861 12.8163C18.8244 13.2546 19.0436 13.7832 19.0436 14.402C19.0436 15.0723 18.7986 15.6267 18.3087 16.065H18.5021C19.0178 16.065 19.4561 16.2454 19.817 16.6064C20.178 16.9674 20.3585 17.4057 20.3585 17.9213V19.623C20.3585 19.8292 20.2682 19.9324 20.0878 19.9324H13.5132C13.3327 19.9324 13.2424 19.8292 13.2424 19.623V17.9213ZM15.6209 13.2224C15.6209 13.2224 15.5403 13.303 15.3792 13.4641C15.218 13.6253 15.1375 13.9379 15.1375 14.402C15.1375 14.8661 15.2986 15.2593 15.6209 15.5815C15.9432 15.9038 16.3364 16.065 16.8005 16.065C17.2645 16.065 17.6577 15.9038 17.98 15.5815C18.3023 15.2593 18.4634 14.8661 18.4634 14.402C18.4634 13.9379 18.3023 13.5447 17.98 13.2224C17.6577 12.9001 17.2645 12.739 16.8005 12.739C16.3364 12.739 15.9432 12.9001 15.6209 13.2224ZM18.5021 16.6451H15.0988C14.7378 16.6451 14.4349 16.7675 14.19 17.0125C13.945 17.2574 13.8226 17.5604 13.8226 17.9213V19.3523H14.8668V18.8495C14.8668 18.669 14.9634 18.5788 15.1568 18.5788C15.3502 18.5788 15.4469 18.669 15.4469 18.8495V19.3523H18.154V18.8495C18.154 18.669 18.2507 18.5788 18.4441 18.5788C18.6375 18.5788 18.7342 18.669 18.7342 18.8495V19.3523H19.7784V17.9213C19.7784 17.5604 19.6559 17.2574 19.411 17.0125C19.166 16.7675 18.8631 16.6451 18.5021 16.6451ZM17.1098 9.25833C17.1098 9.43881 17.0067 9.52905 16.8005 9.52905C16.5942 9.52905 16.4911 9.43881 16.4911 9.25833V8.48485C16.4911 8.27859 16.5942 8.17546 16.8005 8.17546C17.0067 8.17546 17.1098 8.27859 17.1098 8.48485V9.25833ZM13.0104 10.3412L12.585 9.68374C12.5076 9.50327 12.5528 9.36791 12.7203 9.27767C12.8879 9.18743 13.0104 9.21966 13.0878 9.37435L13.5132 10.0705C13.5905 10.2252 13.5518 10.3541 13.3971 10.4572C13.3456 10.483 13.294 10.4959 13.2424 10.4959C13.1393 10.4959 13.062 10.4443 13.0104 10.3412ZM9.83913 12.6616C9.65865 12.5585 9.61998 12.4232 9.72311 12.2556C9.82624 12.088 9.95515 12.0558 10.1098 12.1589L10.806 12.5456C10.9607 12.6488 10.9865 12.7777 10.8833 12.9324C10.8318 13.0355 10.7544 13.0871 10.6513 13.0871C10.5997 13.0871 10.5482 13.0742 10.4966 13.0484L9.83913 12.6616ZM9.68444 16.065C9.8907 16.065 9.99383 16.1616 9.99383 16.355C9.99383 16.5484 9.8907 16.6451 9.68444 16.6451H8.91095C8.70469 16.6451 8.60156 16.5484 8.60156 16.355C8.60156 16.1616 8.70469 16.065 8.91095 16.065H9.68444ZM10.4966 19.6616C10.6771 19.5585 10.8124 19.5907 10.9027 19.7583C10.9929 19.9259 10.9607 20.0613 10.806 20.1644L10.1098 20.5511C10.0583 20.5769 10.0067 20.5898 9.95515 20.5898C9.85202 20.5898 9.77467 20.5383 9.72311 20.4351C9.61998 20.2804 9.65865 20.1515 9.83913 20.0484L10.4966 19.6616ZM20.2038 10.4572C20.0491 10.3541 20.0104 10.2252 20.0878 10.0705L20.5132 9.37435C20.5905 9.21966 20.713 9.18743 20.8806 9.27767C21.0482 9.36791 21.0933 9.50327 21.0159 9.68374L20.5905 10.3412C20.5389 10.4443 20.4616 10.4959 20.3585 10.4959C20.3069 10.4959 20.2553 10.483 20.2038 10.4572ZM22.9496 13.0871C22.8465 13.0871 22.7692 13.0355 22.7176 12.9324C22.6145 12.7777 22.6402 12.6488 22.7949 12.5456L23.4911 12.1589C23.6458 12.0558 23.7747 12.088 23.8778 12.2556C23.9809 12.4232 23.9423 12.5585 23.7618 12.6616L23.1043 13.0484C23.0528 13.0742 23.0012 13.0871 22.9496 13.0871ZM24.69 16.065C24.8962 16.065 24.9994 16.1616 24.9994 16.355C24.9994 16.5484 24.8962 16.6451 24.69 16.6451H23.9165C23.7102 16.6451 23.6071 16.5484 23.6071 16.355C23.6071 16.1616 23.7102 16.065 23.9165 16.065H24.69ZM23.7618 20.0484C23.9423 20.1515 23.9809 20.2804 23.8778 20.4351C23.8262 20.5383 23.7489 20.5898 23.6458 20.5898C23.5942 20.5898 23.5426 20.5769 23.4911 20.5511L22.7949 20.1644C22.6402 20.0613 22.608 19.9259 22.6982 19.7583C22.7885 19.5907 22.9238 19.5585 23.1043 19.6616L23.7618 20.0484Z" fill="white"/>
</svg>
