<svg width="41" height="40" viewBox="0 0 41 40" fill="none" xmlns="http://www.w3.org/2000/svg">
<path d="M36.0901 27.3298C36.5812 27.3298 36.9986 27.5016 37.3424 27.8454C37.6862 28.1892 37.8581 28.6066 37.8581 29.0977C37.8581 29.5397 37.7107 29.9326 37.4161 30.2764C37.7107 30.6201 37.8581 31.013 37.8581 31.455C37.8581 31.897 37.7107 32.2899 37.4161 32.6336C37.7107 32.9774 37.8581 33.3703 37.8581 33.8123C37.8581 34.2543 37.7107 34.6471 37.4161 34.9909C37.7107 35.3347 37.8581 35.7276 37.8581 36.1695C37.8581 36.6606 37.6862 37.0781 37.3424 37.4218C36.9986 37.7656 36.5812 37.9375 36.0901 37.9375H27.103L24.1564 36.7589H22.5358V37.9375H9.57077V27.9927C8.83412 28.3365 8.04837 28.5084 7.2135 28.5084C5.59287 28.5084 4.20552 27.9314 3.05144 26.7773C1.89735 25.6232 1.32031 24.2358 1.32031 22.6152C1.32031 20.9946 1.89735 19.6072 3.05144 18.4532C4.20552 17.2991 5.59287 16.722 7.2135 16.722C8.83412 16.722 10.2215 17.2991 11.3756 18.4532C12.5296 19.6072 13.1067 20.9946 13.1067 22.6152C13.1067 23.9412 12.7138 25.1198 11.928 26.1511H22.5358V27.3298H24.1564L27.3977 25.4881C27.8396 25.2426 28.2325 24.9479 28.5763 24.6042C29.6567 23.5238 30.1969 22.2223 30.1969 20.6999V19.6686C30.1969 19.3249 30.3074 19.0425 30.5284 18.8215C30.7494 18.6005 31.0318 18.49 31.3756 18.49C32.2104 18.49 32.9102 18.7724 33.475 19.3371C34.0398 19.9019 34.3222 20.6017 34.3222 21.4366V21.7312C34.3222 23.6465 33.7574 25.3654 32.6279 26.8878C32.5788 26.9369 32.5542 26.986 32.5542 27.0351C32.5542 27.2315 32.6524 27.3298 32.8489 27.3298H36.0901ZM2.49895 22.6152C2.49895 23.6956 2.84272 24.6778 3.53026 25.5618C4.02136 24.9725 4.61067 24.5305 5.29821 24.2358C4.61067 23.6465 4.26691 22.9099 4.26691 22.0259C4.26691 21.191 4.54929 20.4912 5.11405 19.9265C5.67881 19.3617 6.37863 19.0793 7.2135 19.0793C8.04837 19.0793 8.74818 19.3617 9.31295 19.9265C9.87771 20.4912 10.1601 21.191 10.1601 22.0259C10.1601 22.9099 9.81632 23.6465 9.12878 24.2358C9.81632 24.5305 10.4056 24.9725 10.8967 25.5618C11.5843 24.6778 11.928 23.6956 11.928 22.6152C11.928 21.3384 11.4615 20.2334 10.5284 19.3003C9.59533 18.3672 8.49036 17.9007 7.2135 17.9007C5.93664 17.9007 4.83167 18.3672 3.89858 19.3003C2.96549 20.2334 2.49895 21.3384 2.49895 22.6152ZM5.9612 20.7736C5.9612 20.7736 5.87525 20.8595 5.70337 21.0314C5.53148 21.2033 5.44554 21.5348 5.44554 22.0259C5.44554 22.517 5.61743 22.9344 5.9612 23.2782C6.30497 23.622 6.7224 23.7939 7.2135 23.7939C7.7046 23.7939 8.12203 23.622 8.4658 23.2782C8.80957 22.9344 8.98145 22.517 8.98145 22.0259C8.98145 21.5348 8.80957 21.1174 8.4658 20.7736C8.12203 20.4298 7.7046 20.2579 7.2135 20.2579C6.7224 20.2579 6.30497 20.4298 5.9612 20.7736ZM4.41424 26.3721C5.2491 27.0106 6.18219 27.3298 7.2135 27.3298C8.24481 27.3298 9.17789 27.0106 10.0128 26.3721C9.32522 25.439 8.39214 24.9725 7.2135 24.9725C6.03486 24.9725 5.10177 25.439 4.41424 26.3721ZM10.7494 27.3298V36.7589H18.9999V27.3298H10.7494ZM21.3571 36.7589V27.3298H20.1785V36.7589H21.3571ZM36.0901 36.7589C36.483 36.7589 36.6794 36.5624 36.6794 36.1695C36.6794 35.7767 36.483 35.5802 36.0901 35.5802H33.1435V34.4016H36.0901C36.483 34.4016 36.6794 34.2051 36.6794 33.8123C36.6794 33.4194 36.483 33.223 36.0901 33.223H33.1435V32.0443H36.0901C36.483 32.0443 36.6794 31.8479 36.6794 31.455C36.6794 31.0621 36.483 30.8657 36.0901 30.8657H33.1435V29.687H36.0901C36.483 29.687 36.6794 29.4906 36.6794 29.0977C36.6794 28.7048 36.483 28.5084 36.0901 28.5084H32.8489C32.456 28.5084 32.1122 28.3611 31.8175 28.0664C31.5229 27.7718 31.3756 27.428 31.3756 27.0351C31.3756 26.6913 31.4738 26.3967 31.6702 26.1511C32.6524 24.8252 33.1435 23.3519 33.1435 21.7312V21.4366C33.1435 20.9455 32.9716 20.528 32.6279 20.1843C32.2841 19.8405 31.8667 19.6686 31.3756 19.6686V20.6999C31.3756 22.517 30.7126 24.0885 29.3866 25.4145C28.9937 25.8074 28.5272 26.1511 27.987 26.4458L24.4511 28.5084H22.5358V35.5802H24.4511L27.3977 36.7589H36.0901ZM36.1269 15.5802C36.1269 15.5802 35.8384 15.8687 35.2614 16.4458C34.6843 17.0228 33.5855 17.3113 31.9649 17.3113C30.3443 17.3113 28.9569 16.7343 27.8028 15.5802C26.6487 14.4261 26.0717 13.0388 26.0717 11.4182C26.0717 9.79754 26.6487 8.41018 27.8028 7.2561C28.9569 6.10202 30.3443 5.52498 31.9649 5.52498C33.5855 5.52498 34.9729 6.10202 36.1269 7.2561C37.281 8.41018 37.8581 9.79754 37.8581 11.4182C37.8581 13.0388 37.281 14.4261 36.1269 15.5802ZM29.1656 15.1751C30.0005 15.8135 30.9336 16.1327 31.9649 16.1327C32.9962 16.1327 33.9293 15.8135 34.7641 15.1751C34.0766 14.242 33.1435 13.7754 31.9649 13.7754C30.7862 13.7754 29.8532 14.242 29.1656 15.1751ZM30.7126 9.57654C30.7126 9.57654 30.6266 9.66249 30.4548 9.83437C30.2829 10.0063 30.1969 10.3377 30.1969 10.8288C30.1969 11.3199 30.3688 11.7374 30.7126 12.0811C31.0563 12.4249 31.4738 12.5968 31.9649 12.5968C32.456 12.5968 32.8734 12.4249 33.2172 12.0811C33.561 11.7374 33.7328 11.3199 33.7328 10.8288C33.7328 10.3377 33.561 9.92031 33.2172 9.57654C32.8734 9.23277 32.456 9.06089 31.9649 9.06089C31.4738 9.06089 31.0563 9.23277 30.7126 9.57654ZM35.2798 8.10325C35.2798 8.10325 35.0465 7.86998 34.58 7.40343C34.1134 6.93689 33.2417 6.70362 31.9649 6.70362C30.688 6.70362 29.583 7.17016 28.65 8.10325C27.7169 9.03633 27.2503 10.1413 27.2503 11.4182C27.2503 12.4986 27.5941 13.4808 28.2816 14.3648C28.7727 13.7754 29.3621 13.3335 30.0496 13.0388C29.3621 12.4495 29.0183 11.7128 29.0183 10.8288C29.0183 9.99398 29.3007 9.29416 29.8654 8.7294C30.4302 8.16463 31.13 7.88225 31.9649 7.88225C32.7997 7.88225 33.4996 8.16463 34.0643 8.7294C34.6291 9.29416 34.9115 9.99398 34.9115 10.8288C34.9115 11.7128 34.5677 12.4495 33.8802 13.0388C34.5677 13.3335 35.157 13.7754 35.6481 14.3648C36.3357 13.4808 36.6794 12.4986 36.6794 11.4182C36.6794 10.1413 36.2129 9.03633 35.2798 8.10325ZM22.4621 15.4697C22.4621 15.4697 22.057 15.8749 21.2466 16.6852C20.4363 17.4955 18.9016 17.9007 16.6426 17.9007C14.3835 17.9007 12.4437 17.0904 10.8231 15.4697C9.20245 13.8491 8.39214 11.9093 8.39214 9.65021C8.39214 7.39115 9.20245 5.45131 10.8231 3.83069C12.4437 2.21006 14.3835 1.39975 16.6426 1.39975C18.9016 1.39975 20.8415 2.21006 22.4621 3.83069C24.0827 5.45131 24.8931 7.39115 24.8931 9.65021C24.8931 11.9093 24.0827 13.8491 22.4621 15.4697ZM11.5597 14.5858C12.9839 16.0099 14.6782 16.722 16.6426 16.722C18.607 16.722 20.3013 16.0099 21.7255 14.5858C21.4308 13.7018 20.9397 12.9406 20.2522 12.3021L19.3682 15.9854L16.6426 13.9228L13.917 15.9854L13.033 12.3021C12.3455 12.8915 11.8544 13.6527 11.5597 14.5858ZM14.9851 5.63548C14.9851 5.63548 14.8685 5.75211 14.6352 5.98538C14.402 6.21865 14.2853 6.6545 14.2853 7.29293C14.2853 7.93136 14.5186 8.48385 14.9851 8.95039C15.4517 9.41694 16.0042 9.65021 16.6426 9.65021C17.281 9.65021 17.8335 9.41694 18.3001 8.95039C18.7666 8.48385 18.9999 7.93136 18.9999 7.29293C18.9999 6.6545 18.7666 6.10202 18.3001 5.63548C17.8335 5.16893 17.281 4.93566 16.6426 4.93566C16.0042 4.93566 15.4517 5.16893 14.9851 5.63548ZM16.6426 12.3021L17.7476 10.9762C17.3547 10.878 16.9864 10.8288 16.6426 10.8288C16.2988 10.8288 15.9305 10.878 15.5376 10.9762L16.6426 12.3021ZM18.9262 11.3445L17.5266 13.1125L18.6315 13.9228L19.2209 11.4918C19.1718 11.4427 19.0735 11.3936 18.9262 11.3445ZM14.359 11.3445C14.2117 11.3936 14.1134 11.4427 14.0643 11.4918L14.6536 13.9228L15.7586 13.1125L14.359 11.3445ZM21.6518 4.641C21.6518 4.641 21.308 4.29723 20.6205 3.60969C19.933 2.92215 18.607 2.57838 16.6426 2.57838C14.6782 2.57838 13.0085 3.26592 11.6334 4.641C10.2583 6.01608 9.57077 7.68581 9.57077 9.65021C9.57077 11.0253 9.96365 12.3021 10.7494 13.4808C11.4861 11.811 12.7138 10.657 14.4327 10.0185C13.5487 9.33099 13.1067 8.42246 13.1067 7.29293C13.1067 6.31074 13.4505 5.47587 14.138 4.78833C14.8255 4.10079 15.6604 3.75702 16.6426 3.75702C17.6248 3.75702 18.4597 4.10079 19.1472 4.78833C19.8347 5.47587 20.1785 6.31074 20.1785 7.29293C20.1785 8.42246 19.7365 9.33099 18.8525 10.0185C20.5714 10.657 21.7991 11.811 22.5358 13.4808C23.3215 12.3021 23.7144 11.0253 23.7144 9.65021C23.7144 7.68581 23.0269 6.01608 21.6518 4.641ZM14.2853 19.0793H15.464V20.2579H14.2853V19.0793ZM16.6426 19.0793H26.0717V20.2579H16.6426V19.0793ZM14.2853 21.4366H26.0717V22.6152H14.2853V21.4366ZM14.2853 23.7939H24.8931V24.9725H14.2853V23.7939ZM11.928 34.4016H13.1067V35.5802H11.928V34.4016ZM14.2853 34.4016H15.464V35.5802H14.2853V34.4016ZM16.6426 34.4016H17.8212V35.5802H16.6426V34.4016Z" fill="white"/>
</svg>
