<svg width="40" height="40" viewBox="0 0 40 40" fill="none" xmlns="http://www.w3.org/2000/svg">
<path d="M21.7856 16.0591C21.933 16.5502 21.8961 17.0167 21.6751 17.4587C21.4541 17.9007 21.1226 18.1954 20.6806 18.3427V19.0057H19.3547V18.3427C18.5198 18.048 18.1024 17.4833 18.1024 16.6484V16.5011H19.3547V16.6484C19.3547 16.9922 19.5511 17.1641 19.944 17.1641H20.0913C20.3369 17.1641 20.5088 17.0658 20.607 16.8694C20.7543 16.5256 20.6561 16.2801 20.3123 16.1327L19.1337 15.5434C18.6917 15.2979 18.397 14.9296 18.2497 14.4385C18.1515 14.1929 18.1147 13.9596 18.1392 13.7386C18.1638 13.5176 18.2252 13.3089 18.3234 13.1125C18.4216 12.9161 18.5689 12.7319 18.7654 12.56C18.9618 12.3881 19.1582 12.2776 19.3547 12.2285V11.4919H20.6806V12.2285C21.5155 12.4741 21.933 13.0388 21.933 13.9228V13.9965H20.6806V13.9228C20.6806 13.579 20.4842 13.4072 20.0913 13.4072H19.944C19.6985 13.4072 19.5266 13.5054 19.4283 13.7018C19.281 13.9965 19.3792 14.2175 19.723 14.3648L20.9016 15.0278C21.3436 15.2242 21.6383 15.568 21.7856 16.0591ZM26.9422 10.9025C27.9735 12.5723 28.3663 14.3648 28.1208 16.2801C27.8752 18.1954 27.0649 19.816 25.6899 21.142C24.0692 22.7135 22.1294 23.4747 19.8703 23.4256C17.6113 23.3765 15.696 22.5416 14.1245 20.921C12.553 19.3003 11.7918 17.3605 11.8409 15.1014C11.89 12.8424 12.7248 10.9271 14.3455 9.35559V3.31507H15.5978V9.65025C15.5978 9.84669 15.5241 9.99401 15.3768 10.0922C14.0999 11.2709 13.351 12.7073 13.13 14.4016C12.909 16.0959 13.2896 17.6552 14.2718 19.0793C15.3031 20.7 16.7641 21.6944 18.6549 22.0628C20.5456 22.4311 22.2767 22.0873 23.8482 21.0315C25.4198 19.9756 26.4019 18.5146 26.7948 16.6484C27.1877 14.7822 26.8439 13.0388 25.7635 11.4182C25.7144 11.32 25.6899 11.2218 25.6899 11.1235V5.81968H26.9422V10.9025ZM23.1853 2.72575H24.4376V8.76627C24.4376 8.86449 24.413 8.96271 24.3639 9.06093C24.1183 9.4047 23.8237 9.47836 23.4799 9.28192C22.0557 8.44705 20.5088 8.17695 18.839 8.47161C18.6426 8.47161 18.4707 8.41022 18.3234 8.28745C18.176 8.16467 18.1024 8.00506 18.1024 7.80862V3.97805H19.3547V7.14564C19.6002 7.09653 19.8212 7.07198 20.0177 7.07198C21.0981 7.07198 22.1539 7.29297 23.1853 7.73496V2.72575ZM20.6806 3.97805V1.47345H21.933V3.97805H20.6806ZM26.5738 23.7202L27.3105 24.7515C25.1496 26.4213 22.7187 27.2316 20.0177 27.1825C18.8881 27.1825 17.7832 27.0351 16.7027 26.7405L17.0711 25.5618C18.0042 25.8074 18.9864 25.9302 20.0177 25.9302C22.4732 25.9302 24.6585 25.1935 26.5738 23.7202ZM12.7248 5.81968L13.4615 6.77732C12.9704 7.21931 12.5039 7.68585 12.0619 8.17695L11.1042 7.29297C11.5953 6.75276 12.1355 6.26167 12.7248 5.81968ZM14.3455 2.06277V0.810467H15.5978V2.06277H14.3455ZM25.6899 4.56737V3.31507H26.9422V4.56737H25.6899ZM23.1853 15.9118V14.6595H24.4376V15.9118H23.1853ZM15.5978 15.9118V14.6595H16.8501V15.9118H15.5978ZM14.6401 24.5305C15.033 24.727 15.4504 24.9234 15.8924 25.1199L15.3768 26.2985C14.9348 26.1021 14.4928 25.8811 14.0508 25.6355L14.6401 24.5305ZM38.1392 17.0167C39.1705 19.7178 39.146 22.3943 38.0655 25.0462L36.1503 29.7607H36.3713C36.7641 29.7607 36.9606 29.9572 36.9606 30.3501V35.3593C36.9606 35.8013 36.7641 36.0223 36.3713 36.0223V38.5269H35.119V36.0223H28.7838V38.5269H27.5315V36.0223C27.1386 36.0223 26.9422 35.8013 26.9422 35.3593V30.3501C26.9422 29.9572 27.1386 29.7607 27.5315 29.7607V28.1401C27.5315 25.832 28.0471 23.6466 29.0784 21.5839C29.324 21.142 29.4468 20.6509 29.4468 20.1106V15.2488C29.4468 14.6595 29.6555 14.1438 30.0729 13.7018C30.4903 13.2598 31.0183 13.0388 31.6567 13.0388C31.7058 13.0388 31.7795 13.0634 31.8777 13.1125L30.1834 8.98726C29.8888 8.39794 29.8642 7.80862 30.1097 7.21931C30.4044 6.62999 30.8464 6.22483 31.4357 6.00384C32.025 5.78284 32.6143 5.79512 33.2037 6.04067C33.793 6.28622 34.2104 6.70365 34.456 7.29297L38.1392 17.0167ZM35.7083 34.7699V31.013H28.1945V34.7699H35.7083ZM36.8869 24.5305C37.8691 22.2224 37.8937 19.8651 36.9606 17.4587L33.2773 7.80862C33.1791 7.51397 32.995 7.30525 32.7248 7.18247C32.4547 7.0597 32.1846 7.0597 31.9145 7.18247C31.6444 7.30525 31.4357 7.48941 31.2884 7.73496C31.1902 7.98051 31.1902 8.25061 31.2884 8.54527L33.4983 13.7755C33.6948 14.2666 33.8175 14.7577 33.8666 15.2488V15.3224V22.8362H32.6143V15.3224C32.6143 15.2733 32.5898 15.2242 32.5407 15.1751C32.5407 15.126 32.5407 15.0769 32.5407 15.0278C32.4425 14.5858 32.1478 14.3648 31.6567 14.3648C31.4603 14.3648 31.3007 14.4016 31.1779 14.4753C31.0551 14.549 30.9446 14.6595 30.8464 14.8068C30.7482 14.9541 30.6991 15.1014 30.6991 15.2488V20.1106C30.6991 20.8473 30.5517 21.5103 30.2571 22.0996C29.324 24.0149 28.8329 26.0284 28.7838 28.1401V29.7607H34.7506L36.8869 24.5305ZM33.2037 33.5176V32.2653H34.456V33.5176H33.2037ZM12.5039 29.7607C12.8967 29.7607 13.0932 29.9572 13.0932 30.3501V35.3593C13.0932 35.8013 12.8967 36.0223 12.5039 36.0223V38.5269H11.2515V36.0223H4.91638V38.5269H3.66407V36.0223C3.27119 36.0223 3.07475 35.8013 3.07475 35.3593V30.3501C3.07475 29.9572 3.27119 29.7607 3.66407 29.7607H3.88507L1.96978 25.0462C0.889365 22.3943 0.86481 19.7178 1.89612 17.0167L5.57936 7.29297C5.82491 6.70365 6.24234 6.28622 6.83166 6.04067C7.42098 5.79512 8.0103 5.78284 8.59962 6.00384C9.18894 6.22483 9.63092 6.62999 9.92558 7.21931C10.1711 7.80862 10.1711 8.39794 9.92558 8.98726L8.15763 13.1125C8.25585 13.0634 8.32951 13.0388 8.37862 13.0388C9.01705 13.0388 9.54498 13.2598 9.96242 13.7018C10.3798 14.1438 10.5886 14.6595 10.5886 15.2488V20.1106C10.5886 20.6509 10.7113 21.142 10.9569 21.5839C11.9882 23.6466 12.5039 25.832 12.5039 28.1401V29.7607ZM3.14842 24.5305L5.2847 29.7607H11.2515V28.1401C11.2024 26.0284 10.7113 24.0149 9.77825 22.0996C9.48359 21.5103 9.33626 20.8473 9.33626 20.1106V15.2488C9.33626 14.7577 9.09072 14.463 8.59962 14.3648C8.0103 14.2175 7.64197 14.4385 7.49464 15.0278C7.49464 15.0769 7.48237 15.126 7.45781 15.1751C7.43326 15.2242 7.42098 15.2733 7.42098 15.3224V22.8362H6.16868V15.3224V15.2488C6.21779 14.7577 6.34056 14.2666 6.537 13.7755L8.74695 8.54527C8.84517 8.25061 8.83289 7.98051 8.71011 7.73496C8.58734 7.48941 8.3909 7.30525 8.1208 7.18247C7.85069 7.0597 7.58059 7.0597 7.31048 7.18247C7.04038 7.30525 6.85622 7.51397 6.758 7.80862L3.07475 17.4587C2.14167 19.8651 2.16622 22.2224 3.14842 24.5305ZM11.8409 34.7699V31.013H4.32706V34.7699H11.8409ZM5.57936 33.5176V32.2653H6.83166V33.5176H5.57936Z" fill="white"/>
</svg>
