<svg width="36" height="36" viewBox="0 0 36 36" fill="none" xmlns="http://www.w3.org/2000/svg">
<rect x="0.5" y="0.75" width="35" height="35" rx="17.5" fill="#243A85"/>
<path d="M26.733 12.0663C27.1713 12.0663 27.5387 12.2145 27.8352 12.511C28.1317 12.8075 28.28 13.1749 28.28 13.6132C28.28 14.0516 28.1317 14.419 27.8352 14.7155C27.5387 15.012 27.1713 15.1602 26.733 15.1602H25.7662C25.7919 15.2633 25.8048 15.3665 25.8048 15.4696C25.8048 15.7274 25.7146 15.9466 25.5341 16.1271C25.3536 16.3075 25.1345 16.3978 24.8767 16.3978H19.9264C19.7201 16.3978 19.617 16.5009 19.617 16.7072C19.617 16.9134 19.7201 17.0166 19.9264 17.0166H21.164C21.4218 17.0166 21.6409 17.1068 21.8214 17.2873C22.0019 17.4678 22.0921 17.6869 22.0921 17.9447V18.2541H22.7109V18.8729C22.7109 19.1565 22.8269 19.3499 23.059 19.453C23.3168 19.5562 23.5489 19.5046 23.7551 19.2983L24.1805 18.8729L25.4954 20.1878L25.07 20.6132C24.8638 20.8195 24.8122 21.0387 24.9153 21.2707C25.0185 21.5285 25.2118 21.6574 25.4954 21.6574H26.1142V23.5138H25.4954C25.2118 23.5138 25.0185 23.6298 24.9153 23.8619C24.8122 24.1197 24.8638 24.3517 25.07 24.558L25.4954 24.9834L24.1805 26.2983L23.7551 25.8729C23.5489 25.6667 23.3297 25.6151 23.0977 25.7182C22.8398 25.8213 22.7109 26.0147 22.7109 26.2983V26.9171H20.8546V26.2983C20.8546 26.0147 20.7385 25.8213 20.5065 25.7182C20.2487 25.6151 20.0166 25.6667 19.8104 25.8729L19.3849 26.2983L18.1474 25.0608H9.09766V21.3867C9.09766 20.2265 9.57464 19.3241 10.5286 18.6795C10.9411 18.3959 11.3923 18.2283 11.8822 18.1768L13.1971 17.9834L13.3518 17.2486C12.7846 16.9134 12.4236 16.4236 12.2689 15.779H12.1916C11.8564 15.779 11.5663 15.6565 11.3214 15.4116C11.0765 15.1667 10.954 14.8766 10.954 14.5414C10.954 14.2578 11.0442 14.0129 11.2247 13.8066L11.0314 13.3039C10.9798 13.1234 10.954 12.9429 10.954 12.7624C10.954 12.1952 11.1989 11.744 11.6888 11.4088L11.8048 11.3315L11.7275 11.2155C11.6244 11.0092 11.5728 10.7772 11.5728 10.5193C11.5728 10.1068 11.7275 9.74584 12.0369 9.43645C12.3463 9.12706 12.7072 8.97236 13.1198 8.97236H15.2468C16.3297 8.97236 17.1805 9.41067 17.7993 10.2873C17.8767 9.82319 18.0636 9.39133 18.3601 8.9917C18.6566 8.59207 19.024 8.28267 19.4623 8.06352C19.9006 7.84437 20.3647 7.73479 20.8546 7.73479C21.4218 7.73479 21.9503 7.88304 22.4402 8.17954C22.9301 8.47605 23.3039 8.88212 23.5617 9.39778C23.7938 9.32043 24.0258 9.28176 24.2579 9.28176C24.9282 9.28176 25.5083 9.52669 25.9982 10.0166C26.4881 10.5064 26.733 11.0865 26.733 11.7569C26.733 11.8342 26.7201 11.9374 26.6943 12.0663C26.6943 12.0663 26.7072 12.0663 26.733 12.0663ZM17.1419 13.9226V15.1602C17.3223 15.1602 17.4706 15.1022 17.5866 14.9862C17.7026 14.8702 17.7606 14.7219 17.7606 14.5414C17.7606 14.3609 17.7026 14.2127 17.5866 14.0967C17.4706 13.9806 17.3223 13.9226 17.1419 13.9226ZM12.0369 11.9116C11.7275 12.1179 11.5728 12.4015 11.5728 12.7624C11.5728 12.8913 11.5857 13.0074 11.6115 13.1105L11.7275 13.3812C11.8822 13.3296 12.0369 13.3039 12.1916 13.3039H12.3076C12.4881 12.814 12.7846 12.4144 13.1971 12.105L13.2358 12.0663C13.3647 11.8342 13.5323 11.6667 13.7385 11.5635L13.8932 11.4862L14.2026 12.0276L14.0093 12.105C13.8288 12.2081 13.7385 12.3628 13.7385 12.569C13.7385 12.8784 13.8932 13.046 14.2026 13.0718L16.8325 13.3039H17.1419C17.2708 13.3039 17.4126 13.3296 17.5673 13.3812L17.722 12.569C17.7477 12.4144 17.7606 12.2597 17.7606 12.105C17.7606 11.4088 17.5157 10.8158 17.0258 10.326C16.536 9.83608 15.943 9.59115 15.2468 9.59115H13.1198C12.8619 9.59115 12.6428 9.68139 12.4623 9.86187C12.2818 10.0423 12.1916 10.2615 12.1916 10.5193C12.1916 10.674 12.2303 10.8158 12.3076 10.9447L12.5783 11.5635L12.0369 11.9116ZM11.7468 14.0967C11.7468 14.0967 11.7178 14.1257 11.6598 14.1837C11.6018 14.2417 11.5728 14.3609 11.5728 14.5414C11.5728 14.7219 11.6308 14.8702 11.7468 14.9862C11.8628 15.1022 12.0111 15.1602 12.1916 15.1602V14.0773C12.1916 14.0773 12.1916 14.0258 12.1916 13.9226C12.0111 13.9226 11.8628 13.9806 11.7468 14.0967ZM12.8104 15.1602C12.8104 15.6759 12.9908 16.1142 13.3518 16.4751C13.7128 16.8361 14.1511 17.0166 14.6667 17.0166C15.1824 17.0166 15.6207 16.8361 15.9816 16.4751C16.3426 16.1142 16.5231 15.6759 16.5231 15.1602V13.884L14.1253 13.6906C13.6612 13.639 13.3518 13.3941 13.1971 12.9558C12.9393 13.291 12.8104 13.6648 12.8104 14.0773V15.1602ZM18.4954 20.6132L18.07 20.1878L18.7662 19.453C18.663 19.3499 18.5599 19.2597 18.4568 19.1823C18.1216 18.976 17.7606 18.8342 17.3739 18.7569L16.7938 18.6795L16.4457 20.9226L15.7883 20.4972L15.5949 21.0387L16.4457 24.442H18.5728C18.7017 24.2615 18.7275 24.081 18.6501 23.9005C18.547 23.6427 18.3536 23.5138 18.07 23.5138H17.4512V21.6574H18.07C18.3536 21.6574 18.547 21.5414 18.6501 21.3094C18.7533 21.0516 18.7017 20.8195 18.4954 20.6132ZM14.6667 19.8398L14.1253 20.1878L14.28 20.7293H15.0535L15.2082 20.1878L14.6667 19.8398ZM14.28 21.3481L13.5065 24.442H15.8269L15.0535 21.3481H14.28ZM15.9816 19.9171L16.175 18.6022L16.0203 18.5635L15.1695 19.4144L15.9816 19.9171ZM15.4015 17.5193C15.1695 17.5967 14.9245 17.6353 14.6667 17.6353C14.4089 17.6353 14.164 17.5967 13.9319 17.5193L13.7772 18.1768L14.6667 19.0663L15.5562 18.1768L15.4015 17.5193ZM13.3131 18.5635L13.1584 18.6022L13.3518 19.9171L14.164 19.4144L13.3131 18.5635ZM9.71644 21.3867V24.442H12.8877L13.7385 21.0387L13.5452 20.4972L12.8877 20.9226L12.5396 18.6795L11.9595 18.7569C11.5728 18.8342 11.2118 18.976 10.8767 19.1823C10.1032 19.698 9.71644 20.4328 9.71644 21.3867ZM24.1805 19.7624C23.7938 20.1492 23.349 20.233 22.8463 20.0138C22.3435 19.7946 22.0921 19.4144 22.0921 18.8729H21.4733C21.4733 19.4144 21.2284 19.7882 20.7385 19.9945C20.2229 20.2265 19.7717 20.1492 19.3849 19.7624V19.7237L18.9209 20.1878H18.9595C19.3463 20.5746 19.4301 21.0193 19.2109 21.5221C18.9918 22.0248 18.6115 22.2762 18.07 22.2762V22.895C18.6115 22.895 18.9853 23.14 19.1916 23.6298C19.4236 24.1455 19.3463 24.5967 18.9595 24.9834H18.9209L19.3849 25.4475V25.4088C19.7717 25.0221 20.2164 24.9383 20.7192 25.1574C21.222 25.3766 21.4733 25.7569 21.4733 26.2983H22.0921C22.0921 25.7569 22.3371 25.383 22.8269 25.1768C23.3426 24.9447 23.7938 25.0221 24.1805 25.4088V25.4475L24.6446 24.9834H24.6059C24.2192 24.5967 24.1354 24.1519 24.3546 23.6492C24.5737 23.1464 24.954 22.895 25.4954 22.895V22.2762C24.954 22.2762 24.5802 22.0313 24.3739 21.5414C24.1419 21.0258 24.2192 20.5746 24.6059 20.1878H24.6446L24.1805 19.7237V19.7624ZM24.8767 15.779C25.0829 15.779 25.1861 15.6759 25.1861 15.4696C25.1861 15.2633 25.0829 15.1602 24.8767 15.1602H18.3794C18.3279 15.1602 18.2763 15.1602 18.2247 15.1602C17.9669 15.5727 17.6059 15.779 17.1419 15.779H17.0645C16.9098 16.4236 16.5489 16.9134 15.9816 17.2486L16.1363 17.9834L17.4512 18.1768C17.9411 18.2283 18.3923 18.3959 18.8048 18.6795C18.9338 18.7569 19.0756 18.8729 19.2303 19.0276L19.3849 18.8729L19.8104 19.2983C20.0166 19.5046 20.2422 19.5562 20.4872 19.453C20.7321 19.3499 20.8546 19.1565 20.8546 18.8729V18.2541H21.4733V17.9447C21.4733 17.7385 21.3702 17.6353 21.164 17.6353H19.9264C19.6686 17.6353 19.4494 17.5451 19.2689 17.3646C19.0884 17.1841 18.9982 16.965 18.9982 16.7072C18.9982 16.4493 19.0884 16.2302 19.2689 16.0497C19.4494 15.8692 19.6686 15.779 19.9264 15.779H24.8767ZM26.733 14.5414C26.9908 14.5414 27.21 14.4512 27.3905 14.2707C27.571 14.0902 27.6612 13.8711 27.6612 13.6132C27.6612 13.3554 27.571 13.1363 27.3905 12.9558C27.21 12.7753 26.9908 12.6851 26.733 12.6851C26.4752 12.6851 26.256 12.7753 26.0756 12.9558C25.8951 13.1363 25.8048 13.3554 25.8048 13.6132H25.1861C25.1861 12.9687 25.4697 12.5046 26.0369 12.221C26.0884 12.0663 26.1142 11.9116 26.1142 11.7569C26.1142 11.2412 25.9338 10.8029 25.5728 10.442C25.2118 10.081 24.7735 9.90054 24.2579 9.90054C23.9485 9.90054 23.6584 9.97144 23.3877 10.1132C23.117 10.2551 22.8978 10.4484 22.7303 10.6934C22.5627 10.9383 22.466 11.2026 22.4402 11.4862C22.698 11.5635 22.9107 11.7118 23.0783 11.9309C23.2459 12.1501 23.3297 12.4015 23.3297 12.6851H22.7109C22.7109 12.5046 22.6529 12.3563 22.5369 12.2403C22.4209 12.1243 22.2726 12.0663 22.0921 12.0663C21.9117 12.0663 21.7634 12.1243 21.6474 12.2403C21.5314 12.3563 21.4733 12.5046 21.4733 12.6851H20.8546C20.8546 12.4015 20.9448 12.1501 21.1253 11.9309C21.3058 11.7118 21.5249 11.5635 21.7827 11.4862C21.8859 10.6611 22.2984 10.0423 23.0203 9.62982C22.5304 8.77899 21.8085 8.35358 20.8546 8.35358C20.1842 8.35358 19.6041 8.59851 19.1142 9.08838C18.6244 9.57825 18.3794 10.1584 18.3794 10.8287C18.3794 11.035 18.4052 11.2412 18.4568 11.4475C18.9466 11.4733 19.3656 11.6667 19.7137 12.0276C20.0617 12.3886 20.2358 12.814 20.2358 13.3039H19.617C19.617 12.9687 19.4945 12.6786 19.2496 12.4337C19.0047 12.1888 18.7146 12.0663 18.3794 12.0663C18.3794 12.0663 18.3794 12.0727 18.3794 12.0856C18.3794 12.0985 18.3794 12.105 18.3794 12.105C18.3794 12.3112 18.3536 12.5175 18.3021 12.7237L18.1087 13.7679C18.2892 14 18.3794 14.2578 18.3794 14.5414H26.733ZM13.7385 14.8508C13.7385 14.8508 13.687 14.8508 13.5838 14.8508C13.4807 14.8508 13.4291 14.7477 13.4291 14.5414C13.4291 14.3352 13.5323 14.232 13.7385 14.232C13.9448 14.232 14.0479 14.3352 14.0479 14.5414C14.0479 14.7477 13.9448 14.8508 13.7385 14.8508ZM15.5949 14.8508C15.5949 14.8508 15.5433 14.8508 15.4402 14.8508C15.3371 14.8508 15.2855 14.7477 15.2855 14.5414C15.2855 14.3352 15.3886 14.232 15.5949 14.232C15.8012 14.232 15.9043 14.3352 15.9043 14.5414C15.9043 14.7477 15.8012 14.8508 15.5949 14.8508ZM15.8269 15.663C15.5949 16.1528 15.2082 16.3978 14.6667 16.3978C14.1253 16.3978 13.7385 16.1528 13.5065 15.663L13.4678 15.6243L14.0093 15.3149L14.0479 15.3923C14.1768 15.6501 14.3831 15.779 14.6667 15.779C14.9503 15.779 15.1566 15.6501 15.2855 15.3923L15.3242 15.3149L15.8656 15.6243L15.8269 15.663ZM21.1253 23.2431C21.1253 23.2431 21.0802 23.198 20.9899 23.1077C20.8997 23.0175 20.8546 22.8434 20.8546 22.5856C20.8546 22.3278 20.9448 22.1086 21.1253 21.9282C21.3058 21.7477 21.5249 21.6574 21.7827 21.6574C22.0406 21.6574 22.2597 21.7477 22.4402 21.9282C22.6207 22.1086 22.7109 22.3278 22.7109 22.5856C22.7109 22.8434 22.6207 23.0626 22.4402 23.2431C22.2597 23.4236 22.0406 23.5138 21.7827 23.5138C21.5249 23.5138 21.3058 23.4236 21.1253 23.2431ZM21.7827 22.895C21.7827 22.895 21.8343 22.895 21.9374 22.895C22.0406 22.895 22.0921 22.7919 22.0921 22.5856C22.0921 22.3794 21.989 22.2762 21.7827 22.2762C21.5765 22.2762 21.4733 22.3794 21.4733 22.5856C21.4733 22.7919 21.5765 22.895 21.7827 22.895ZM20.2551 24.1132C20.2551 24.1132 20.1488 24.0069 19.9361 23.7942C19.7233 23.5815 19.617 23.1786 19.617 22.5856C19.617 21.9926 19.8297 21.4834 20.2551 21.058C20.6805 20.6326 21.1897 20.4199 21.7827 20.4199C22.3757 20.4199 22.8849 20.6326 23.3104 21.058C23.7358 21.4834 23.9485 21.9926 23.9485 22.5856C23.9485 23.1786 23.7358 23.6878 23.3104 24.1132C22.8849 24.5387 22.3757 24.7514 21.7827 24.7514C21.1897 24.7514 20.6805 24.5387 20.2551 24.1132ZM22.8849 23.6878C22.8849 23.6878 22.9591 23.6137 23.1073 23.4655C23.2556 23.3172 23.3297 23.0239 23.3297 22.5856C23.3297 22.1473 23.1814 21.7799 22.8849 21.4834C22.5884 21.1869 22.221 21.0387 21.7827 21.0387C21.3444 21.0387 20.977 21.1869 20.6805 21.4834C20.384 21.7799 20.2358 22.1473 20.2358 22.5856C20.2358 23.0239 20.384 23.3913 20.6805 23.6878C20.977 23.9843 21.3444 24.1326 21.7827 24.1326C22.221 24.1326 22.5884 23.9843 22.8849 23.6878Z" fill="white"/>
</svg>
