<svg width="17" height="17" viewBox="0 0 17 17" fill="none" xmlns="http://www.w3.org/2000/svg">
<g clip-path="url(#clip0_1_6508)">
<path d="M8.50063 15.5834C12.4126 15.5834 15.584 12.4121 15.584 8.50008C15.584 4.58806 12.4126 1.41675 8.50063 1.41675C4.58861 1.41675 1.4173 4.58806 1.4173 8.50008C1.4173 12.4121 4.58861 15.5834 8.50063 15.5834Z" stroke="#E30613" stroke-width="1.41667" stroke-linecap="round" stroke-linejoin="round"/>
<path d="M6.43927 6.37492C6.6058 5.90151 6.9345 5.50232 7.36715 5.24805C7.79981 4.99378 8.30849 4.90083 8.8031 4.98567C9.29772 5.07051 9.74635 5.32766 10.0695 5.71158C10.3927 6.0955 10.5696 6.58141 10.5689 7.08325C10.5689 8.49992 8.44385 9.20825 8.44385 9.20825" stroke="#E30613" stroke-width="1.41667" stroke-linecap="round" stroke-linejoin="round"/>
<path d="M8.50067 12.0417H8.50734" stroke="#E30613" stroke-width="1.41667" stroke-linecap="round" stroke-linejoin="round"/>
</g>
<defs>
<clipPath id="clip0_1_6508">
<rect width="17" height="17" fill="white"/>
</clipPath>
</defs>
</svg>
