<svg width="78" height="78" viewBox="0 0 78 78" fill="none" xmlns="http://www.w3.org/2000/svg">
<path d="M42.9447 32.7518C42.5553 32.7518 42.2145 32.8236 41.9224 32.9672C41.6303 33.1109 41.4113 33.3024 41.2652 33.5418C41.1192 33.7812 41.0462 34.0446 41.0462 34.3319C41.0462 34.8107 41.2166 35.1937 41.5573 35.481C41.8981 35.7683 42.3605 35.912 42.9447 35.912C44.3078 35.912 45.4517 36.3429 46.3767 37.2048C47.3016 38.0667 47.764 39.1201 47.764 40.365C47.764 41.3227 47.4476 42.2085 46.8148 43.0225C46.1819 43.8365 45.3787 44.3871 44.4051 44.6744V44.8181C44.4051 45.7757 43.9183 46.2545 42.9447 46.2545C41.9711 46.2545 41.4843 45.7757 41.4843 44.8181V44.6744C39.245 44.0041 38.1254 42.5676 38.1254 40.365C38.1254 39.4074 38.6122 38.9285 39.5858 38.9285C40.5594 38.9285 41.0462 39.4074 41.0462 40.365C41.0462 40.8438 41.2166 41.2269 41.5573 41.5142C41.8981 41.8015 42.3362 41.9451 42.8717 41.9451C43.4072 41.9451 43.8696 41.8015 44.2591 41.5142C44.6485 41.2269 44.8432 40.8438 44.8432 40.365C44.8432 39.8862 44.6485 39.5031 44.2591 39.2158C43.8696 38.9285 43.4315 38.7849 42.9447 38.7849C41.5817 38.7849 40.4377 38.354 39.5128 37.4921C38.5878 36.6302 38.1254 35.5768 38.1254 34.3319C38.1254 33.6615 38.2714 33.039 38.5635 32.4645C38.8556 31.8899 39.245 31.3871 39.7318 30.9562C40.2186 30.5252 40.8028 30.214 41.4843 30.0225V29.8788C41.4843 28.9212 41.9711 28.4424 42.9447 28.4424C43.9183 28.4424 44.4051 28.9212 44.4051 29.8788V30.0225C45.3787 30.3098 46.1819 30.8604 46.8148 31.6744C47.4476 32.4884 47.764 33.3742 47.764 34.3319C47.764 35.2895 47.2772 35.7683 46.3036 35.7683C45.33 35.7683 44.8432 35.2895 44.8432 34.3319C44.8432 33.853 44.6485 33.47 44.2591 33.1827C43.8696 32.8954 43.4315 32.7518 42.9447 32.7518ZM72.0068 45.6799C74.1487 46.1588 75.5361 47.4516 76.1689 49.5584C76.8018 51.6652 76.2906 53.4847 74.6355 55.0169L60.3235 68.6634C55.845 72.9727 50.4901 75.1274 44.2591 75.1274H5.85041C4.68209 75.1274 3.68414 74.7204 2.85658 73.9064C2.02902 73.0925 1.61523 72.1109 1.61523 70.9617V54.0114C1.61523 52.8622 2.02902 51.8807 2.85658 51.0667C3.68414 50.2527 4.68209 49.8457 5.85041 49.8457H13.1524C14.5155 49.8457 15.6351 50.3724 16.5114 51.4258L18.848 50.5639C17.2903 46.3503 16.9495 42.0409 17.8257 37.6357C18.7993 32.4645 21.136 28.0593 24.8357 24.4203L34.7664 14.6523L31.6996 6.17717C31.3101 4.83646 31.6996 3.807 32.8679 3.08877C34.0362 2.37054 35.1072 2.49024 36.0808 3.44788C36.3729 3.73518 36.738 3.87882 37.1761 3.87882C37.6142 3.87882 37.9793 3.73518 38.2714 3.44788C39.5371 2.20295 41.0705 1.58048 42.8717 1.58048C44.6729 1.58048 46.255 2.20295 47.618 3.44788C48.2995 4.214 49.0297 4.214 49.8086 3.44788C50.7822 2.49024 51.8532 2.37054 53.0215 3.08877C54.1898 3.807 54.5306 4.83646 54.0438 6.17717L51.123 14.6523L59.4473 22.8401C60.1288 23.5105 60.1288 24.1809 59.4473 24.8512C58.7658 25.5215 58.0842 25.5215 57.4027 24.8512L48.6403 16.3761H37.2491L26.8802 26.4313C23.7647 29.4958 21.7445 33.1109 20.8196 37.2766C19.8946 41.4424 20.1624 45.5842 21.6228 49.702L22.6451 49.2711C27.5131 47.4516 32.3324 47.691 37.1031 49.9893L47.472 54.7297C48.9324 55.4958 49.906 56.6449 50.3928 58.1772C50.6849 59.1348 50.6849 60.0925 50.3928 61.0501C51.269 60.667 52.0479 60.1403 52.7294 59.47L64.4127 49.2711C66.0678 44.4829 66.0678 39.6947 64.4127 34.9064C64.0232 34.0446 64.291 33.446 65.2159 33.1109C66.1408 32.7757 66.798 33.0869 67.1874 34.0446C68.5505 37.9709 68.8912 42.0409 68.2097 46.2545C69.378 45.5842 70.6437 45.3926 72.0068 45.6799ZM37.1031 6.75175C36.3242 6.75175 35.5453 6.56023 34.7664 6.17717L37.3952 13.5031H48.4942L50.9769 6.17717C50.2954 6.56023 49.5165 6.75175 48.6403 6.75175C47.3746 6.75175 46.3036 6.32082 45.4274 5.45894C44.7459 4.78858 43.894 4.45341 42.8717 4.45341C41.8494 4.45341 40.9975 4.78858 40.316 5.45894C39.4397 6.32082 38.3688 6.75175 37.1031 6.75175ZM4.53605 70.9617C4.53605 71.8236 4.97417 72.2545 5.85041 72.2545H13.1524C14.0287 72.2545 14.4668 71.8236 14.4668 70.9617V54.0114C14.4668 53.1495 14.0287 52.7186 13.1524 52.7186H5.85041C4.97417 52.7186 4.53605 53.1495 4.53605 54.0114V70.9617ZM72.5909 53.0059C73.3698 52.2398 73.6132 51.354 73.3211 50.3484C73.0291 49.3429 72.3962 48.7444 71.4226 48.5529C70.5464 48.3613 69.7675 48.5529 69.086 49.1274L54.774 61.6247C52.0479 64.0188 48.835 65.2158 45.1353 65.2158C45.038 65.2158 44.9893 65.2158 44.9893 65.2158C44.4051 65.2158 43.8209 65.168 43.2368 65.0722L29.509 60.7628C28.6327 60.4755 28.3407 59.877 28.6327 58.9672C28.9248 58.0575 29.5577 57.7462 30.5313 58.0335L44.113 62.3429C45.4761 62.726 46.547 62.3429 47.3259 61.1937C47.7154 60.5234 47.7884 59.8052 47.545 59.039C47.3016 58.2729 46.8391 57.6983 46.1576 57.3153L35.7887 52.575C31.7969 50.6597 27.7565 50.4681 23.6674 52.0004L17.3876 54.1551V70.9617C17.3876 71.4405 17.3389 71.8715 17.2416 72.2545H44.2591C49.7113 72.2545 54.4332 70.3871 58.425 66.6523L72.5909 53.0059ZM63.8285 29.7352C63.8285 29.7352 63.7555 29.807 63.6094 29.9506C63.4634 30.0943 63.1957 30.1661 62.8062 30.1661C62.4168 30.1661 62.076 30.0225 61.7839 29.7352C61.4919 29.4479 61.3458 29.1127 61.3458 28.7297C61.3458 28.3466 61.4919 28.0114 61.7839 27.7241C62.076 27.4368 62.4168 27.2932 62.8062 27.2932C63.1957 27.2932 63.5364 27.4368 63.8285 27.7241C64.1206 28.0114 64.2666 28.3466 64.2666 28.7297C64.2666 29.1127 64.1206 29.4479 63.8285 29.7352Z" fill="#DA3731"/>
</svg>
