<svg width="79" height="78" viewBox="0 0 79 78" fill="none" xmlns="http://www.w3.org/2000/svg">
<path d="M26.7134 58.4645C26.7134 58.4645 26.7864 58.3926 26.9325 58.249C27.0785 58.1053 27.3463 58.0335 27.7357 58.0335C28.1252 58.0335 28.4659 58.1772 28.758 58.4645C29.0501 58.7518 29.1961 59.0869 29.1961 59.47C29.1961 59.853 29.0501 60.1882 28.758 60.4755C28.4659 60.7628 28.1252 60.9064 27.7357 60.9064C27.3463 60.9064 27.0055 60.7628 26.7134 60.4755C26.4213 60.1882 26.2753 59.853 26.2753 59.47C26.2753 59.0869 26.4213 58.7518 26.7134 58.4645ZM39.565 47.26C40.5386 47.26 41.0254 47.7389 41.0254 48.6965C41.0254 49.6541 40.5386 50.133 39.565 50.133H23.3545C22.3809 50.133 21.8941 49.6541 21.8941 48.6965C21.8941 47.7389 22.3809 47.26 23.3545 47.26H39.565ZM21.602 34.0446C20.6284 34.0446 20.1416 33.5658 20.1416 32.6081C20.1416 31.6505 20.6284 31.1716 21.602 31.1716H41.3175C42.2911 31.1716 42.7779 31.6505 42.7779 32.6081C42.7779 33.5658 42.2911 34.0446 41.3175 34.0446H21.602ZM29.6342 22.4092C29.6342 22.4092 29.7316 22.481 29.9263 22.6247C30.121 22.7683 30.4861 22.8401 31.0216 22.8401C31.5571 22.8401 32.0196 22.6965 32.409 22.4092C32.7985 22.1219 32.9932 21.7628 32.9932 21.3319C32.9932 20.9009 32.7985 20.5179 32.409 20.1827C32.0196 19.8475 31.5328 19.6799 30.9486 19.6799C29.6829 19.6799 28.5633 19.249 27.5897 18.3871C26.6161 17.5252 26.1293 16.4718 26.1293 15.2269C26.1293 14.2692 26.4457 13.3834 27.0785 12.5694C27.7114 11.7554 28.5146 11.2048 29.4882 10.9175V10.7738C29.4882 9.81621 29.975 9.33739 30.9486 9.33739C31.9222 9.33739 32.409 9.81621 32.409 10.7738V10.9175C34.7457 11.5878 35.914 13.0243 35.914 15.2269C35.914 16.1845 35.4272 16.6634 34.4536 16.6634C33.48 16.6634 32.9932 16.1845 32.9932 15.2269C32.9932 14.7481 32.7985 14.365 32.409 14.0777C32.0196 13.7904 31.5571 13.6468 31.0216 13.6468C30.4861 13.6468 30.0237 13.7904 29.6342 14.0777C29.2448 14.365 29.0501 14.7481 29.0501 15.2269C29.0501 15.5142 29.1474 15.7775 29.3422 16.0169C29.5369 16.2564 29.7803 16.4479 30.0724 16.5915C30.3644 16.7352 30.6565 16.807 30.9486 16.807C32.3116 16.807 33.48 17.2379 34.4536 18.0998C35.4272 18.9617 35.914 20.0151 35.914 21.26C35.914 22.2177 35.5976 23.1035 34.9647 23.9175C34.3319 24.7315 33.48 25.2821 32.409 25.5694V25.7131C32.409 26.6707 31.9222 27.1495 30.9486 27.1495C29.975 27.1495 29.4882 26.6707 29.4882 25.7131V25.5694C27.2489 24.8991 26.1293 23.4626 26.1293 21.26C26.1293 20.3024 26.6161 19.8236 27.5897 19.8236C28.5633 19.8236 29.0501 20.3024 29.0501 21.26C29.0501 21.7389 29.2448 22.1219 29.6342 22.4092ZM74.9068 45.9672C75.6857 45.3926 76.3672 45.4884 76.9514 46.2545C77.5355 47.0206 77.4382 47.691 76.6593 48.2656L74.3226 49.8457C70.3309 52.7186 65.901 54.1551 61.0329 54.1551H60.0107V73.691C60.0107 74.6486 59.5239 75.1274 58.5503 75.1274H3.93111C2.9575 75.1274 2.4707 74.6486 2.4707 73.691V3.01694C2.4707 2.0593 2.9575 1.58048 3.93111 1.58048H58.5503C59.5239 1.58048 60.0107 2.0593 60.0107 3.01694V25.8567C60.6922 25.761 61.4224 25.7131 62.2013 25.7131H63.5156L68.9191 16.5197C69.4059 15.6578 70.0875 15.4663 70.9637 15.9451L76.5132 19.1053C76.9027 19.2969 77.1461 19.5842 77.2434 19.9672C77.3408 20.3503 77.2921 20.7333 77.0974 21.1164L74.3226 25.7131H75.783C76.7566 25.7131 77.2434 26.1919 77.2434 27.1495C77.2434 28.1072 76.7566 28.586 75.783 28.586H72.5702L66.2904 39.5031C66.193 40.4608 65.9496 41.4184 65.5602 42.3761C65.1708 43.3337 64.6109 44.1477 63.8807 44.8181C63.1505 45.4884 62.323 46.0151 61.3981 46.3982C60.4731 46.7812 59.4752 46.9727 58.4042 46.9727H55.9215C55.3374 46.9727 54.8262 47.1882 54.3881 47.6192C53.95 48.0501 53.7309 48.5529 53.7309 49.1274C53.7309 49.702 53.95 50.2048 54.3881 50.6357C54.8262 51.0667 55.3374 51.2821 55.9215 51.2821H61.0329C65.3168 51.2821 69.1625 50.0372 72.5702 47.5473L74.9068 45.9672ZM54.4611 53.8678C53.1954 53.5805 52.2218 52.9101 51.5403 51.8567L51.3943 52.144L50.9562 56.4534L54.4611 53.8678ZM70.8177 19.1053L56.2136 44.0998H58.4042C59.0857 44.0998 59.7673 43.9562 60.4488 43.6689L73.7385 20.8291L70.8177 19.1053ZM54.169 41.6578L61.9092 28.586C58.4042 28.6818 55.4347 29.9267 53.0007 32.3208C51.2482 33.9488 50.0799 35.9599 49.4958 38.354L47.4512 46.8291C47.2565 47.4994 47.4512 48.074 48.0353 48.5529C48.4248 48.8401 48.8629 48.9359 49.3497 48.8401C49.8365 48.7444 50.1773 48.4571 50.372 47.9783L54.169 41.6578ZM5.39151 72.2545H57.0899V55.1606L56.7978 55.5915C56.7004 55.7831 56.5544 55.9267 56.3597 56.0225L49.9339 60.6192C49.7392 60.8107 49.4471 60.9064 49.0576 60.9064H34.3075C33.3339 60.9064 32.8471 60.4276 32.8471 59.47C32.8471 58.5123 33.3339 58.0335 34.3075 58.0335H47.7433L48.4735 51.7131C47.6946 51.6173 46.9644 51.33 46.2829 50.8512C44.6277 49.6063 44.0436 48.0262 44.5304 46.1109L45.5527 42.0888H15.4683C14.4947 42.0888 14.0079 41.6099 14.0079 40.6523C14.0079 39.6947 14.4947 39.2158 15.4683 39.2158H46.2829L46.721 37.6357C47.4025 34.7628 48.8142 32.3208 50.9562 30.3098C52.7086 28.586 54.7532 27.3411 57.0899 26.575V4.45341H5.39151V72.2545Z" fill="#DA3731"/>
</svg>
