<svg width="78" height="78" viewBox="0 0 78 78" fill="none" xmlns="http://www.w3.org/2000/svg">
<path d="M74.6355 22.5523C75.5117 23.2227 76.0716 24.0846 76.315 25.138C76.5584 26.1914 76.3636 27.173 75.7308 28.0827C75.098 28.9925 74.2461 29.5431 73.1751 29.7346C72.1041 29.9262 71.1305 29.6868 70.2543 29.0164L66.0191 26.2871V56.4529C67.0901 56.9317 67.869 57.7457 68.3558 58.8949C68.8426 60.044 68.7939 61.2411 68.2097 62.486C67.7229 63.6352 66.8467 64.4492 65.581 64.928L45.7195 72.3976C40.1699 74.5044 34.6691 74.4566 29.2169 72.254L19.7243 68.2319V68.8065C19.7243 69.6683 19.2861 70.0993 18.4099 70.0993H8.04102C7.16477 70.0993 6.72665 69.6683 6.72665 68.8065H1.61523V66.2208H6.72665V53.58H1.61523V50.9943H6.72665C6.72665 50.1324 7.16477 49.7015 8.04102 49.7015H18.4099C19.2861 49.7015 19.7243 50.1324 19.7243 50.9943H22.2069V26.2871L18.1178 29.0164C18.1178 29.1122 18.0691 29.1601 17.9718 29.1601C17.0955 29.7346 16.1219 29.9022 15.051 29.6628C13.98 29.4234 13.1524 28.8488 12.5683 27.9391C11.9841 27.0293 11.7894 26.0477 11.9841 24.9943C12.1788 23.9409 12.763 23.1269 13.7366 22.5523L43.3828 3.01642C43.8696 2.72913 44.3564 2.72913 44.8432 3.01642L56.9646 11.0606V7.9004C56.9646 7.03851 57.4027 6.60757 58.279 6.60757H64.7047C65.581 6.60757 66.0191 7.03851 66.0191 7.9004V16.8065H65.727L74.6355 22.5523ZM17.0955 67.5137V52.2871H9.35538V67.5137H17.0955ZM59.5933 9.19321V12.7844L63.5364 15.2264V9.19321H59.5933ZM64.7047 62.6297C65.1915 62.3424 65.5566 61.9354 65.8 61.4087C66.0434 60.882 66.0678 60.3313 65.8731 59.7567C65.6783 59.1822 65.2889 58.7991 64.7047 58.6076C64.2179 58.3203 63.6825 58.3203 63.0983 58.6076L52.2913 63.0606C51.4151 63.4437 50.4415 63.6352 49.3705 63.6352H49.2244H33.8902V61.1932H49.2244C49.3218 61.1932 49.4192 61.1932 49.5165 61.1932C49.6139 61.1932 49.6626 61.1453 49.6626 61.0496C50.7335 60.858 51.269 60.2835 51.269 59.3258C51.269 58.7512 51.0743 58.2724 50.6849 57.8893C50.2954 57.5063 49.8086 57.3148 49.2244 57.3148H39.2937C37.8333 57.3148 36.4702 57.0275 35.2046 56.4529C31.3101 54.5376 27.221 53.58 22.9372 53.58H19.7243V65.5026L30.2392 69.812C35.1072 71.823 39.9265 71.9188 44.6972 70.0993L64.7047 62.6297ZM49.2244 54.8728C50.4901 54.8728 51.5611 55.3037 52.4373 56.1656C53.3136 57.0275 53.7517 58.0809 53.7517 59.3258C53.7517 59.4216 53.7517 59.5652 53.7517 59.7567L62.076 56.3092C62.5628 56.1177 63.0496 55.9741 63.5364 55.8783V24.707L44.113 11.9225L24.8357 24.707V51.138C28.9248 51.3295 32.7705 52.335 36.3729 54.1545C37.3465 54.6334 38.3201 54.8728 39.2937 54.8728H49.2244ZM71.5686 27.0054C72.0555 27.2927 72.5423 27.3166 73.0291 27.0772C73.5159 26.8378 73.7593 26.4308 73.7593 25.8562C73.7593 25.3774 73.5645 24.9943 73.1751 24.707L44.113 5.60205L15.051 24.707C14.6615 24.9943 14.4668 25.3774 14.4668 25.8562C14.4668 26.1435 14.5642 26.3829 14.7589 26.5744C15.2457 27.3405 15.8785 27.4842 16.6574 27.0054L43.3828 9.48051C43.8696 9.09745 44.3564 9.09745 44.8432 9.48051L71.5686 27.0054ZM11.9841 64.928V62.486H14.4668V64.928H11.9841ZM47.9101 37.4916C48.2022 38.4492 48.1048 39.359 47.618 40.2208C47.1312 41.0827 46.401 41.6573 45.4274 41.9446V43.3811H42.7987V41.9446C41.1435 41.4658 40.316 40.3166 40.316 38.4971V38.3534H42.7987V38.4971C42.7987 39.2632 43.1881 39.6463 43.967 39.6463H44.2591C44.7459 39.6463 45.0866 39.4547 45.2814 39.0717C45.6708 38.4013 45.5248 37.9225 44.8432 37.6352L42.3605 36.3424C41.3869 35.8636 40.7541 35.1453 40.462 34.1877C40.1699 33.23 40.243 32.3203 40.6811 31.4584C41.1192 30.5965 41.8251 30.0219 42.7987 29.7346V28.1545H45.4274V29.7346C47.1799 30.2135 48.0561 31.3148 48.0561 33.0385V33.3258H45.4274V33.0385C45.4274 32.3682 45.038 32.033 44.2591 32.033H43.967C43.4802 32.033 43.1394 32.2245 42.9447 32.6076C42.6526 33.2779 42.8473 33.7567 43.5289 34.044L46.0116 35.3369C46.8878 35.8157 47.5206 36.5339 47.9101 37.4916ZM35.0585 26.8617C35.0585 26.8617 35.6914 26.2393 36.957 24.9943C38.2227 23.7494 40.6324 23.1269 44.1861 23.1269C47.7397 23.1269 50.7579 24.3718 53.2406 26.8617C55.7233 29.3516 56.9646 32.3442 56.9646 35.8396C56.9646 39.335 55.7233 42.3277 53.2406 44.8175C50.7579 47.3074 47.7397 48.5523 44.1861 48.5523C40.6324 48.5523 37.5899 47.3074 35.0585 44.8175C32.5271 42.3277 31.2615 39.335 31.2615 35.8396C31.2615 32.3442 32.5271 29.3516 35.0585 26.8617ZM36.884 43.0219C36.884 43.0219 37.383 43.5127 38.3809 44.4943C39.3789 45.4759 41.2896 45.9667 44.113 45.9667C46.9365 45.9667 49.3705 44.9851 51.4151 43.0219C53.4596 41.0588 54.4819 38.6647 54.4819 35.8396C54.4819 33.0146 53.4596 30.6205 51.4151 28.6573C49.3705 26.6941 46.9365 25.7125 44.113 25.7125C42.75 25.7125 41.4356 25.9759 40.1699 26.5026C38.9043 27.0293 37.8089 27.7475 36.884 28.6573C35.9591 29.5671 35.2289 30.6444 34.6934 31.8893C34.1579 33.1343 33.8902 34.4271 33.8902 35.7678C33.8902 38.6407 34.8881 41.0588 36.884 43.0219ZM49.2244 37.0606V34.6186H51.8532V37.0606H49.2244ZM36.3729 37.0606V34.6186H39.0016V37.0606H36.3729Z" fill="#DA3731"/>
</svg>
