<svg width="17" height="17" viewBox="0 0 17 17" fill="none" xmlns="http://www.w3.org/2000/svg">
<g clip-path="url(#clip0_1_6506)">
<path d="M15.5825 11.9849V14.1099C15.5833 14.3072 15.5429 14.5024 15.4639 14.6832C15.3849 14.8639 15.269 15.0262 15.1236 15.1596C14.9782 15.2929 14.8066 15.3945 14.6197 15.4577C14.4329 15.5209 14.2348 15.5443 14.0384 15.5266C11.8587 15.2897 9.76499 14.5449 7.92545 13.352C6.21399 12.2645 4.76298 10.8134 3.67545 9.10199C2.47835 7.25409 1.73337 5.15019 1.50087 2.96074C1.48317 2.76486 1.50644 2.56744 1.56922 2.38106C1.632 2.19467 1.7329 2.02339 1.86549 1.87814C1.99809 1.73288 2.15948 1.61683 2.33939 1.53736C2.51929 1.45789 2.71377 1.41676 2.91045 1.41657H5.03545C5.37921 1.41319 5.71247 1.53492 5.97311 1.75907C6.23376 1.98323 6.404 2.29451 6.45212 2.63491C6.54181 3.31495 6.70814 3.98267 6.94795 4.62532C7.04325 4.87885 7.06388 5.15439 7.00738 5.41928C6.95089 5.68417 6.81964 5.92732 6.6292 6.11991L5.72962 7.01949C6.73797 8.79283 8.20627 10.2611 9.97962 11.2695L10.8792 10.3699C11.0718 10.1795 11.3149 10.0482 11.5798 9.99172C11.8447 9.93523 12.1203 9.95585 12.3738 10.0512C13.0164 10.291 13.6842 10.4573 14.3642 10.547C14.7083 10.5955 15.0225 10.7688 15.2472 11.034C15.4718 11.2991 15.5912 11.6375 15.5825 11.9849Z" stroke="#E30613" stroke-width="1.41667" stroke-linecap="round" stroke-linejoin="round"/>
</g>
<defs>
<clipPath id="clip0_1_6506">
<rect width="17" height="17" fill="white"/>
</clipPath>
</defs>
</svg>
