<svg width="34" height="34" viewBox="0 0 34 34" fill="none" xmlns="http://www.w3.org/2000/svg">
<path d="M31.1631 23.9698V28.2198C31.1647 28.6144 31.0839 29.0049 30.9258 29.3664C30.7678 29.7279 30.536 30.0524 30.2452 30.3191C29.9545 30.5858 29.6113 30.7889 29.2375 30.9153C28.8638 31.0417 28.4677 31.0887 28.0748 31.0531C23.7155 30.5795 19.528 29.0899 15.8489 26.704C12.426 24.5289 9.52401 21.6269 7.34895 18.204C4.95475 14.5082 3.46479 10.3004 2.99978 5.92148C2.96438 5.52972 3.01094 5.13489 3.13649 4.76211C3.26204 4.38934 3.46384 4.04679 3.72903 3.75628C3.99422 3.46576 4.317 3.23365 4.67682 3.07472C5.03663 2.91579 5.4256 2.83352 5.81895 2.83315H10.0689C10.7565 2.82638 11.423 3.06984 11.9443 3.51815C12.4656 3.96646 12.8061 4.58903 12.9023 5.26981C13.0817 6.62991 13.4143 7.96534 13.8939 9.25065C14.0845 9.7577 14.1258 10.3088 14.0128 10.8386C13.8998 11.3683 13.6373 11.8546 13.2564 12.2398L11.4573 14.039C13.474 17.5857 16.4106 20.5223 19.9573 22.539L21.7564 20.7398C22.1416 20.3589 22.6279 20.0964 23.1577 19.9834C23.6875 19.8705 24.2386 19.9117 24.7456 20.1023C26.0309 20.5819 27.3664 20.9146 28.7264 21.094C29.4146 21.1911 30.0431 21.5377 30.4924 22.0679C30.9416 22.5982 31.1804 23.275 31.1631 23.9698Z" stroke="white" stroke-width="2.83333" stroke-linecap="round" stroke-linejoin="round"/>
</svg>
