<svg width="82" height="82" viewBox="0 0 82 82" fill="none" xmlns="http://www.w3.org/2000/svg">
<path d="M75.1581 57.81V68.06C75.162 69.0116 74.967 69.9534 74.5858 70.8253C74.2046 71.6971 73.6455 72.4798 72.9444 73.1231C72.2432 73.7663 71.4154 74.2561 70.514 74.5609C69.6126 74.8658 68.6575 74.979 67.7098 74.8933C57.1961 73.751 47.097 70.1583 38.2239 64.4042C29.9687 59.1584 22.9697 52.1594 17.7239 43.9042C11.9497 34.9908 8.35626 24.8426 7.23476 14.2817C7.14938 13.3369 7.26167 12.3846 7.56447 11.4856C7.86728 10.5865 8.35396 9.76036 8.99355 9.05971C9.63313 8.35906 10.4116 7.79926 11.2794 7.41596C12.1472 7.03265 13.0853 6.83423 14.0339 6.83334H24.2839C25.9421 6.81702 27.5496 7.40419 28.8068 8.48541C30.064 9.56663 30.8852 11.0681 31.1173 12.71C31.5499 15.9902 32.3522 19.211 33.5089 22.3108C33.9686 23.5337 34.0681 24.8628 33.7956 26.1405C33.5231 27.4182 32.89 28.5911 31.9714 29.52L27.6323 33.8592C32.4961 42.413 39.5785 49.4954 48.1323 54.3592L52.4714 50.02C53.4004 49.1014 54.5732 48.4683 55.8509 48.1958C57.1286 47.9233 58.4577 48.0228 59.6806 48.4825C62.7804 49.6392 66.0012 50.4416 69.2814 50.8742C70.9411 51.1083 72.4569 51.9443 73.5404 53.2231C74.624 54.5019 75.1997 56.1344 75.1581 57.81Z" stroke="#EAEAEC" stroke-width="6.83333" stroke-linecap="round" stroke-linejoin="round"/>
</svg>
