<svg width="310" height="115" viewBox="0 0 310 115" fill="none" xmlns="http://www.w3.org/2000/svg">
<g filter="url(#filter0_d_1_9258)">
<rect x="7" y="7.80078" width="295.615" height="99.6847" fill="white"/>
</g>
<path d="M121 48.54V51.144H115.82V68H112.628V51.144H107.42V48.54H121ZM125.857 50.528C125.278 50.528 124.793 50.332 124.401 49.94C124.009 49.548 123.813 49.0627 123.813 48.484C123.813 47.9053 124.009 47.42 124.401 47.028C124.793 46.636 125.278 46.44 125.857 46.44C126.417 46.44 126.893 46.636 127.285 47.028C127.677 47.42 127.873 47.9053 127.873 48.484C127.873 49.0627 127.677 49.548 127.285 49.94C126.893 50.332 126.417 50.528 125.857 50.528ZM127.425 52.572V68H124.233V52.572H127.425ZM150.292 52.32C151.505 52.32 152.588 52.572 153.54 53.076C154.51 53.58 155.266 54.3267 155.808 55.316C156.368 56.3053 156.648 57.5 156.648 58.9V68H153.484V59.376C153.484 57.9947 153.138 56.94 152.448 56.212C151.757 55.4653 150.814 55.092 149.62 55.092C148.425 55.092 147.473 55.4653 146.764 56.212C146.073 56.94 145.728 57.9947 145.728 59.376V68H142.564V59.376C142.564 57.9947 142.218 56.94 141.528 56.212C140.837 55.4653 139.894 55.092 138.7 55.092C137.505 55.092 136.553 55.4653 135.844 56.212C135.153 56.94 134.808 57.9947 134.808 59.376V68H131.616V52.572H134.808V54.336C135.33 53.7013 135.993 53.2067 136.796 52.852C137.598 52.4973 138.457 52.32 139.372 52.32C140.604 52.32 141.705 52.5813 142.676 53.104C143.646 53.6267 144.393 54.3827 144.916 55.372C145.382 54.4387 146.11 53.7013 147.1 53.16C148.089 52.6 149.153 52.32 150.292 52.32ZM174.849 59.908C174.849 60.4867 174.812 61.0093 174.737 61.476H162.949C163.043 62.708 163.5 63.6973 164.321 64.444C165.143 65.1907 166.151 65.564 167.345 65.564C169.063 65.564 170.276 64.8453 170.985 63.408H174.429C173.963 64.8267 173.113 65.9933 171.881 66.908C170.668 67.804 169.156 68.252 167.345 68.252C165.871 68.252 164.545 67.9253 163.369 67.272C162.212 66.6 161.297 65.6667 160.625 64.472C159.972 63.2587 159.645 61.8587 159.645 60.272C159.645 58.6853 159.963 57.2947 160.597 56.1C161.251 54.8867 162.156 53.9533 163.313 53.3C164.489 52.6467 165.833 52.32 167.345 52.32C168.801 52.32 170.099 52.6373 171.237 53.272C172.376 53.9067 173.263 54.8027 173.897 55.96C174.532 57.0987 174.849 58.4147 174.849 59.908ZM171.517 58.9C171.499 57.724 171.079 56.7813 170.257 56.072C169.436 55.3627 168.419 55.008 167.205 55.008C166.104 55.008 165.161 55.3627 164.377 56.072C163.593 56.7627 163.127 57.7053 162.977 58.9H171.517ZM191.732 55.176H188.876V68H185.656V55.176H183.836V52.572H185.656V51.48C185.656 49.7067 186.123 48.4187 187.056 47.616C188.008 46.7947 189.492 46.384 191.508 46.384V49.044C190.537 49.044 189.856 49.2307 189.464 49.604C189.072 49.9587 188.876 50.584 188.876 51.48V52.572H191.732V55.176ZM201.253 68.252C199.797 68.252 198.481 67.9253 197.305 67.272C196.129 66.6 195.205 65.6667 194.533 64.472C193.861 63.2587 193.525 61.8587 193.525 60.272C193.525 58.704 193.87 57.3133 194.561 56.1C195.252 54.8867 196.194 53.9533 197.389 53.3C198.584 52.6467 199.918 52.32 201.393 52.32C202.868 52.32 204.202 52.6467 205.397 53.3C206.592 53.9533 207.534 54.8867 208.225 56.1C208.916 57.3133 209.261 58.704 209.261 60.272C209.261 61.84 208.906 63.2307 208.197 64.444C207.488 65.6573 206.517 66.6 205.285 67.272C204.072 67.9253 202.728 68.252 201.253 68.252ZM201.253 65.48C202.074 65.48 202.84 65.284 203.549 64.892C204.277 64.5 204.865 63.912 205.313 63.128C205.761 62.344 205.985 61.392 205.985 60.272C205.985 59.152 205.77 58.2093 205.341 57.444C204.912 56.66 204.342 56.072 203.633 55.68C202.924 55.288 202.158 55.092 201.337 55.092C200.516 55.092 199.75 55.288 199.041 55.68C198.35 56.072 197.8 56.66 197.389 57.444C196.978 58.2093 196.773 59.152 196.773 60.272C196.773 61.9333 197.193 63.2213 198.033 64.136C198.892 65.032 199.965 65.48 201.253 65.48ZM215.608 54.812C216.075 54.028 216.691 53.4213 217.456 52.992C218.24 52.544 219.164 52.32 220.228 52.32V55.624H219.416C218.166 55.624 217.214 55.9413 216.56 56.576C215.926 57.2107 215.608 58.312 215.608 59.88V68H212.416V52.572H215.608V54.812ZM244.324 52.572L234.86 75.252H231.556L234.692 67.748L228.616 52.572H232.172L236.512 64.332L241.02 52.572H244.324ZM253.425 68.252C251.969 68.252 250.653 67.9253 249.477 67.272C248.301 66.6 247.377 65.6667 246.705 64.472C246.033 63.2587 245.697 61.8587 245.697 60.272C245.697 58.704 246.042 57.3133 246.733 56.1C247.423 54.8867 248.366 53.9533 249.561 53.3C250.755 52.6467 252.09 52.32 253.565 52.32C255.039 52.32 256.374 52.6467 257.569 53.3C258.763 53.9533 259.706 54.8867 260.397 56.1C261.087 57.3133 261.433 58.704 261.433 60.272C261.433 61.84 261.078 63.2307 260.369 64.444C259.659 65.6573 258.689 66.6 257.457 67.272C256.243 67.9253 254.899 68.252 253.425 68.252ZM253.425 65.48C254.246 65.48 255.011 65.284 255.721 64.892C256.449 64.5 257.037 63.912 257.485 63.128C257.933 62.344 258.157 61.392 258.157 60.272C258.157 59.152 257.942 58.2093 257.513 57.444C257.083 56.66 256.514 56.072 255.805 55.68C255.095 55.288 254.33 55.092 253.509 55.092C252.687 55.092 251.922 55.288 251.213 55.68C250.522 56.072 249.971 56.66 249.561 57.444C249.15 58.2093 248.945 59.152 248.945 60.272C248.945 61.9333 249.365 63.2213 250.205 64.136C251.063 65.032 252.137 65.48 253.425 65.48ZM278.56 52.572V68H275.368V66.18C274.864 66.8147 274.202 67.3187 273.38 67.692C272.578 68.0467 271.719 68.224 270.804 68.224C269.591 68.224 268.499 67.972 267.528 67.468C266.576 66.964 265.82 66.2173 265.26 65.228C264.719 64.2387 264.448 63.044 264.448 61.644V52.572H267.612V61.168C267.612 62.5493 267.958 63.6133 268.648 64.36C269.339 65.088 270.282 65.452 271.476 65.452C272.671 65.452 273.614 65.088 274.304 64.36C275.014 63.6133 275.368 62.5493 275.368 61.168V52.572H278.56Z" fill="#283E87"/>
<rect x="7" y="8" width="79" height="100" fill="#283E87"/>
<g clip-path="url(#clip0_1_9258)">
<path d="M49.897 71.9503C49.447 72.2893 48.9685 72.6463 48.562 73.0003H51.997C52.3948 73.0003 52.7764 73.1584 53.0577 73.4397C53.339 73.721 53.497 74.1025 53.497 74.5003C53.497 74.8981 53.339 75.2797 53.0577 75.561C52.7764 75.8423 52.3948 76.0003 51.997 76.0003H45.997C45.5992 76.0003 45.2177 75.8423 44.9364 75.561C44.6551 75.2797 44.497 74.8981 44.497 74.5003C44.497 72.2503 46.4095 70.8163 48.097 69.5503C49.222 68.7073 50.497 67.7503 50.497 67.0003C50.497 66.6025 50.339 66.221 50.0577 65.9397C49.7764 65.6584 49.3948 65.5003 48.997 65.5003C48.5992 65.5003 48.2177 65.6584 47.9364 65.9397C47.6551 66.221 47.497 66.6025 47.497 67.0003C47.497 67.3981 47.339 67.7797 47.0577 68.061C46.7764 68.3423 46.3948 68.5003 45.997 68.5003C45.5992 68.5003 45.2177 68.3423 44.9364 68.061C44.6551 67.7797 44.497 67.3981 44.497 67.0003C44.497 65.8068 44.9711 64.6623 45.815 63.8183C46.6589 62.9744 47.8035 62.5003 48.997 62.5003C50.1905 62.5003 51.3351 62.9744 52.179 63.8183C53.0229 64.6623 53.497 65.8068 53.497 67.0003C53.497 69.2503 51.5845 70.6843 49.897 71.9503ZM62.497 62.5003C62.0992 62.5003 61.7177 62.6584 61.4364 62.9397C61.1551 63.221 60.997 63.6025 60.997 64.0003V68.5003H59.497C59.0992 68.5003 58.7177 68.3423 58.4364 68.061C58.1551 67.7797 57.997 67.3981 57.997 67.0003V64.0003C57.997 63.6025 57.839 63.221 57.5577 62.9397C57.2764 62.6584 56.8948 62.5003 56.497 62.5003C56.0992 62.5003 55.7177 62.6584 55.4364 62.9397C55.1551 63.221 54.997 63.6025 54.997 64.0003V67.0003C54.997 68.1938 55.4711 69.3384 56.315 70.1823C57.1589 71.0262 58.3035 71.5003 59.497 71.5003H60.997V74.5003C60.997 74.8981 61.1551 75.2797 61.4364 75.561C61.7177 75.8423 62.0992 76.0003 62.497 76.0003C62.8948 76.0003 63.2764 75.8423 63.5577 75.561C63.839 75.2797 63.997 74.8981 63.997 74.5003V64.0003C63.997 63.6025 63.839 63.221 63.5577 62.9397C63.2764 62.6584 62.8948 62.5003 62.497 62.5003ZM47.497 58.0003V50.5003C47.497 50.1025 47.339 49.721 47.0577 49.4397C46.7764 49.1584 46.3948 49.0003 45.997 49.0003C45.5992 49.0003 45.2177 49.1584 44.9364 49.4397C44.6551 49.721 44.497 50.1025 44.497 50.5003V56.5003H39.997C39.5992 56.5003 39.2177 56.6584 38.9364 56.9397C38.6551 57.221 38.497 57.6025 38.497 58.0003C38.497 58.3981 38.6551 58.7797 38.9364 59.061C39.2177 59.3423 39.5992 59.5003 39.997 59.5003H45.997C46.3948 59.5003 46.7764 59.3423 47.0577 59.061C47.339 58.7797 47.497 58.3981 47.497 58.0003ZM62.497 43.0003C62.0992 43.0003 61.7177 43.1584 61.4364 43.4397C61.1551 43.721 60.997 44.1025 60.997 44.5003V48.0613C59.4341 45.7027 57.3372 43.7457 54.8764 42.3492C52.4156 40.9526 49.6602 40.1559 46.8339 40.0236C44.0075 39.8913 41.1898 40.4271 38.6093 41.5877C36.0288 42.7482 33.7582 44.5007 31.9818 46.7031C30.2054 48.9054 28.9732 51.4955 28.3852 54.2632C27.7972 57.0308 27.8699 59.8982 28.5975 62.6325C29.325 65.3668 30.687 67.8911 32.5727 70.0005C34.4585 72.1099 36.815 73.7451 39.451 74.7733C39.6252 74.8405 39.8103 74.8751 39.997 74.8753C40.3471 74.8759 40.6863 74.754 40.9559 74.5307C41.2255 74.3075 41.4086 73.997 41.4734 73.653C41.5382 73.3091 41.4807 72.9532 41.3108 72.6472C41.1408 72.3412 40.8693 72.1042 40.543 71.9773C38.3051 71.1119 36.3073 69.7223 34.7176 67.9251C33.1278 66.1279 31.9924 63.9755 31.4067 61.6486C30.8209 59.3218 30.8019 56.8883 31.3513 54.5526C31.9006 52.2169 33.0023 50.0471 34.5638 48.2252C36.1253 46.4034 38.1011 44.9827 40.3252 44.0825C42.5494 43.1823 44.9571 42.8288 47.3462 43.0517C49.7352 43.2746 52.036 44.0673 54.0553 45.3634C56.0746 46.6595 57.7534 48.4211 58.951 50.5003H54.997C54.5992 50.5003 54.2177 50.6584 53.9364 50.9397C53.6551 51.221 53.497 51.6025 53.497 52.0003C53.497 52.3981 53.6551 52.7797 53.9364 53.061C54.2177 53.3423 54.5992 53.5003 54.997 53.5003H59.497C60.6905 53.5003 61.8351 53.0262 62.679 52.1823C63.5229 51.3384 63.997 50.1938 63.997 49.0003V44.5003C63.997 44.1025 63.839 43.721 63.5577 43.4397C63.2764 43.1584 62.8948 43.0003 62.497 43.0003Z" fill="white"/>
</g>
<defs>
<filter id="filter0_d_1_9258" x="0" y="0.800781" width="309.613" height="113.685" filterUnits="userSpaceOnUse" color-interpolation-filters="sRGB">
<feFlood flood-opacity="0" result="BackgroundImageFix"/>
<feColorMatrix in="SourceAlpha" type="matrix" values="0 0 0 0 0 0 0 0 0 0 0 0 0 0 0 0 0 0 127 0" result="hardAlpha"/>
<feMorphology radius="3" operator="dilate" in="SourceAlpha" result="effect1_dropShadow_1_9258"/>
<feOffset/>
<feGaussianBlur stdDeviation="2"/>
<feComposite in2="hardAlpha" operator="out"/>
<feColorMatrix type="matrix" values="0 0 0 0 0 0 0 0 0 0 0 0 0 0 0 0 0 0 0.15 0"/>
<feBlend mode="normal" in2="BackgroundImageFix" result="effect1_dropShadow_1_9258"/>
<feBlend mode="normal" in="SourceGraphic" in2="effect1_dropShadow_1_9258" result="shape"/>
</filter>
<clipPath id="clip0_1_9258">
<rect width="36" height="36" fill="white" transform="translate(28 40)"/>
</clipPath>
</defs>
</svg>
