<svg width="310" height="115" viewBox="0 0 310 115" fill="none" xmlns="http://www.w3.org/2000/svg">
<g filter="url(#filter0_d_1_9276)">
<rect x="7" y="7.80078" width="295.615" height="99.6847" fill="white"/>
</g>
<path d="M125.715 68.196C124.408 68.196 123.232 67.972 122.187 67.524C121.142 67.0573 120.32 66.404 119.723 65.564C119.126 64.724 118.827 63.744 118.827 62.624H122.243C122.318 63.464 122.644 64.1547 123.223 64.696C123.82 65.2373 124.651 65.508 125.715 65.508C126.816 65.508 127.675 65.2467 128.291 64.724C128.907 64.1827 129.215 63.492 129.215 62.652C129.215 61.9987 129.019 61.4667 128.627 61.056C128.254 60.6453 127.778 60.328 127.199 60.104C126.639 59.88 125.855 59.6373 124.847 59.376C123.578 59.04 122.542 58.704 121.739 58.368C120.955 58.0133 120.283 57.472 119.723 56.744C119.163 56.016 118.883 55.0453 118.883 53.832C118.883 52.712 119.163 51.732 119.723 50.892C120.283 50.052 121.067 49.408 122.075 48.96C123.083 48.512 124.25 48.288 125.575 48.288C127.46 48.288 129 48.764 130.195 49.716C131.408 50.6493 132.08 51.9373 132.211 53.58H128.683C128.627 52.8707 128.291 52.264 127.675 51.76C127.059 51.256 126.247 51.004 125.239 51.004C124.324 51.004 123.578 51.2373 122.999 51.704C122.42 52.1707 122.131 52.8427 122.131 53.72C122.131 54.3173 122.308 54.812 122.663 55.204C123.036 55.5773 123.503 55.876 124.063 56.1C124.623 56.324 125.388 56.5667 126.359 56.828C127.647 57.1827 128.692 57.5373 129.495 57.892C130.316 58.2467 131.007 58.7973 131.567 59.544C132.146 60.272 132.435 61.252 132.435 62.484C132.435 63.4733 132.164 64.4067 131.623 65.284C131.1 66.1613 130.326 66.8707 129.299 67.412C128.291 67.9347 127.096 68.196 125.715 68.196ZM142.894 68.252C141.438 68.252 140.122 67.9253 138.946 67.272C137.77 66.6 136.846 65.6667 136.174 64.472C135.502 63.2587 135.166 61.8587 135.166 60.272C135.166 58.704 135.511 57.3133 136.202 56.1C136.892 54.8867 137.835 53.9533 139.03 53.3C140.224 52.6467 141.559 52.32 143.034 52.32C144.508 52.32 145.843 52.6467 147.038 53.3C148.232 53.9533 149.175 54.8867 149.866 56.1C150.556 57.3133 150.902 58.704 150.902 60.272C150.902 61.84 150.547 63.2307 149.838 64.444C149.128 65.6573 148.158 66.6 146.926 67.272C145.712 67.9253 144.368 68.252 142.894 68.252ZM142.894 65.48C143.715 65.48 144.48 65.284 145.19 64.892C145.918 64.5 146.506 63.912 146.954 63.128C147.402 62.344 147.626 61.392 147.626 60.272C147.626 59.152 147.411 58.2093 146.982 57.444C146.552 56.66 145.983 56.072 145.274 55.68C144.564 55.288 143.799 55.092 142.978 55.092C142.156 55.092 141.391 55.288 140.682 55.68C139.991 56.072 139.44 56.66 139.03 57.444C138.619 58.2093 138.414 59.152 138.414 60.272C138.414 61.9333 138.834 63.2213 139.674 64.136C140.532 65.032 141.606 65.48 142.894 65.48ZM152.993 60.272C152.993 58.6853 153.31 57.2947 153.945 56.1C154.598 54.8867 155.494 53.9533 156.633 53.3C157.772 52.6467 159.078 52.32 160.553 52.32C162.42 52.32 163.96 52.768 165.173 53.664C166.405 54.5413 167.236 55.8013 167.665 57.444H164.221C163.941 56.6787 163.493 56.0813 162.877 55.652C162.261 55.2227 161.486 55.008 160.553 55.008C159.246 55.008 158.201 55.4747 157.417 56.408C156.652 57.3227 156.269 58.6107 156.269 60.272C156.269 61.9333 156.652 63.2307 157.417 64.164C158.201 65.0973 159.246 65.564 160.553 65.564C162.401 65.564 163.624 64.752 164.221 63.128H167.665C167.217 64.696 166.377 65.9467 165.145 66.88C163.913 67.7947 162.382 68.252 160.553 68.252C159.078 68.252 157.772 67.9253 156.633 67.272C155.494 66.6 154.598 65.6667 153.945 64.472C153.31 63.2587 152.993 61.8587 152.993 60.272ZM172.47 50.528C171.891 50.528 171.406 50.332 171.014 49.94C170.622 49.548 170.426 49.0627 170.426 48.484C170.426 47.9053 170.622 47.42 171.014 47.028C171.406 46.636 171.891 46.44 172.47 46.44C173.03 46.44 173.506 46.636 173.898 47.028C174.29 47.42 174.486 47.9053 174.486 48.484C174.486 49.0627 174.29 49.548 173.898 49.94C173.506 50.332 173.03 50.528 172.47 50.528ZM174.038 52.572V68H170.846V52.572H174.038ZM177.165 60.216C177.165 58.6667 177.482 57.2947 178.117 56.1C178.77 54.9053 179.648 53.9813 180.749 53.328C181.869 52.656 183.101 52.32 184.445 52.32C185.658 52.32 186.713 52.5627 187.609 53.048C188.524 53.5147 189.252 54.1027 189.793 54.812V52.572H193.013V68H189.793V65.704C189.252 66.432 188.514 67.0387 187.581 67.524C186.648 68.0093 185.584 68.252 184.389 68.252C183.064 68.252 181.85 67.916 180.749 67.244C179.648 66.5533 178.77 65.6013 178.117 64.388C177.482 63.156 177.165 61.7653 177.165 60.216ZM189.793 60.272C189.793 59.208 189.569 58.284 189.121 57.5C188.692 56.716 188.122 56.1187 187.413 55.708C186.704 55.2973 185.938 55.092 185.117 55.092C184.296 55.092 183.53 55.2973 182.821 55.708C182.112 56.1 181.533 56.688 181.085 57.472C180.656 58.2373 180.441 59.152 180.441 60.216C180.441 61.28 180.656 62.2133 181.085 63.016C181.533 63.8187 182.112 64.4347 182.821 64.864C183.549 65.2747 184.314 65.48 185.117 65.48C185.938 65.48 186.704 65.2747 187.413 64.864C188.122 64.4533 188.692 63.856 189.121 63.072C189.569 62.2693 189.793 61.336 189.793 60.272ZM200.397 47.28V68H197.205V47.28H200.397ZM223.314 48.54V51.144H215.054V56.884H221.494V59.488H215.054V68H211.862V48.54H223.314ZM240.244 52.572V68H237.052V66.18C236.548 66.8147 235.885 67.3187 235.064 67.692C234.261 68.0467 233.403 68.224 232.488 68.224C231.275 68.224 230.183 67.972 229.212 67.468C228.26 66.964 227.504 66.2173 226.944 65.228C226.403 64.2387 226.132 63.044 226.132 61.644V52.572H229.296V61.168C229.296 62.5493 229.641 63.6133 230.332 64.36C231.023 65.088 231.965 65.452 233.16 65.452C234.355 65.452 235.297 65.088 235.988 64.36C236.697 63.6133 237.052 62.5493 237.052 61.168V52.572H240.244ZM252.239 52.32C253.453 52.32 254.535 52.572 255.487 53.076C256.458 53.58 257.214 54.3267 257.755 55.316C258.297 56.3053 258.567 57.5 258.567 58.9V68H255.403V59.376C255.403 57.9947 255.058 56.94 254.367 56.212C253.677 55.4653 252.734 55.092 251.539 55.092C250.345 55.092 249.393 55.4653 248.683 56.212C247.993 56.94 247.647 57.9947 247.647 59.376V68H244.455V52.572H247.647V54.336C248.17 53.7013 248.833 53.2067 249.635 52.852C250.457 52.4973 251.325 52.32 252.239 52.32Z" fill="#283E87"/>
<rect x="7.20312" y="8" width="79" height="100" fill="#283E87"/>
<path d="M30.5234 57.0699C30.5234 58.5247 30.8864 59.9652 31.5917 61.3092C32.297 62.6532 33.3308 63.8744 34.634 64.9031C35.9372 65.9317 37.4844 66.7477 39.1871 67.3044C40.8898 67.8611 42.7148 68.1477 44.5578 68.1477C46.4008 68.1477 48.2258 67.8611 49.9285 67.3044C51.6313 66.7477 53.1784 65.9317 54.4816 64.9031C55.7848 63.8744 56.8186 62.6532 57.5239 61.3092C58.2292 59.9652 58.5922 58.5247 58.5922 57.0699C58.5922 55.6152 58.2292 54.1747 57.5239 52.8307C56.8186 51.4866 55.7848 50.2654 54.4816 49.2368C53.1784 48.2081 51.6313 47.3921 49.9285 46.8354C48.2258 46.2787 46.4008 45.9922 44.5578 45.9922C42.7148 45.9922 40.8898 46.2787 39.1871 46.8354C37.4844 47.3921 35.9372 48.2081 34.634 49.2368C33.3308 50.2654 32.297 51.4866 31.5917 52.8307C30.8864 54.1747 30.5234 55.6152 30.5234 57.0699Z" fill="white"/>
<path d="M35.1852 63.4375L33.4062 70.4512L40.3426 67.6387L35.1852 63.4375Z" fill="white"/>
<path d="M60.0828 58.582C59.8543 63.6586 54.7988 69.3926 48.0523 69.3926C46.966 69.3926 45.943 69.4383 44.9375 69.2414C46.6988 70.4578 49.1 70.7777 51.6699 70.7777C57.1508 70.7777 61.1375 67.807 61.3766 63.3105C61.482 61.3312 60.7086 59.5699 60.0828 58.582Z" fill="white"/>
<path d="M59.5051 66.875L60.7637 71.6387L55.8594 69.7297L59.5051 66.875Z" fill="white"/>
<path d="M37.4531 56.525C37.4531 56.9595 37.6257 57.3762 37.933 57.6834C38.2402 57.9907 38.6569 58.1633 39.0914 58.1633C39.5259 58.1633 39.9426 57.9907 40.2498 57.6834C40.5571 57.3762 40.7297 56.9595 40.7297 56.525C40.7297 56.0905 40.5571 55.6738 40.2498 55.3666C39.9426 55.0593 39.5259 54.8867 39.0914 54.8867C38.6569 54.8867 38.2402 55.0593 37.933 55.3666C37.6257 55.6738 37.4531 56.0905 37.4531 56.525Z" fill="#283E87"/>
<path d="M42.9375 56.525C42.9375 56.9595 43.1101 57.3762 43.4173 57.6834C43.7246 57.9907 44.1413 58.1633 44.5758 58.1633C45.0103 58.1633 45.427 57.9907 45.7342 57.6834C46.0415 57.3762 46.2141 56.9595 46.2141 56.525C46.2141 56.0905 46.0415 55.6738 45.7342 55.3666C45.427 55.0593 45.0103 54.8867 44.5758 54.8867C44.1413 54.8867 43.7246 55.0593 43.4173 55.3666C43.1101 55.6738 42.9375 56.0905 42.9375 56.525Z" fill="#283E87"/>
<path d="M48.3906 56.525C48.3906 56.9595 48.5632 57.3762 48.8705 57.6834C49.1777 57.9907 49.5944 58.1633 50.0289 58.1633C50.4634 58.1633 50.8801 57.9907 51.1873 57.6834C51.4946 57.3762 51.6672 56.9595 51.6672 56.525C51.6672 56.0905 51.4946 55.6738 51.1873 55.3666C50.8801 55.0593 50.4634 54.8867 50.0289 54.8867C49.5944 54.8867 49.1777 55.0593 48.8705 55.3666C48.5632 55.6738 48.3906 56.0905 48.3906 56.525Z" fill="#283E87"/>
<defs>
<filter id="filter0_d_1_9276" x="0" y="0.800781" width="309.613" height="113.685" filterUnits="userSpaceOnUse" color-interpolation-filters="sRGB">
<feFlood flood-opacity="0" result="BackgroundImageFix"/>
<feColorMatrix in="SourceAlpha" type="matrix" values="0 0 0 0 0 0 0 0 0 0 0 0 0 0 0 0 0 0 127 0" result="hardAlpha"/>
<feMorphology radius="3" operator="dilate" in="SourceAlpha" result="effect1_dropShadow_1_9276"/>
<feOffset/>
<feGaussianBlur stdDeviation="2"/>
<feComposite in2="hardAlpha" operator="out"/>
<feColorMatrix type="matrix" values="0 0 0 0 0 0 0 0 0 0 0 0 0 0 0 0 0 0 0.15 0"/>
<feBlend mode="normal" in2="BackgroundImageFix" result="effect1_dropShadow_1_9276"/>
<feBlend mode="normal" in="SourceGraphic" in2="effect1_dropShadow_1_9276" result="shape"/>
</filter>
</defs>
</svg>
