<svg width="310" height="115" viewBox="0 0 310 115" fill="none" xmlns="http://www.w3.org/2000/svg">
<g filter="url(#filter0_d_1_9245)">
<rect x="7" y="7.80078" width="295.615" height="99.6847" fill="white"/>
</g>
<path d="M109.119 48.54V60.944C109.119 62.4187 109.502 63.5293 110.267 64.276C111.051 65.0227 112.134 65.396 113.515 65.396C114.915 65.396 115.998 65.0227 116.763 64.276C117.547 63.5293 117.939 62.4187 117.939 60.944V48.54H121.131V60.888C121.131 62.4747 120.786 63.8187 120.095 64.92C119.405 66.0213 118.481 66.8427 117.323 67.384C116.166 67.9253 114.887 68.196 113.487 68.196C112.087 68.196 110.809 67.9253 109.651 67.384C108.513 66.8427 107.607 66.0213 106.935 64.92C106.263 63.8187 105.927 62.4747 105.927 60.888V48.54H109.119ZM128.48 54.84C129.021 54.1307 129.758 53.5333 130.692 53.048C131.625 52.5627 132.68 52.32 133.856 52.32C135.2 52.32 136.422 52.656 137.524 53.328C138.644 53.9813 139.521 54.9053 140.156 56.1C140.79 57.2947 141.108 58.6667 141.108 60.216C141.108 61.7653 140.79 63.156 140.156 64.388C139.521 65.6013 138.644 66.5533 137.524 67.244C136.422 67.916 135.2 68.252 133.856 68.252C132.68 68.252 131.634 68.0187 130.72 67.552C129.805 67.0667 129.058 66.4693 128.48 65.76V75.336H125.288V52.572H128.48V54.84ZM137.86 60.216C137.86 59.152 137.636 58.2373 137.188 57.472C136.758 56.688 136.18 56.1 135.452 55.708C134.742 55.2973 133.977 55.092 133.156 55.092C132.353 55.092 131.588 55.2973 130.86 55.708C130.15 56.1187 129.572 56.716 129.124 57.5C128.694 58.284 128.48 59.208 128.48 60.272C128.48 61.336 128.694 62.2693 129.124 63.072C129.572 63.856 130.15 64.4533 130.86 64.864C131.588 65.2747 132.353 65.48 133.156 65.48C133.977 65.48 134.742 65.2747 135.452 64.864C136.18 64.4347 136.758 63.8187 137.188 63.016C137.636 62.2133 137.86 61.28 137.86 60.216ZM165.958 48.54L159.518 60.944V68H156.326V60.944L149.858 48.54H153.414L157.922 58.088L162.43 48.54H165.958ZM175.183 68.252C173.727 68.252 172.411 67.9253 171.235 67.272C170.059 66.6 169.135 65.6667 168.463 64.472C167.791 63.2587 167.455 61.8587 167.455 60.272C167.455 58.704 167.8 57.3133 168.491 56.1C169.181 54.8867 170.124 53.9533 171.319 53.3C172.513 52.6467 173.848 52.32 175.323 52.32C176.797 52.32 178.132 52.6467 179.327 53.3C180.521 53.9533 181.464 54.8867 182.155 56.1C182.845 57.3133 183.191 58.704 183.191 60.272C183.191 61.84 182.836 63.2307 182.127 64.444C181.417 65.6573 180.447 66.6 179.215 67.272C178.001 67.9253 176.657 68.252 175.183 68.252ZM175.183 65.48C176.004 65.48 176.769 65.284 177.479 64.892C178.207 64.5 178.795 63.912 179.243 63.128C179.691 62.344 179.915 61.392 179.915 60.272C179.915 59.152 179.7 58.2093 179.271 57.444C178.841 56.66 178.272 56.072 177.563 55.68C176.853 55.288 176.088 55.092 175.267 55.092C174.445 55.092 173.68 55.288 172.971 55.68C172.28 56.072 171.729 56.66 171.319 57.444C170.908 58.2093 170.703 59.152 170.703 60.272C170.703 61.9333 171.123 63.2213 171.963 64.136C172.821 65.032 173.895 65.48 175.183 65.48ZM200.318 52.572V68H197.126V66.18C196.622 66.8147 195.959 67.3187 195.138 67.692C194.335 68.0467 193.477 68.224 192.562 68.224C191.349 68.224 190.257 67.972 189.286 67.468C188.334 66.964 187.578 66.2173 187.018 65.228C186.477 64.2387 186.206 63.044 186.206 61.644V52.572H189.37V61.168C189.37 62.5493 189.715 63.6133 190.406 64.36C191.097 65.088 192.039 65.452 193.234 65.452C194.429 65.452 195.371 65.088 196.062 64.36C196.771 63.6133 197.126 62.5493 197.126 61.168V52.572H200.318ZM207.722 54.812C208.188 54.028 208.804 53.4213 209.57 52.992C210.354 52.544 211.278 52.32 212.342 52.32V55.624H211.53C210.279 55.624 209.327 55.9413 208.674 56.576C208.039 57.2107 207.722 58.312 207.722 59.88V68H204.53V52.572H207.722V54.812ZM228.961 68.196C227.655 68.196 226.479 67.972 225.433 67.524C224.388 67.0573 223.567 66.404 222.969 65.564C222.372 64.724 222.073 63.744 222.073 62.624H225.489C225.564 63.464 225.891 64.1547 226.469 64.696C227.067 65.2373 227.897 65.508 228.961 65.508C230.063 65.508 230.921 65.2467 231.537 64.724C232.153 64.1827 232.461 63.492 232.461 62.652C232.461 61.9987 232.265 61.4667 231.873 61.056C231.5 60.6453 231.024 60.328 230.445 60.104C229.885 59.88 229.101 59.6373 228.093 59.376C226.824 59.04 225.788 58.704 224.985 58.368C224.201 58.0133 223.529 57.472 222.969 56.744C222.409 56.016 222.129 55.0453 222.129 53.832C222.129 52.712 222.409 51.732 222.969 50.892C223.529 50.052 224.313 49.408 225.321 48.96C226.329 48.512 227.496 48.288 228.821 48.288C230.707 48.288 232.247 48.764 233.441 49.716C234.655 50.6493 235.327 51.9373 235.457 53.58H231.929C231.873 52.8707 231.537 52.264 230.921 51.76C230.305 51.256 229.493 51.004 228.485 51.004C227.571 51.004 226.824 51.2373 226.245 51.704C225.667 52.1707 225.377 52.8427 225.377 53.72C225.377 54.3173 225.555 54.812 225.909 55.204C226.283 55.5773 226.749 55.876 227.309 56.1C227.869 56.324 228.635 56.5667 229.605 56.828C230.893 57.1827 231.939 57.5373 232.741 57.892C233.563 58.2467 234.253 58.7973 234.813 59.544C235.392 60.272 235.681 61.252 235.681 62.484C235.681 63.4733 235.411 64.4067 234.869 65.284C234.347 66.1613 233.572 66.8707 232.545 67.412C231.537 67.9347 230.343 68.196 228.961 68.196ZM245.552 60.3L252.664 68H248.352L242.64 61.364V68H239.448V47.28H242.64V59.32L248.24 52.572H252.664L245.552 60.3ZM256.576 50.528C255.997 50.528 255.512 50.332 255.12 49.94C254.728 49.548 254.532 49.0627 254.532 48.484C254.532 47.9053 254.728 47.42 255.12 47.028C255.512 46.636 255.997 46.44 256.576 46.44C257.136 46.44 257.612 46.636 258.004 47.028C258.396 47.42 258.592 47.9053 258.592 48.484C258.592 49.0627 258.396 49.548 258.004 49.94C257.612 50.332 257.136 50.528 256.576 50.528ZM258.144 52.572V68H254.952V52.572H258.144ZM265.526 47.28V68H262.334V47.28H265.526ZM272.909 47.28V68H269.717V47.28H272.909ZM282.7 68.252C281.487 68.252 280.395 68.0373 279.424 67.608C278.472 67.16 277.716 66.5627 277.156 65.816C276.596 65.0507 276.297 64.2013 276.26 63.268H279.564C279.62 63.9213 279.928 64.472 280.488 64.92C281.067 65.3493 281.785 65.564 282.644 65.564C283.54 65.564 284.231 65.396 284.716 65.06C285.22 64.7053 285.472 64.2573 285.472 63.716C285.472 63.1373 285.192 62.708 284.632 62.428C284.091 62.148 283.223 61.84 282.028 61.504C280.871 61.1867 279.928 60.8787 279.2 60.58C278.472 60.2813 277.837 59.824 277.296 59.208C276.773 58.592 276.512 57.78 276.512 56.772C276.512 55.9507 276.755 55.204 277.24 54.532C277.725 53.8413 278.416 53.3 279.312 52.908C280.227 52.516 281.272 52.32 282.448 52.32C284.203 52.32 285.612 52.768 286.676 53.664C287.759 54.5413 288.337 55.7453 288.412 57.276H285.22C285.164 56.5853 284.884 56.0347 284.38 55.624C283.876 55.2133 283.195 55.008 282.336 55.008C281.496 55.008 280.852 55.1667 280.404 55.484C279.956 55.8013 279.732 56.2213 279.732 56.744C279.732 57.1547 279.881 57.5 280.18 57.78C280.479 58.06 280.843 58.284 281.272 58.452C281.701 58.6013 282.336 58.7973 283.176 59.04C284.296 59.3387 285.211 59.6467 285.92 59.964C286.648 60.2627 287.273 60.7107 287.796 61.308C288.319 61.9053 288.589 62.6987 288.608 63.688C288.608 64.5653 288.365 65.3493 287.88 66.04C287.395 66.7307 286.704 67.272 285.808 67.664C284.931 68.056 283.895 68.252 282.7 68.252Z" fill="#283E87"/>
<rect x="7.40625" y="8" width="79" height="100" fill="#283E87"/>
<g clip-path="url(#clip0_1_9245)">
<path d="M50.3033 72.9503C49.8533 73.2893 49.3748 73.6463 48.9683 74.0003H52.4033C52.8011 74.0003 53.1826 74.1584 53.4639 74.4397C53.7452 74.721 53.9033 75.1025 53.9033 75.5003C53.9033 75.8981 53.7452 76.2797 53.4639 76.561C53.1826 76.8423 52.8011 77.0003 52.4033 77.0003H46.4033C46.0054 77.0003 45.6239 76.8423 45.3426 76.561C45.0613 76.2797 44.9033 75.8981 44.9033 75.5003C44.9033 73.2503 46.8158 71.8163 48.5033 70.5503C49.6283 69.7073 50.9033 68.7503 50.9033 68.0003C50.9033 67.6025 50.7452 67.221 50.4639 66.9397C50.1826 66.6584 49.8011 66.5003 49.4033 66.5003C49.0054 66.5003 48.6239 66.6584 48.3426 66.9397C48.0613 67.221 47.9033 67.6025 47.9033 68.0003C47.9033 68.3981 47.7452 68.7797 47.4639 69.061C47.1826 69.3423 46.8011 69.5003 46.4033 69.5003C46.0054 69.5003 45.6239 69.3423 45.3426 69.061C45.0613 68.7797 44.9033 68.3981 44.9033 68.0003C44.9033 66.8068 45.3774 65.6623 46.2213 64.8183C47.0652 63.9744 48.2098 63.5003 49.4033 63.5003C50.5967 63.5003 51.7413 63.9744 52.5852 64.8183C53.4292 65.6623 53.9033 66.8068 53.9033 68.0003C53.9033 70.2503 51.9908 71.6843 50.3033 72.9503ZM62.9033 63.5003C62.5054 63.5003 62.1239 63.6584 61.8426 63.9397C61.5613 64.221 61.4033 64.6025 61.4033 65.0003V69.5003H59.9033C59.5054 69.5003 59.1239 69.3423 58.8426 69.061C58.5613 68.7797 58.4033 68.3981 58.4033 68.0003V65.0003C58.4033 64.6025 58.2452 64.221 57.9639 63.9397C57.6826 63.6584 57.3011 63.5003 56.9033 63.5003C56.5054 63.5003 56.1239 63.6584 55.8426 63.9397C55.5613 64.221 55.4033 64.6025 55.4033 65.0003V68.0003C55.4033 69.1938 55.8774 70.3384 56.7213 71.1823C57.5652 72.0262 58.7098 72.5003 59.9033 72.5003H61.4033V75.5003C61.4033 75.8981 61.5613 76.2797 61.8426 76.561C62.1239 76.8423 62.5054 77.0003 62.9033 77.0003C63.3011 77.0003 63.6826 76.8423 63.9639 76.561C64.2452 76.2797 64.4033 75.8981 64.4033 75.5003V65.0003C64.4033 64.6025 64.2452 64.221 63.9639 63.9397C63.6826 63.6584 63.3011 63.5003 62.9033 63.5003ZM47.9033 59.0003V51.5003C47.9033 51.1025 47.7452 50.721 47.4639 50.4397C47.1826 50.1584 46.8011 50.0003 46.4033 50.0003C46.0054 50.0003 45.6239 50.1584 45.3426 50.4397C45.0613 50.721 44.9033 51.1025 44.9033 51.5003V57.5003H40.4033C40.0054 57.5003 39.6239 57.6584 39.3426 57.9397C39.0613 58.221 38.9033 58.6025 38.9033 59.0003C38.9033 59.3981 39.0613 59.7797 39.3426 60.061C39.6239 60.3423 40.0054 60.5003 40.4033 60.5003H46.4033C46.8011 60.5003 47.1826 60.3423 47.4639 60.061C47.7452 59.7797 47.9033 59.3981 47.9033 59.0003ZM62.9033 44.0003C62.5054 44.0003 62.1239 44.1584 61.8426 44.4397C61.5613 44.721 61.4033 45.1025 61.4033 45.5003V49.0613C59.8404 46.7027 57.7435 44.7457 55.2827 43.3492C52.8219 41.9526 50.0665 41.1559 47.2401 41.0236C44.4138 40.8913 41.596 41.4271 39.0155 42.5877C36.435 43.7482 34.1644 45.5007 32.388 47.7031C30.6116 49.9054 29.3794 52.4955 28.7914 55.2632C28.2034 58.0308 28.2761 60.8982 29.0037 63.6325C29.7313 66.3668 31.0932 68.8911 32.979 71.0005C34.8648 73.1099 37.2212 74.7451 39.8573 75.7733C40.0315 75.8405 40.2166 75.8751 40.4033 75.8753C40.7533 75.8759 41.0925 75.754 41.3621 75.5307C41.6318 75.3075 41.8148 74.997 41.8797 74.653C41.9445 74.3091 41.8869 73.9532 41.717 73.6472C41.5471 73.3412 41.2755 73.1042 40.9493 72.9773C38.7113 72.1119 36.7136 70.7223 35.1238 68.9251C33.5341 67.1279 32.3987 64.9755 31.8129 62.6486C31.2272 60.3218 31.2082 57.8883 31.7575 55.5526C32.3069 53.2169 33.4085 51.0471 34.97 49.2252C36.5315 47.4034 38.5073 45.9827 40.7315 45.0825C42.9557 44.1823 45.3633 43.8288 47.7524 44.0517C50.1415 44.2746 52.4422 45.0673 54.4615 46.3634C56.4808 47.6595 58.1597 49.4211 59.3573 51.5003H55.4033C55.0054 51.5003 54.6239 51.6584 54.3426 51.9397C54.0613 52.221 53.9033 52.6025 53.9033 53.0003C53.9033 53.3981 54.0613 53.7797 54.3426 54.061C54.6239 54.3423 55.0054 54.5003 55.4033 54.5003H59.9033C61.0967 54.5003 62.2413 54.0262 63.0852 53.1823C63.9292 52.3384 64.4033 51.1938 64.4033 50.0003V45.5003C64.4033 45.1025 64.2452 44.721 63.9639 44.4397C63.6826 44.1584 63.3011 44.0003 62.9033 44.0003Z" fill="white"/>
</g>
<defs>
<filter id="filter0_d_1_9245" x="0" y="0.800781" width="309.613" height="113.685" filterUnits="userSpaceOnUse" color-interpolation-filters="sRGB">
<feFlood flood-opacity="0" result="BackgroundImageFix"/>
<feColorMatrix in="SourceAlpha" type="matrix" values="0 0 0 0 0 0 0 0 0 0 0 0 0 0 0 0 0 0 127 0" result="hardAlpha"/>
<feMorphology radius="3" operator="dilate" in="SourceAlpha" result="effect1_dropShadow_1_9245"/>
<feOffset/>
<feGaussianBlur stdDeviation="2"/>
<feComposite in2="hardAlpha" operator="out"/>
<feColorMatrix type="matrix" values="0 0 0 0 0 0 0 0 0 0 0 0 0 0 0 0 0 0 0.15 0"/>
<feBlend mode="normal" in2="BackgroundImageFix" result="effect1_dropShadow_1_9245"/>
<feBlend mode="normal" in="SourceGraphic" in2="effect1_dropShadow_1_9245" result="shape"/>
</filter>
<clipPath id="clip0_1_9245">
<rect width="36" height="36" fill="white" transform="translate(28.4062 41)"/>
</clipPath>
</defs>
</svg>
