<svg width="310" height="115" viewBox="0 0 310 115" fill="none" xmlns="http://www.w3.org/2000/svg">
<g filter="url(#filter0_d_1_9268)">
<rect x="7" y="7.61328" width="295.615" height="99.6847" fill="white"/>
</g>
<path d="M139.782 46.76L133.19 69H129.062L124.39 52.168L119.43 69L115.334 69.032L109.03 46.76H112.902L117.51 64.872L122.502 46.76H126.598L131.238 64.776L135.878 46.76H139.782ZM158.951 59.752C158.951 60.4133 158.908 61.0107 158.823 61.544H145.351C145.457 62.952 145.98 64.0827 146.919 64.936C147.857 65.7893 149.009 66.216 150.375 66.216C152.337 66.216 153.724 65.3947 154.535 63.752H158.471C157.937 65.3733 156.967 66.7067 155.559 67.752C154.172 68.776 152.444 69.288 150.375 69.288C148.689 69.288 147.175 68.9147 145.831 68.168C144.508 67.4 143.463 66.3333 142.695 64.968C141.948 63.5813 141.575 61.9813 141.575 60.168C141.575 58.3547 141.937 56.7653 142.663 55.4C143.409 54.0133 144.444 52.9467 145.767 52.2C147.111 51.4533 148.647 51.08 150.375 51.08C152.039 51.08 153.521 51.4427 154.823 52.168C156.124 52.8933 157.137 53.9173 157.863 55.24C158.588 56.5413 158.951 58.0453 158.951 59.752ZM155.143 58.6C155.121 57.256 154.641 56.1787 153.703 55.368C152.764 54.5573 151.601 54.152 150.215 54.152C148.956 54.152 147.879 54.5573 146.983 55.368C146.087 56.1573 145.553 57.2347 145.383 58.6H155.143ZM166.189 45.32V69H162.541V45.32H166.189ZM174.626 45.32V69H170.978V45.32H174.626ZM183.064 53.992C183.682 53.1387 184.525 52.4453 185.592 51.912C186.68 51.3573 187.885 51.08 189.208 51.08C190.765 51.08 192.173 51.4533 193.432 52.2C194.69 52.9467 195.682 54.0133 196.408 55.4C197.133 56.7653 197.496 58.3333 197.496 60.104C197.496 61.8747 197.133 63.464 196.408 64.872C195.682 66.2587 194.68 67.3467 193.4 68.136C192.141 68.904 190.744 69.288 189.208 69.288C187.842 69.288 186.626 69.0213 185.56 68.488C184.514 67.9547 183.682 67.272 183.064 66.44V69H179.416V45.32H183.064V53.992ZM193.784 60.104C193.784 58.888 193.528 57.8427 193.016 56.968C192.525 56.072 191.864 55.4 191.032 54.952C190.221 54.4827 189.346 54.248 188.408 54.248C187.49 54.248 186.616 54.4827 185.784 54.952C184.973 55.4213 184.312 56.104 183.8 57C183.309 57.896 183.064 58.952 183.064 60.168C183.064 61.384 183.309 62.4507 183.8 63.368C184.312 64.264 184.973 64.9467 185.784 65.416C186.616 65.8853 187.49 66.12 188.408 66.12C189.346 66.12 190.221 65.8853 191.032 65.416C191.864 64.9253 192.525 64.2213 193.016 63.304C193.528 62.3867 193.784 61.32 193.784 60.104ZM217.263 59.752C217.263 60.4133 217.22 61.0107 217.135 61.544H203.663C203.77 62.952 204.292 64.0827 205.231 64.936C206.17 65.7893 207.322 66.216 208.687 66.216C210.65 66.216 212.036 65.3947 212.847 63.752H216.783C216.25 65.3733 215.279 66.7067 213.871 67.752C212.484 68.776 210.756 69.288 208.687 69.288C207.002 69.288 205.487 68.9147 204.143 68.168C202.82 67.4 201.775 66.3333 201.007 64.968C200.26 63.5813 199.887 61.9813 199.887 60.168C199.887 58.3547 200.25 56.7653 200.975 55.4C201.722 54.0133 202.756 52.9467 204.079 52.2C205.423 51.4533 206.959 51.08 208.687 51.08C210.351 51.08 211.834 51.4427 213.135 52.168C214.436 52.8933 215.45 53.9173 216.175 55.24C216.9 56.5413 217.263 58.0453 217.263 59.752ZM213.455 58.6C213.434 57.256 212.954 56.1787 212.015 55.368C211.076 54.5573 209.914 54.152 208.527 54.152C207.268 54.152 206.191 54.5573 205.295 55.368C204.399 56.1573 203.866 57.2347 203.695 58.6H213.455ZM222.709 49.032C222.048 49.032 221.493 48.808 221.045 48.36C220.597 47.912 220.373 47.3573 220.373 46.696C220.373 46.0347 220.597 45.48 221.045 45.032C221.493 44.584 222.048 44.36 222.709 44.36C223.349 44.36 223.893 44.584 224.341 45.032C224.789 45.48 225.013 46.0347 225.013 46.696C225.013 47.3573 224.789 47.912 224.341 48.36C223.893 48.808 223.349 49.032 222.709 49.032ZM224.501 51.368V69H220.853V51.368H224.501ZM238.187 51.08C239.573 51.08 240.811 51.368 241.899 51.944C243.008 52.52 243.872 53.3733 244.491 54.504C245.109 55.6347 245.419 57 245.419 58.6V69H241.803V59.144C241.803 57.5653 241.408 56.36 240.619 55.528C239.829 54.6747 238.752 54.248 237.387 54.248C236.021 54.248 234.933 54.6747 234.123 55.528C233.333 56.36 232.939 57.5653 232.939 59.144V69H229.291V51.368H232.939V53.384C233.536 52.6587 234.293 52.0933 235.211 51.688C236.149 51.2827 237.141 51.08 238.187 51.08ZM257.176 51.08C258.541 51.08 259.747 51.3573 260.792 51.912C261.859 52.4453 262.691 53.1173 263.288 53.928V51.368H266.968V69.288C266.968 70.9093 266.627 72.3493 265.944 73.608C265.261 74.888 264.269 75.8907 262.968 76.616C261.688 77.3413 260.152 77.704 258.36 77.704C255.971 77.704 253.987 77.1387 252.408 76.008C250.829 74.8987 249.933 73.384 249.72 71.464H253.336C253.613 72.3813 254.2 73.1173 255.096 73.672C256.013 74.248 257.101 74.536 258.36 74.536C259.832 74.536 261.016 74.088 261.912 73.192C262.829 72.296 263.288 70.9947 263.288 69.288V66.344C262.669 67.176 261.827 67.88 260.76 68.456C259.715 69.0107 258.52 69.288 257.176 69.288C255.64 69.288 254.232 68.904 252.952 68.136C251.693 67.3467 250.691 66.2587 249.944 64.872C249.219 63.464 248.856 61.8747 248.856 60.104C248.856 58.3333 249.219 56.7653 249.944 55.4C250.691 54.0347 251.693 52.9787 252.952 52.232C254.232 51.464 255.64 51.08 257.176 51.08ZM263.288 60.168C263.288 58.952 263.032 57.896 262.52 57C262.029 56.104 261.379 55.4213 260.568 54.952C259.757 54.4827 258.883 54.248 257.944 54.248C257.005 54.248 256.131 54.4827 255.32 54.952C254.509 55.4 253.848 56.072 253.336 56.968C252.845 57.8427 252.6 58.888 252.6 60.104C252.6 61.32 252.845 62.3867 253.336 63.304C253.848 64.2213 254.509 64.9253 255.32 65.416C256.152 65.8853 257.027 66.12 257.944 66.12C258.883 66.12 259.757 65.8853 260.568 65.416C261.379 64.9467 262.029 64.264 262.52 63.368C263.032 62.4507 263.288 61.384 263.288 60.168Z" fill="#283E87"/>
<rect x="7.39062" y="7" width="79" height="100" fill="#283E87"/>
<path d="M42.6407 39C37.7384 39 33.7402 42.9982 33.7402 47.9005C33.7402 52.8028 37.7384 56.8012 42.6407 56.8012C47.543 56.8012 51.5414 52.8028 51.5414 47.9005C51.5414 42.9982 47.543 39 42.6407 39ZM42.6407 41.25C46.327 41.25 49.2914 44.2141 49.2914 47.9005C49.2914 51.5869 46.327 54.5512 42.6407 54.5512C38.9544 54.5512 35.9902 51.5869 35.9902 47.9005C35.9902 44.2141 38.9544 41.25 42.6407 41.25ZM46.455 57V75H64.455V57H46.455ZM42.6398 58.2269C34.7422 58.2289 28.4292 65.2952 28.3952 73.8704L28.3906 75H44.295V72.75H30.7006C31.2396 65.81 36.4242 60.479 42.6398 60.4769H42.6407C43.2015 60.4769 43.7537 60.5211 44.295 60.6053V58.3331C43.7523 58.2639 43.2004 58.227 42.6402 58.2269H42.6398ZM48.705 59.25H62.205V61.713L60.8979 60.6111L54.2264 68.5239L49.7539 64.7532L48.705 65.9972V59.25ZM62.205 62.5512V72.75H48.705V66.8119L52.7761 70.2441L54.4963 71.6944L55.9466 69.9742L62.205 62.5512Z" fill="white"/>
<defs>
<filter id="filter0_d_1_9268" x="0" y="0.613281" width="309.613" height="113.685" filterUnits="userSpaceOnUse" color-interpolation-filters="sRGB">
<feFlood flood-opacity="0" result="BackgroundImageFix"/>
<feColorMatrix in="SourceAlpha" type="matrix" values="0 0 0 0 0 0 0 0 0 0 0 0 0 0 0 0 0 0 127 0" result="hardAlpha"/>
<feMorphology radius="3" operator="dilate" in="SourceAlpha" result="effect1_dropShadow_1_9268"/>
<feOffset/>
<feGaussianBlur stdDeviation="2"/>
<feComposite in2="hardAlpha" operator="out"/>
<feColorMatrix type="matrix" values="0 0 0 0 0 0 0 0 0 0 0 0 0 0 0 0 0 0 0.15 0"/>
<feBlend mode="normal" in2="BackgroundImageFix" result="effect1_dropShadow_1_9268"/>
<feBlend mode="normal" in="SourceGraphic" in2="effect1_dropShadow_1_9268" result="shape"/>
</filter>
</defs>
</svg>
