<svg width="310" height="113" viewBox="0 0 310 113" fill="none" xmlns="http://www.w3.org/2000/svg">
<g filter="url(#filter0_d_1_9309)">
<rect x="7" y="7" width="295.615" height="99" fill="white"/>
</g>
<path d="M106.713 46.54V58.944C106.713 60.4187 107.096 61.5293 107.861 62.276C108.645 63.0227 109.728 63.396 111.109 63.396C112.509 63.396 113.592 63.0227 114.357 62.276C115.141 61.5293 115.533 60.4187 115.533 58.944V46.54H118.725V58.888C118.725 60.4747 118.38 61.8187 117.689 62.92C116.999 64.0213 116.075 64.8427 114.917 65.384C113.76 65.9253 112.481 66.196 111.081 66.196C109.681 66.196 108.403 65.9253 107.245 65.384C106.107 64.8427 105.201 64.0213 104.529 62.92C103.857 61.8187 103.521 60.4747 103.521 58.888V46.54H106.713ZM126.073 52.84C126.615 52.1307 127.352 51.5333 128.285 51.048C129.219 50.5627 130.273 50.32 131.449 50.32C132.793 50.32 134.016 50.656 135.117 51.328C136.237 51.9813 137.115 52.9053 137.749 54.1C138.384 55.2947 138.701 56.6667 138.701 58.216C138.701 59.7653 138.384 61.156 137.749 62.388C137.115 63.6013 136.237 64.5533 135.117 65.244C134.016 65.916 132.793 66.252 131.449 66.252C130.273 66.252 129.228 66.0187 128.313 65.552C127.399 65.0667 126.652 64.4693 126.073 63.76V73.336H122.881V50.572H126.073V52.84ZM135.453 58.216C135.453 57.152 135.229 56.2373 134.781 55.472C134.352 54.688 133.773 54.1 133.045 53.708C132.336 53.2973 131.571 53.092 130.749 53.092C129.947 53.092 129.181 53.2973 128.453 53.708C127.744 54.1187 127.165 54.716 126.717 55.5C126.288 56.284 126.073 57.208 126.073 58.272C126.073 59.336 126.288 60.2693 126.717 61.072C127.165 61.856 127.744 62.4533 128.453 62.864C129.181 63.2747 129.947 63.48 130.749 63.48C131.571 63.48 132.336 63.2747 133.045 62.864C133.773 62.4347 134.352 61.8187 134.781 61.016C135.229 60.2133 135.453 59.28 135.453 58.216ZM163.551 46.54L157.111 58.944V66H153.919V58.944L147.451 46.54H151.007L155.515 56.088L160.023 46.54H163.551ZM172.776 66.252C171.32 66.252 170.004 65.9253 168.828 65.272C167.652 64.6 166.728 63.6667 166.056 62.472C165.384 61.2587 165.048 59.8587 165.048 58.272C165.048 56.704 165.394 55.3133 166.084 54.1C166.775 52.8867 167.718 51.9533 168.912 51.3C170.107 50.6467 171.442 50.32 172.916 50.32C174.391 50.32 175.726 50.6467 176.92 51.3C178.115 51.9533 179.058 52.8867 179.748 54.1C180.439 55.3133 180.784 56.704 180.784 58.272C180.784 59.84 180.43 61.2307 179.72 62.444C179.011 63.6573 178.04 64.6 176.808 65.272C175.595 65.9253 174.251 66.252 172.776 66.252ZM172.776 63.48C173.598 63.48 174.363 63.284 175.072 62.892C175.8 62.5 176.388 61.912 176.836 61.128C177.284 60.344 177.508 59.392 177.508 58.272C177.508 57.152 177.294 56.2093 176.864 55.444C176.435 54.66 175.866 54.072 175.156 53.68C174.447 53.288 173.682 53.092 172.86 53.092C172.039 53.092 171.274 53.288 170.564 53.68C169.874 54.072 169.323 54.66 168.912 55.444C168.502 56.2093 168.296 57.152 168.296 58.272C168.296 59.9333 168.716 61.2213 169.556 62.136C170.415 63.032 171.488 63.48 172.776 63.48ZM197.912 50.572V66H194.72V64.18C194.216 64.8147 193.553 65.3187 192.732 65.692C191.929 66.0467 191.071 66.224 190.156 66.224C188.943 66.224 187.851 65.972 186.88 65.468C185.928 64.964 185.172 64.2173 184.612 63.228C184.071 62.2387 183.8 61.044 183.8 59.644V50.572H186.964V59.168C186.964 60.5493 187.309 61.6133 188 62.36C188.691 63.088 189.633 63.452 190.828 63.452C192.023 63.452 192.965 63.088 193.656 62.36C194.365 61.6133 194.72 60.5493 194.72 59.168V50.572H197.912ZM205.315 52.812C205.782 52.028 206.398 51.4213 207.163 50.992C207.947 50.544 208.871 50.32 209.935 50.32V53.624H209.123C207.873 53.624 206.921 53.9413 206.267 54.576C205.633 55.2107 205.315 56.312 205.315 57.88V66H202.123V50.572H205.315V52.812ZM226.555 66.196C225.248 66.196 224.072 65.972 223.027 65.524C221.982 65.0573 221.16 64.404 220.563 63.564C219.966 62.724 219.667 61.744 219.667 60.624H223.083C223.158 61.464 223.484 62.1547 224.063 62.696C224.66 63.2373 225.491 63.508 226.555 63.508C227.656 63.508 228.515 63.2467 229.131 62.724C229.747 62.1827 230.055 61.492 230.055 60.652C230.055 59.9987 229.859 59.4667 229.467 59.056C229.094 58.6453 228.618 58.328 228.039 58.104C227.479 57.88 226.695 57.6373 225.687 57.376C224.418 57.04 223.382 56.704 222.579 56.368C221.795 56.0133 221.123 55.472 220.563 54.744C220.003 54.016 219.723 53.0453 219.723 51.832C219.723 50.712 220.003 49.732 220.563 48.892C221.123 48.052 221.907 47.408 222.915 46.96C223.923 46.512 225.09 46.288 226.415 46.288C228.3 46.288 229.84 46.764 231.035 47.716C232.248 48.6493 232.92 49.9373 233.051 51.58H229.523C229.467 50.8707 229.131 50.264 228.515 49.76C227.899 49.256 227.087 49.004 226.079 49.004C225.164 49.004 224.418 49.2373 223.839 49.704C223.26 50.1707 222.971 50.8427 222.971 51.72C222.971 52.3173 223.148 52.812 223.503 53.204C223.876 53.5773 224.343 53.876 224.903 54.1C225.463 54.324 226.228 54.5667 227.199 54.828C228.487 55.1827 229.532 55.5373 230.335 55.892C231.156 56.2467 231.847 56.7973 232.407 57.544C232.986 58.272 233.275 59.252 233.275 60.484C233.275 61.4733 233.004 62.4067 232.463 63.284C231.94 64.1613 231.166 64.8707 230.139 65.412C229.131 65.9347 227.936 66.196 226.555 66.196ZM243.145 58.3L250.257 66H245.945L240.233 59.364V66H237.041V45.28H240.233V57.32L245.833 50.572H250.257L243.145 58.3ZM254.169 48.528C253.591 48.528 253.105 48.332 252.713 47.94C252.321 47.548 252.125 47.0627 252.125 46.484C252.125 45.9053 252.321 45.42 252.713 45.028C253.105 44.636 253.591 44.44 254.169 44.44C254.729 44.44 255.205 44.636 255.597 45.028C255.989 45.42 256.185 45.9053 256.185 46.484C256.185 47.0627 255.989 47.548 255.597 47.94C255.205 48.332 254.729 48.528 254.169 48.528ZM255.737 50.572V66H252.545V50.572H255.737ZM263.12 45.28V66H259.928V45.28H263.12ZM270.503 45.28V66H267.311V45.28H270.503ZM280.294 66.252C279.08 66.252 277.988 66.0373 277.018 65.608C276.066 65.16 275.31 64.5627 274.75 63.816C274.19 63.0507 273.891 62.2013 273.854 61.268H277.158C277.214 61.9213 277.522 62.472 278.082 62.92C278.66 63.3493 279.379 63.564 280.238 63.564C281.134 63.564 281.824 63.396 282.31 63.06C282.814 62.7053 283.066 62.2573 283.066 61.716C283.066 61.1373 282.786 60.708 282.226 60.428C281.684 60.148 280.816 59.84 279.622 59.504C278.464 59.1867 277.522 58.8787 276.794 58.58C276.066 58.2813 275.431 57.824 274.89 57.208C274.367 56.592 274.106 55.78 274.106 54.772C274.106 53.9507 274.348 53.204 274.834 52.532C275.319 51.8413 276.01 51.3 276.906 50.908C277.82 50.516 278.866 50.32 280.042 50.32C281.796 50.32 283.206 50.768 284.27 51.664C285.352 52.5413 285.931 53.7453 286.006 55.276H282.814C282.758 54.5853 282.478 54.0347 281.974 53.624C281.47 53.2133 280.788 53.008 279.93 53.008C279.09 53.008 278.446 53.1667 277.998 53.484C277.55 53.8013 277.326 54.2213 277.326 54.744C277.326 55.1547 277.475 55.5 277.774 55.78C278.072 56.06 278.436 56.284 278.866 56.452C279.295 56.6013 279.93 56.7973 280.77 57.04C281.89 57.3387 282.804 57.6467 283.514 57.964C284.242 58.2627 284.867 58.7107 285.39 59.308C285.912 59.9053 286.183 60.6987 286.202 61.688C286.202 62.5653 285.959 63.3493 285.474 64.04C284.988 64.7307 284.298 65.272 283.402 65.664C282.524 66.056 281.488 66.252 280.294 66.252Z" fill="#283E87"/>
<rect x="7" y="7" width="79" height="100" fill="#283E87"/>
<g clip-path="url(#clip0_1_9309)">
<path d="M42.2188 39C37.3165 39 33.3183 42.9982 33.3183 47.9005C33.3183 52.8028 37.3165 56.8012 42.2188 56.8012C47.1212 56.8012 51.1195 52.8028 51.1195 47.9005C51.1195 42.9982 47.1212 39 42.2188 39ZM42.2188 41.25C45.9052 41.25 48.8695 44.2141 48.8695 47.9005C48.8695 51.5869 45.9052 54.5512 42.2188 54.5512C38.5325 54.5512 35.5683 51.5869 35.5683 47.9005C35.5683 44.2141 38.5325 41.25 42.2188 41.25ZM46.0331 57V75H64.0331V57H46.0331ZM42.2179 58.2269C34.3203 58.2289 28.0074 65.2952 27.9733 73.8704L27.9688 75H43.8731V72.75H30.2787C30.8177 65.81 36.0023 60.479 42.2179 60.4769H42.2188C42.7796 60.4769 43.3318 60.5211 43.8731 60.6053V58.3331C43.3305 58.2639 42.7786 58.227 42.2183 58.2269H42.2179ZM48.2831 59.25H61.7831V61.713L60.476 60.6111L53.8046 68.5239L49.332 64.7532L48.2831 65.9972V59.25ZM61.7831 62.5512V72.75H48.2831V66.8119L52.3542 70.2441L54.0744 71.6944L55.5248 69.9742L61.7831 62.5512Z" fill="white"/>
</g>
<defs>
<filter id="filter0_d_1_9309" x="0" y="0" width="309.613" height="113" filterUnits="userSpaceOnUse" color-interpolation-filters="sRGB">
<feFlood flood-opacity="0" result="BackgroundImageFix"/>
<feColorMatrix in="SourceAlpha" type="matrix" values="0 0 0 0 0 0 0 0 0 0 0 0 0 0 0 0 0 0 127 0" result="hardAlpha"/>
<feMorphology radius="3" operator="dilate" in="SourceAlpha" result="effect1_dropShadow_1_9309"/>
<feOffset/>
<feGaussianBlur stdDeviation="2"/>
<feComposite in2="hardAlpha" operator="out"/>
<feColorMatrix type="matrix" values="0 0 0 0 0 0 0 0 0 0 0 0 0 0 0 0 0 0 0.15 0"/>
<feBlend mode="normal" in2="BackgroundImageFix" result="effect1_dropShadow_1_9309"/>
<feBlend mode="normal" in="SourceGraphic" in2="effect1_dropShadow_1_9309" result="shape"/>
</filter>
<clipPath id="clip0_1_9309">
<rect width="36" height="36" fill="white" transform="translate(28 39)"/>
</clipPath>
</defs>
</svg>
