<svg width="310" height="115" viewBox="0 0 310 115" fill="none" xmlns="http://www.w3.org/2000/svg">
<g filter="url(#filter0_d_1_9292)">
<rect x="7.38281" y="7.80078" width="295.615" height="99.6847" fill="white"/>
</g>
<path d="M168.648 48.54V68H165.456V59.488H156.3V68H153.108V48.54H156.3V56.884H165.456V48.54H168.648ZM186.99 59.908C186.99 60.4867 186.953 61.0093 186.878 61.476H175.09C175.183 62.708 175.641 63.6973 176.462 64.444C177.283 65.1907 178.291 65.564 179.486 65.564C181.203 65.564 182.417 64.8453 183.126 63.408H186.57C186.103 64.8267 185.254 65.9933 184.022 66.908C182.809 67.804 181.297 68.252 179.486 68.252C178.011 68.252 176.686 67.9253 175.51 67.272C174.353 66.6 173.438 65.6667 172.766 64.472C172.113 63.2587 171.786 61.8587 171.786 60.272C171.786 58.6853 172.103 57.2947 172.738 56.1C173.391 54.8867 174.297 53.9533 175.454 53.3C176.63 52.6467 177.974 52.32 179.486 52.32C180.942 52.32 182.239 52.6373 183.378 53.272C184.517 53.9067 185.403 54.8027 186.038 55.96C186.673 57.0987 186.99 58.4147 186.99 59.908ZM183.658 58.9C183.639 57.724 183.219 56.7813 182.398 56.072C181.577 55.3627 180.559 55.008 179.346 55.008C178.245 55.008 177.302 55.3627 176.518 56.072C175.734 56.7627 175.267 57.7053 175.118 58.9H183.658ZM189.067 60.216C189.067 58.6667 189.385 57.2947 190.019 56.1C190.673 54.9053 191.55 53.9813 192.651 53.328C193.771 52.656 195.003 52.32 196.347 52.32C197.561 52.32 198.615 52.5627 199.511 53.048C200.426 53.5147 201.154 54.1027 201.695 54.812V52.572H204.915V68H201.695V65.704C201.154 66.432 200.417 67.0387 199.483 67.524C198.55 68.0093 197.486 68.252 196.291 68.252C194.966 68.252 193.753 67.916 192.651 67.244C191.55 66.5533 190.673 65.6013 190.019 64.388C189.385 63.156 189.067 61.7653 189.067 60.216ZM201.695 60.272C201.695 59.208 201.471 58.284 201.023 57.5C200.594 56.716 200.025 56.1187 199.315 55.708C198.606 55.2973 197.841 55.092 197.019 55.092C196.198 55.092 195.433 55.2973 194.723 55.708C194.014 56.1 193.435 56.688 192.987 57.472C192.558 58.2373 192.343 59.152 192.343 60.216C192.343 61.28 192.558 62.2133 192.987 63.016C193.435 63.8187 194.014 64.4347 194.723 64.864C195.451 65.2747 196.217 65.48 197.019 65.48C197.841 65.48 198.606 65.2747 199.315 64.864C200.025 64.4533 200.594 63.856 201.023 63.072C201.471 62.2693 201.695 61.336 201.695 60.272ZM212.3 47.28V68H209.108V47.28H212.3ZM220.215 55.176V63.716C220.215 64.2947 220.345 64.7147 220.607 64.976C220.887 65.2187 221.353 65.34 222.007 65.34H223.967V68H221.447C220.009 68 218.908 67.664 218.143 66.992C217.377 66.32 216.995 65.228 216.995 63.716V55.176H215.175V52.572H216.995V48.736H220.215V52.572H223.967V55.176H220.215ZM234.889 52.32C236.065 52.32 237.11 52.572 238.025 53.076C238.958 53.58 239.686 54.3267 240.209 55.316C240.75 56.3053 241.021 57.5 241.021 58.9V68H237.857V59.376C237.857 57.9947 237.511 56.94 236.821 56.212C236.13 55.4653 235.187 55.092 233.993 55.092C232.798 55.092 231.846 55.4653 231.137 56.212C230.446 56.94 230.101 57.9947 230.101 59.376V68H226.909V47.28H230.101V54.364C230.642 53.7107 231.323 53.2067 232.145 52.852C232.985 52.4973 233.899 52.32 234.889 52.32Z" fill="#283E87"/>
<rect x="7" y="8" width="79" height="100" fill="#283E87"/>
<path d="M30.3203 57.0699C30.3203 58.5247 30.6833 59.9652 31.3886 61.3092C32.0939 62.6532 33.1277 63.8744 34.4309 64.9031C35.7341 65.9317 37.2812 66.7477 38.984 67.3044C40.6867 67.8611 42.5117 68.1477 44.3547 68.1477C46.1977 68.1477 48.0227 67.8611 49.7254 67.3044C51.4281 66.7477 52.9753 65.9317 54.2785 64.9031C55.5817 63.8744 56.6155 62.6532 57.3208 61.3092C58.0261 59.9652 58.3891 58.5247 58.3891 57.0699C58.3891 55.6152 58.0261 54.1747 57.3208 52.8307C56.6155 51.4866 55.5817 50.2654 54.2785 49.2368C52.9753 48.2081 51.4281 47.3921 49.7254 46.8354C48.0227 46.2787 46.1977 45.9922 44.3547 45.9922C42.5117 45.9922 40.6867 46.2787 38.984 46.8354C37.2812 47.3921 35.7341 48.2081 34.4309 49.2368C33.1277 50.2654 32.0939 51.4866 31.3886 52.8307C30.6833 54.1747 30.3203 55.6152 30.3203 57.0699Z" fill="white"/>
<path d="M34.982 63.4375L33.2031 70.4512L40.1395 67.6387L34.982 63.4375Z" fill="white"/>
<path d="M59.8797 58.582C59.6512 63.6586 54.5957 69.3926 47.8492 69.3926C46.7629 69.3926 45.7398 69.4383 44.7344 69.2414C46.4957 70.4578 48.8969 70.7777 51.4668 70.7777C56.9477 70.7777 60.9344 67.807 61.1734 63.3105C61.2789 61.3312 60.5055 59.5699 59.8797 58.582Z" fill="white"/>
<path d="M59.302 66.875L60.5605 71.6387L55.6562 69.7297L59.302 66.875Z" fill="white"/>
<path d="M37.25 56.525C37.25 56.9595 37.4226 57.3762 37.7298 57.6834C38.0371 57.9907 38.4538 58.1633 38.8883 58.1633C39.3228 58.1633 39.7395 57.9907 40.0467 57.6834C40.354 57.3762 40.5266 56.9595 40.5266 56.525C40.5266 56.0905 40.354 55.6738 40.0467 55.3666C39.7395 55.0593 39.3228 54.8867 38.8883 54.8867C38.4538 54.8867 38.0371 55.0593 37.7298 55.3666C37.4226 55.6738 37.25 56.0905 37.25 56.525Z" fill="#283E87"/>
<path d="M42.7344 56.525C42.7344 56.9595 42.907 57.3762 43.2142 57.6834C43.5215 57.9907 43.9382 58.1633 44.3727 58.1633C44.8072 58.1633 45.2239 57.9907 45.5311 57.6834C45.8383 57.3762 46.0109 56.9595 46.0109 56.525C46.0109 56.0905 45.8383 55.6738 45.5311 55.3666C45.2239 55.0593 44.8072 54.8867 44.3727 54.8867C43.9382 54.8867 43.5215 55.0593 43.2142 55.3666C42.907 55.6738 42.7344 56.0905 42.7344 56.525Z" fill="#283E87"/>
<path d="M48.1875 56.525C48.1875 56.9595 48.3601 57.3762 48.6673 57.6834C48.9746 57.9907 49.3913 58.1633 49.8258 58.1633C50.2603 58.1633 50.677 57.9907 50.9842 57.6834C51.2915 57.3762 51.4641 56.9595 51.4641 56.525C51.4641 56.0905 51.2915 55.6738 50.9842 55.3666C50.677 55.0593 50.2603 54.8867 49.8258 54.8867C49.3913 54.8867 48.9746 55.0593 48.6673 55.3666C48.3601 55.6738 48.1875 56.0905 48.1875 56.525Z" fill="#283E87"/>
<defs>
<filter id="filter0_d_1_9292" x="0.382812" y="0.800781" width="309.613" height="113.685" filterUnits="userSpaceOnUse" color-interpolation-filters="sRGB">
<feFlood flood-opacity="0" result="BackgroundImageFix"/>
<feColorMatrix in="SourceAlpha" type="matrix" values="0 0 0 0 0 0 0 0 0 0 0 0 0 0 0 0 0 0 127 0" result="hardAlpha"/>
<feMorphology radius="3" operator="dilate" in="SourceAlpha" result="effect1_dropShadow_1_9292"/>
<feOffset/>
<feGaussianBlur stdDeviation="2"/>
<feComposite in2="hardAlpha" operator="out"/>
<feColorMatrix type="matrix" values="0 0 0 0 0 0 0 0 0 0 0 0 0 0 0 0 0 0 0.15 0"/>
<feBlend mode="normal" in2="BackgroundImageFix" result="effect1_dropShadow_1_9292"/>
<feBlend mode="normal" in="SourceGraphic" in2="effect1_dropShadow_1_9292" result="shape"/>
</filter>
</defs>
</svg>
