<svg width="7" height="17" viewBox="0 0 7 17" fill="none" xmlns="http://www.w3.org/2000/svg">
<g clip-path="url(#clip0_1_2803)">
<path d="M5.72734 9.46704C5.72734 9.54171 5.70068 9.60571 5.64734 9.65904L1.47134 13.835C1.41801 13.8884 1.35401 13.915 1.27934 13.915C1.20468 13.915 1.13534 13.8884 1.07134 13.835L0.623344 13.387C0.559344 13.323 0.527344 13.2537 0.527344 13.179C0.527344 13.1044 0.559344 13.035 0.623344 12.971L4.12734 9.46704L0.623344 5.94704C0.559344 5.89371 0.527344 5.82971 0.527344 5.75504C0.527344 5.68037 0.559344 5.61104 0.623344 5.54704L1.07134 5.09904C1.12468 5.03504 1.19401 5.00304 1.27934 5.00304C1.36468 5.00304 1.42868 5.03504 1.47134 5.09904L5.64734 9.25904C5.70068 9.31237 5.72734 9.38171 5.72734 9.46704Z" fill="black"/>
</g>
<defs>
<clipPath id="clip0_1_2803">
<rect width="5.72" height="16" fill="white" transform="matrix(1 0 0 -1 0.523438 16.8906)"/>
</clipPath>
</defs>
</svg>
