<svg width="531" height="342" viewBox="0 0 531 342" fill="none" xmlns="http://www.w3.org/2000/svg">
<path d="M477.793 315.09H442.619V315.32H477.793V315.09Z" fill="#EBEBEB"/>
<path d="M351.756 317.585H342.527V317.814H351.756V317.585Z" fill="#EBEBEB"/>
<path d="M441.559 306.577H421.18V306.806H441.559V306.577Z" fill="#EBEBEB"/>
<path d="M101.581 308.118H55.7129V308.347H101.581V308.118Z" fill="#EBEBEB"/>
<path d="M117.765 308.118H111.043V308.347H117.765V308.118Z" fill="#EBEBEB"/>
<path d="M239.109 311.989H139.621V312.219H239.109V311.989Z" fill="#EBEBEB"/>
<path d="M253.181 259.418H48.1089C46.5007 259.418 44.9583 258.866 43.821 257.884C42.6838 256.901 42.0449 255.569 42.0449 254.18V5.19202C42.0589 3.81081 42.704 2.49029 43.8397 1.51789C44.9754 0.545495 46.5098 -5.29531e-05 48.1089 3.85508e-09H253.181C253.977 3.85508e-09 254.766 0.135481 255.502 0.39871C256.237 0.661938 256.906 1.04776 257.469 1.53414C258.032 2.02053 258.479 2.59795 258.784 3.23344C259.088 3.86893 259.245 4.55004 259.245 5.23789V254.18C259.245 254.868 259.088 255.549 258.784 256.184C258.479 256.82 258.032 257.397 257.469 257.884C256.906 258.37 256.237 258.756 255.502 259.019C254.766 259.282 253.977 259.418 253.181 259.418ZM48.1089 0.183464C46.5719 0.185889 45.0987 0.714353 44.0119 1.65312C42.925 2.59188 42.3132 3.86442 42.3104 5.19202V254.18C42.3132 255.507 42.925 256.78 44.0119 257.719C45.0987 258.658 46.5719 259.186 48.1089 259.188H253.181C254.718 259.186 256.191 258.658 257.278 257.719C258.365 256.78 258.977 255.507 258.98 254.18V5.19202C258.977 3.86442 258.365 2.59188 257.278 1.65312C256.191 0.714353 254.718 0.185889 253.181 0.183464H48.1089Z" fill="#EBEBEB"/>
<path d="M482.89 259.418H277.818C276.21 259.418 274.667 258.866 273.53 257.884C272.393 256.901 271.754 255.569 271.754 254.18V5.19202C271.768 3.81081 272.413 2.49029 273.549 1.51789C274.684 0.545495 276.219 -5.29531e-05 277.818 3.85508e-09H482.89C484.498 3.85509e-09 486.041 0.551848 487.178 1.53414C488.315 2.51644 488.954 3.84871 488.954 5.23789V254.18C488.954 255.569 488.315 256.901 487.178 257.884C486.041 258.866 484.498 259.418 482.89 259.418ZM277.818 0.183464C276.281 0.185889 274.808 0.714353 273.721 1.65312C272.634 2.59188 272.022 3.86442 272.019 5.19202V254.18C272.022 255.507 272.634 256.78 273.721 257.719C274.808 258.658 276.281 259.186 277.818 259.188H482.89C484.427 259.186 485.9 258.658 486.987 257.719C488.074 256.78 488.686 255.507 488.689 254.18V5.19202C488.686 3.86442 488.074 2.59188 486.987 1.65312C485.9 0.714353 484.427 0.185889 482.89 0.183464H277.818Z" fill="#EBEBEB"/>
<path d="M531 300.33H0V300.56H531V300.33Z" fill="#EBEBEB"/>
<path d="M216.552 15.0166H140.885V236.742H216.552V15.0166Z" fill="#FAFAFA"/>
<path opacity="0.1" d="M216.404 15.0166H140.736V236.742H216.404V15.0166Z" fill="white"/>
<g opacity="0.3">
<path d="M209.012 15.0171H184.883L158.492 236.742H182.61L209.012 15.0171Z" fill="white"/>
</g>
<path d="M217.2 12.21H140.258V17.8331H217.2V12.21Z" fill="#E0E0E0"/>
<path d="M217.2 234.806H140.258V240.429H217.2V234.806Z" fill="#EBEBEB"/>
<path d="M220.185 245.227H136.775V6.72412H220.185V245.227ZM143.137 239.723H213.823V12.228H143.137V239.723Z" fill="#EBEBEB"/>
<path d="M134.13 15.0166H58.4629V236.742H134.13V15.0166Z" fill="#FAFAFA"/>
<path d="M122.724 108.914H64.1543V151.367H122.724V108.914Z" fill="#E6E6E6"/>
<path d="M75.402 114.206H67.9043V120.682H75.402V114.206Z" fill="#FAFAFA"/>
<path d="M89.9294 114.206H82.4316V120.682H89.9294V114.206Z" fill="#FAFAFA"/>
<path d="M104.459 114.206H96.9609V120.682H104.459V114.206Z" fill="#FAFAFA"/>
<path d="M118.976 114.206H111.479V120.682H118.976V114.206Z" fill="#FAFAFA"/>
<path d="M75.402 125.975H67.9043V132.451H75.402V125.975Z" fill="#FAFAFA"/>
<path d="M89.9294 125.975H82.4316V132.451H89.9294V125.975Z" fill="#FAFAFA"/>
<path d="M104.459 125.975H96.9609V132.451H104.459V125.975Z" fill="#FAFAFA"/>
<path d="M118.976 125.975H111.479V132.451H118.976V125.975Z" fill="#E6E6E6"/>
<path d="M75.402 137.735H67.9043V144.212H75.402V137.735Z" fill="#E6E6E6"/>
<path d="M89.9294 137.735H82.4316V144.212H89.9294V137.735Z" fill="#E6E6E6"/>
<path d="M104.459 137.735H96.9609V144.212H104.459V137.735Z" fill="#FAFAFA"/>
<path d="M118.976 137.735H111.479V144.212H118.976V137.735Z" fill="#E6E6E6"/>
<path d="M122.724 150.835H64.1543V193.288H122.724V150.835Z" fill="#E6E6E6"/>
<path d="M75.402 156.118H67.9043V162.594H75.402V156.118Z" fill="#FAFAFA"/>
<path d="M89.9294 156.118H82.4316V162.594H89.9294V156.118Z" fill="#FAFAFA"/>
<path d="M104.459 156.118H96.9609V162.594H104.459V156.118Z" fill="#FAFAFA"/>
<path d="M118.976 156.118H111.479V162.594H118.976V156.118Z" fill="#FAFAFA"/>
<path d="M75.402 167.888H67.9043V174.364H75.402V167.888Z" fill="#FAFAFA"/>
<path d="M89.9294 167.888H82.4316V174.364H89.9294V167.888Z" fill="#FAFAFA"/>
<path d="M104.459 167.888H96.9609V174.364H104.459V167.888Z" fill="#FAFAFA"/>
<path d="M118.976 167.888H111.479V174.364H118.976V167.888Z" fill="#E6E6E6"/>
<path d="M75.402 179.657H67.9043V186.133H75.402V179.657Z" fill="#E6E6E6"/>
<path d="M89.9294 179.657H82.4316V186.133H89.9294V179.657Z" fill="#E6E6E6"/>
<path d="M104.459 179.657H96.9609V186.133H104.459V179.657Z" fill="#FAFAFA"/>
<path d="M118.976 179.657H111.479V186.133H118.976V179.657Z" fill="#E6E6E6"/>
<path d="M122.724 192.747H64.1543V235.201H122.724V192.747Z" fill="#E6E6E6"/>
<path d="M75.402 198.04H67.9043V204.516H75.402V198.04Z" fill="#FAFAFA"/>
<path d="M89.9294 198.04H82.4316V204.516H89.9294V198.04Z" fill="#FAFAFA"/>
<path d="M104.459 198.04H96.9609V204.516H104.459V198.04Z" fill="#FAFAFA"/>
<path d="M118.976 198.04H111.479V204.516H118.976V198.04Z" fill="#FAFAFA"/>
<path d="M75.402 209.81H67.9043V216.286H75.402V209.81Z" fill="#FAFAFA"/>
<path d="M89.9294 209.81H82.4316V216.286H89.9294V209.81Z" fill="#FAFAFA"/>
<path d="M104.459 209.81H96.9609V216.286H104.459V209.81Z" fill="#FAFAFA"/>
<path d="M118.976 209.81H111.479V216.286H118.976V209.81Z" fill="#E6E6E6"/>
<path d="M75.402 221.578H67.9043V228.054H75.402V221.578Z" fill="#E6E6E6"/>
<path d="M89.9294 221.578H82.4316V228.054H89.9294V221.578Z" fill="#E6E6E6"/>
<path d="M104.459 221.578H96.9609V228.054H104.459V221.578Z" fill="#FAFAFA"/>
<path d="M118.976 221.578H111.479V228.054H118.976V221.578Z" fill="#E6E6E6"/>
<path opacity="0.1" d="M133.132 15.0166H57.4648V236.742H133.132V15.0166Z" fill="white"/>
<g opacity="0.3">
<path d="M126.59 15.0166H102.461L76.0703 236.742H100.188L126.59 15.0166Z" fill="white"/>
</g>
<path d="M134.778 12.21H57.8359V17.8331H134.778V12.21Z" fill="#E0E0E0"/>
<path d="M134.778 234.806H57.8359V240.429H134.778V234.806Z" fill="#EBEBEB"/>
<path d="M137.763 245.227H54.3535V6.72412H137.763V245.227ZM60.7149 239.723H131.402V12.228H60.7149V239.723Z" fill="#EBEBEB"/>
<path d="M251.024 274.838L250.175 274.93C250.175 274.553 244.96 237.237 255.612 206.745C266.232 176.474 258.904 157.118 258.798 156.935L259.616 156.696C259.69 156.889 267.05 176.428 256.43 206.956C245.831 237.301 250.971 274.471 251.024 274.838Z" fill="#E0E0E0"/>
<path d="M260.349 161.09C258.494 159.182 255.977 157.84 253.17 157.265L253.372 156.54C256.358 157.153 259.036 158.581 261.007 160.613L260.349 161.09Z" fill="#E0E0E0"/>
<path d="M263.997 164.175L261.547 165.371L261.97 166.018L264.42 164.822L263.997 164.175Z" fill="#E0E0E0"/>
<path d="M259.426 181.381C257.289 177.175 253.333 173.857 248.402 172.135L248.721 171.456C253.849 173.251 257.964 176.703 260.191 181.079L259.426 181.381Z" fill="#E0E0E0"/>
<path d="M257.131 204.691H256.271C256.243 203.19 255.83 201.713 255.063 200.367C254.295 199.02 253.192 197.837 251.832 196.903L252.363 196.325C253.823 197.329 255.008 198.6 255.832 200.046C256.657 201.493 257.1 203.079 257.131 204.691Z" fill="#E0E0E0"/>
<path d="M255.219 210.653L254.412 210.387C254.853 209.441 255.514 208.583 256.354 207.867C257.195 207.151 258.196 206.591 259.297 206.223L259.595 206.92C258.607 207.249 257.709 207.75 256.956 208.392C256.203 209.035 255.612 209.804 255.219 210.653Z" fill="#E0E0E0"/>
<path d="M249.665 248.474L248.996 248.006C250.058 246.914 250.833 242.777 251.258 240.557C251.354 240.025 251.439 239.576 251.513 239.246L252.363 239.383C252.288 239.704 252.203 240.154 252.097 240.677C251.471 244.006 250.759 247.327 249.665 248.474Z" fill="#E0E0E0"/>
<path d="M249.167 260.354C248.569 258.9 247.456 257.646 245.986 256.77C244.516 255.894 242.764 255.44 240.979 255.473V254.73C242.953 254.69 244.891 255.189 246.517 256.158C248.142 257.127 249.371 258.515 250.027 260.124L249.167 260.354Z" fill="#E0E0E0"/>
<path d="M255.716 268.114L249.672 273.955L250.313 274.45L256.357 268.609L255.716 268.114Z" fill="#E0E0E0"/>
<path d="M259.988 230.018C261.358 233.843 251.81 241.136 251.81 241.136C251.81 241.136 239.162 239.769 237.792 235.934C236.422 232.1 239.629 225.844 245.757 224.211C251.885 222.578 258.618 226.193 259.988 230.018Z" fill="#F0F0F0"/>
<path d="M270.587 183.565C269.376 187.629 260.328 190.518 260.328 190.518C260.328 190.518 254.02 184.216 255.231 180.152C256.441 176.089 261.443 171.603 265.681 172.548C269.918 173.493 271.798 179.501 270.587 183.565Z" fill="#EBEBEB"/>
<path d="M234.298 244.31C239.969 246.227 243.453 254.896 243.453 254.896C243.453 254.896 234.097 259.253 228.415 257.345C222.733 255.437 216.733 250.006 218.347 246.456C219.961 242.906 228.617 242.402 234.298 244.31Z" fill="#F5F5F5"/>
<path d="M246.745 196.582C247.891 197.416 249.205 198.059 250.622 198.481C251.336 198.678 252.098 198.703 252.828 198.555C253.558 198.406 254.227 198.089 254.763 197.637C255.985 196.426 255.656 194.554 254.891 193.096C253.372 190.206 247.775 185.308 243.474 186.675C237.272 188.739 243.974 194.811 246.745 196.582Z" fill="#E6E6E6"/>
<path d="M259.446 203.947C258.628 204.819 257.768 205.91 258.214 206.965C258.466 207.413 258.884 207.775 259.402 207.994C259.919 208.213 260.506 208.277 261.071 208.176C262.193 207.95 263.242 207.508 264.14 206.883C266.328 205.562 270.82 202.81 267.952 200.232C265.085 197.654 261.156 202.103 259.446 203.947Z" fill="#EBEBEB"/>
<path d="M241.073 167.254C240.601 167.276 240.15 167.426 239.783 167.683C239.417 167.94 239.154 168.291 239.034 168.685C238.843 169.603 239.745 170.447 240.616 171.025C242.74 172.474 249.324 176.382 250.79 172.612C252.213 169.052 244.004 166.952 241.073 167.254Z" fill="#E0E0E0"/>
<path d="M253.171 154.853C251.822 154.963 250.473 154.541 249.124 154.615C247.776 154.688 246.268 155.624 246.576 156.77C246.884 157.917 248.37 158.174 249.613 158.247C251.747 158.357 253.889 158.228 255.985 157.862C256.482 157.821 256.944 157.622 257.281 157.302C257.822 156.605 256.951 155.669 256.017 155.468C255.054 155.361 254.108 155.167 253.192 154.89L253.171 154.853Z" fill="#E6E6E6"/>
<path d="M266.351 162.87C267.71 162.87 269.016 162.402 270.376 162.402C271.735 162.402 273.296 163.246 273.084 164.402C272.871 165.557 271.395 165.915 270.153 166.053C268.038 166.295 265.895 166.295 263.781 166.053C263.279 166.043 262.801 165.87 262.442 165.567C261.848 164.897 262.644 163.925 263.504 163.622C264.46 163.462 265.393 163.213 266.287 162.879L266.351 162.87Z" fill="#F0F0F0"/>
<path d="M265.023 249.062C265.325 248.784 265.732 248.609 266.17 248.566C266.459 248.595 266.729 248.706 266.937 248.882C267.145 249.058 267.278 249.289 267.317 249.539C267.379 250.039 267.306 250.544 267.104 251.016C266.18 253.667 255.879 272.885 253.5 269.435C252.098 267.39 255.55 260.638 256.569 258.721C258.53 255.003 261.417 251.705 265.023 249.062Z" fill="#F0F0F0"/>
<path d="M258.852 155.578C259.515 153.932 260.66 152.462 262.176 151.312C263.811 150.294 266.424 150.22 267.592 151.624C268.919 153.193 267.592 155.578 265.563 156.412C263.535 157.247 261.167 156.99 258.937 156.724C258.937 156.44 258.937 156.155 258.937 155.871L258.852 155.578Z" fill="#E6E6E6"/>
<path d="M266.052 300.468C255.016 302.092 243.741 302.092 232.705 300.468L219.738 267.444H279.03L266.052 300.468Z" fill="#F0F0F0"/>
<path d="M467.884 124.031C467.655 124.003 467.431 123.954 467.215 123.885C462.85 122.637 456.223 116.748 450.573 108.749C444.923 100.75 441.939 92.9252 442.672 88.9899C442.756 88.318 443.062 87.6811 443.553 87.1552C443.573 87.1248 443.598 87.097 443.628 87.0727C443.78 86.9144 443.963 86.7808 444.169 86.6782C444.389 86.5658 444.624 86.4794 444.87 86.4214C445.634 86.2858 446.427 86.3431 447.154 86.5865C448.097 86.8562 448.994 87.2358 449.819 87.7148C450.435 88.0634 451.083 88.4762 451.752 88.944C452.124 89.2101 452.517 89.4944 452.91 89.7971C461.383 96.9694 467.645 105.859 471.123 115.656C471.25 116.097 471.367 116.574 471.473 116.968C471.661 117.7 471.793 118.441 471.866 119.188C471.97 120.026 471.934 120.872 471.76 121.701C471.652 122.398 471.279 123.044 470.698 123.536C470.579 123.658 470.435 123.761 470.273 123.839C470.129 123.917 469.971 123.976 469.806 124.013C469.18 124.176 468.514 124.183 467.884 124.031Z" fill="#EBEBEB"/>
<path d="M467.886 124.031L467.525 123.527L455.323 106.18C455.004 105.712 454.675 105.263 454.378 104.823L442.982 88.632C443.058 88.1174 443.253 87.6213 443.556 87.1734C443.662 87.0135 443.79 86.8656 443.938 86.7331L445.181 86.0818L448.908 84.1279L450.608 86.513L450.905 86.9441L452.063 88.6044L452.912 89.8153L471.125 115.675L471.784 116.592L473.058 118.426L473.356 118.848L475.055 121.243L470.732 123.508L469.84 123.985C469.208 124.163 468.529 124.179 467.886 124.031Z" fill="#EBEBEB"/>
<path d="M448.918 84.1089C445.243 86.0445 448.1 95.924 455.29 106.18C462.479 116.435 471.337 123.187 475.011 121.26C478.686 119.334 475.829 109.445 468.639 99.1897C461.449 88.934 452.592 82.1826 448.918 84.1089Z" fill="#EBEBEB"/>
<path d="M448.918 84.1089C445.243 86.0445 448.1 95.924 455.29 106.18C462.479 116.435 471.337 123.187 475.011 121.26C478.686 119.334 475.829 109.445 468.639 99.1897C461.449 88.934 452.592 82.1826 448.918 84.1089Z" fill="#FAFAFA"/>
<path d="M450.841 86.3386C450.607 86.4558 450.424 86.6363 450.32 86.8523C453.379 86.8523 459.793 92.7231 465.496 100.832C471.199 108.941 474.29 116.592 472.867 118.922C473.135 118.933 473.401 118.875 473.631 118.757C476.127 117.454 473.09 109.116 466.792 100.163C460.494 91.2096 453.326 85.0268 450.841 86.3386Z" fill="#EBEBEB"/>
<path opacity="0.4" d="M450.841 86.3386C450.607 86.4558 450.424 86.6363 450.32 86.8523C453.379 86.8523 459.793 92.7231 465.496 100.832C471.199 108.941 474.29 116.592 472.867 118.922C473.135 118.933 473.401 118.875 473.631 118.757C476.127 117.454 473.09 109.116 466.792 100.163C460.494 91.2096 453.326 85.0268 450.841 86.3386Z" fill="#EBEBEB"/>
<path d="M404.62 34.9867C404.568 35.1162 404.504 35.242 404.429 35.3628C402.931 37.757 397.526 40.9309 390.623 43.2701C383.72 45.6093 377.199 46.4257 374.204 45.5267C373.694 45.3938 373.238 45.1395 372.887 44.7928C372.864 44.7796 372.845 44.7604 372.834 44.7378C372.729 44.6286 372.646 44.5045 372.59 44.3709C372.531 44.2286 372.492 44.0808 372.473 43.9306C372.462 43.4692 372.602 43.0145 372.877 42.6188C373.197 42.0981 373.601 41.6194 374.077 41.197C374.454 40.8496 374.855 40.5218 375.277 40.2154C375.521 40.032 375.797 39.8393 376.084 39.6467C379.356 37.5601 382.948 35.8774 386.757 34.6473C390.51 33.3256 394.461 32.4701 398.492 32.1063L399.554 32.0513C400.148 32.0181 400.744 32.0181 401.338 32.0513C402.007 32.0902 402.665 32.2139 403.293 32.4182C403.82 32.5593 404.279 32.8461 404.599 33.2346C404.678 33.3194 404.739 33.4157 404.779 33.519C404.82 33.6132 404.845 33.7121 404.854 33.8125C404.92 34.2154 404.838 34.6261 404.62 34.9867Z" fill="#EBEBEB"/>
<path d="M404.623 34.9864L404.187 35.1423L389.149 40.1967L387.971 40.582L373.931 45.3062C373.542 45.1995 373.181 45.0281 372.869 44.8017C372.759 44.719 372.659 44.6268 372.572 44.5265L372.21 43.7192L371.148 41.3067L373.219 40.6003L373.591 40.4811L375.035 40.0041L376.097 39.6555L398.495 32.106L399.323 31.8308L400.906 31.2987L401.267 31.1795L403.391 30.4731L404.623 33.2618L404.878 33.8397C404.931 34.2354 404.842 34.6357 404.623 34.9864Z" fill="#EBEBEB"/>
<path d="M371.136 41.2794C372.198 43.6552 380.291 43.114 389.19 40.1786C398.09 37.2432 404.419 32.84 403.347 30.455C402.274 28.07 394.203 28.5653 385.293 31.5558C376.382 34.5462 370.064 38.9127 371.136 41.2794Z" fill="#EBEBEB"/>
<path d="M371.136 41.2794C372.198 43.6552 380.291 43.114 389.19 40.1786C398.09 37.2432 404.419 32.84 403.347 30.455C402.274 28.07 394.203 28.5653 385.293 31.5558C376.382 34.5462 370.064 38.9127 371.136 41.2794Z" fill="#FAFAFA"/>
<path d="M373.112 40.4445C373.179 40.5916 373.298 40.7168 373.452 40.8022C373.824 39.0226 379.176 35.9679 386.196 33.6104C393.216 31.2529 399.588 30.354 401.234 31.4639C401.293 31.312 401.293 31.148 401.234 30.9961C400.512 29.3816 393.62 30.1613 385.856 32.7757C378.093 35.39 372.39 38.83 373.112 40.4445Z" fill="#EBEBEB"/>
<path opacity="0.4" d="M373.112 40.4445C373.179 40.5916 373.298 40.7168 373.452 40.8022C373.824 39.0226 379.176 35.9679 386.196 33.6104C393.216 31.2529 399.588 30.354 401.234 31.4639C401.293 31.312 401.293 31.148 401.234 30.9961C400.512 29.3816 393.62 30.1613 385.856 32.7757C378.093 35.39 372.39 38.83 373.112 40.4445Z" fill="#EBEBEB"/>
<path d="M373.451 40.8026C375.119 41.9126 381.459 41.0319 388.5 38.6652C395.541 36.2986 400.904 33.2439 401.244 31.4643C399.598 30.3543 393.268 31.235 386.206 33.6108C379.144 35.9867 373.823 39.023 373.451 40.8026Z" fill="#FAFAFA"/>
<path d="M405.886 161.595C403.398 157.964 402.212 153.778 402.478 149.565C402.744 145.352 404.451 141.301 407.381 137.926C410.312 134.55 414.336 132.001 418.944 130.6C423.551 129.2 428.537 129.011 433.269 130.057C438.001 131.103 442.268 133.338 445.53 136.478C448.792 139.619 450.903 143.524 451.596 147.701C452.289 151.878 451.532 156.138 449.423 159.943C447.313 163.749 443.944 166.929 439.742 169.081C434.103 171.966 427.369 172.798 421.019 171.394C414.67 169.99 409.226 166.466 405.886 161.595Z" fill="#EBEBEB"/>
<path d="M403.337 162.907C400.846 159.276 399.657 155.09 399.921 150.876C400.185 146.662 401.889 142.61 404.819 139.233C407.749 135.856 411.772 133.306 416.38 131.903C420.988 130.501 425.974 130.311 430.707 131.357C435.44 132.402 439.708 134.637 442.971 137.777C446.234 140.918 448.346 144.824 449.039 149.001C449.732 153.178 448.976 157.439 446.865 161.245C444.755 165.051 441.385 168.231 437.182 170.383C431.546 173.266 424.815 174.098 418.468 172.696C412.121 171.294 406.679 167.773 403.337 162.907Z" fill="#EBEBEB"/>
<path d="M403.337 162.907C400.846 159.276 399.657 155.09 399.921 150.876C400.185 146.662 401.889 142.61 404.819 139.233C407.749 135.856 411.772 133.306 416.38 131.903C420.988 130.501 425.974 130.311 430.707 131.357C435.44 132.402 439.708 134.637 442.971 137.777C446.234 140.918 448.346 144.824 449.039 149.001C449.732 153.178 448.976 157.439 446.865 161.245C444.755 165.051 441.385 168.231 437.182 170.383C431.546 173.266 424.815 174.098 418.468 172.696C412.121 171.294 406.679 167.773 403.337 162.907Z" fill="#FAFAFA"/>
<path d="M434.009 165.769C433.42 166.076 432.806 166.346 432.171 166.576C427.798 168.237 422.847 168.36 418.37 166.918C413.894 165.476 410.245 162.583 408.199 158.853C406.153 155.124 405.872 150.852 407.415 146.946C408.958 143.041 412.204 139.809 416.463 137.938C420.721 136.067 425.657 135.704 430.22 136.927C434.783 138.149 438.615 140.861 440.9 144.485C443.185 148.11 443.743 152.361 442.456 156.335C441.169 160.31 438.139 163.694 434.009 165.769Z" fill="#EBEBEB"/>
<path d="M415.604 152.679C412.906 149.927 413.926 146.688 418.057 144.138L416.411 141.588L419.055 140.24L420.702 142.79C423.079 141.773 425.696 141.246 428.348 141.249L429.091 144.698C426.876 144.622 424.671 144.999 422.656 145.799L425.183 149.716C428.21 149.037 431.661 148.413 434.115 150.89C436.812 153.642 435.761 156.926 431.513 159.476L433.159 162.026L430.514 163.375L428.847 160.806C426.964 161.592 424.915 162.042 422.826 162.127L421.912 158.77C423.636 158.776 425.342 158.464 426.914 157.852L424.27 153.779C421.286 154.431 417.94 155.027 415.604 152.679ZM427.35 153.027L429.474 156.366C430.748 155.366 430.971 154.302 430.228 153.513C429.633 152.871 428.603 152.844 427.35 153.027ZM419.363 149.954C419.948 150.55 420.925 150.605 422.114 150.394L419.99 147.23C418.843 148.184 418.588 149.174 419.363 149.954Z" fill="#FAFAFA"/>
<path d="M455.599 45.3064C459.847 52.7367 454.718 62.3777 444.204 66.8451C433.69 71.3124 421.732 68.9091 417.495 61.4696C413.257 54.0301 418.376 44.3983 428.89 39.9309C439.404 35.4636 451.351 37.8762 455.599 45.3064Z" fill="#EBEBEB"/>
<path d="M453.908 42.3435C458.156 49.783 453.037 59.424 442.513 63.8913C431.988 68.3587 420.041 65.9461 415.814 58.5158C411.587 51.0856 416.685 41.4354 427.209 36.9772C437.734 32.519 449.681 34.9132 453.908 42.3435Z" fill="#EBEBEB"/>
<path d="M453.908 42.3435C458.156 49.783 453.037 59.424 442.513 63.8913C431.988 68.3587 420.041 65.9461 415.814 58.5158C411.587 51.0856 416.685 41.4354 427.209 36.9772C437.734 32.519 449.681 34.9132 453.908 42.3435Z" fill="#FAFAFA"/>
<path d="M449.004 44.132C449.205 44.4898 449.375 44.8567 449.535 45.1961C449.535 45.1961 449.535 45.2512 449.535 45.2787C451.606 50.6909 447.761 57.2038 440.433 60.2768C433.106 63.3499 424.811 62.1115 421.105 57.3414C421.105 57.3414 421.105 57.2772 421.052 57.2589C420.839 56.947 420.606 56.6076 420.404 56.2498C417.218 50.6909 421.073 43.4073 428.964 40.0958C436.854 36.7843 445.839 38.5731 449.004 44.132Z" fill="#EBEBEB"/>
<path d="M440.411 55.4705C439.169 58.2224 436.004 59.1397 432.223 57.8096L430.715 59.9011L428.538 58.9838L430.035 56.8831C428.252 55.953 426.772 54.6461 425.734 53.0854L428.347 51.1316C429.161 52.4644 430.356 53.595 431.82 54.4156L434.135 51.1958C432.372 49.7281 430.482 47.9852 431.607 45.4534C432.85 42.7014 436.068 41.7841 439.901 43.1784L441.41 41.0869L443.587 42.0042L442.079 44.1232C443.482 44.8655 444.673 45.8721 445.562 47.0678L443.077 49.0768C442.391 48.0673 441.442 47.2098 440.305 46.5725L437.894 49.9299C439.668 51.3701 441.484 53.0671 440.411 55.4705ZM436.089 48.4438L438.064 45.6919C436.715 45.38 435.728 45.6919 435.345 46.5083C434.963 47.3247 435.42 47.7833 436.089 48.4438ZM436.631 54.4798C436.735 54.1475 436.723 53.7959 436.597 53.4693C436.47 53.1428 436.234 52.856 435.919 52.6451L434.06 55.2503C435.335 55.5622 436.28 55.2687 436.631 54.4798Z" fill="#FAFAFA"/>
<path d="M345.714 43.5087C341.615 52.6819 326.279 54.966 312.08 47.2881C297.882 39.6101 293.506 26.6025 301.142 19.4199C307.737 13.1913 321.256 13.4848 332.11 19.3557C342.963 25.2265 349.251 35.6289 345.714 43.5087Z" fill="#EBEBEB"/>
<path d="M347.179 40.2429C343.324 48.8382 328.594 50.8288 314.862 43.4077C301.13 35.9866 296.691 23.6303 303.881 16.8054C310.115 10.9071 323.167 11.3015 333.755 17.0439C344.343 22.7863 350.524 32.7851 347.179 40.2429Z" fill="#EBEBEB"/>
<path d="M347.179 40.2429C343.324 48.8382 328.594 50.8288 314.862 43.4077C301.13 35.9866 296.691 23.6303 303.881 16.8054C310.115 10.9071 323.167 11.3015 333.755 17.0439C344.343 22.7863 350.524 32.7851 347.179 40.2429Z" fill="#FAFAFA"/>
<path d="M341.889 37.0598C341.698 37.4207 341.485 37.7729 341.251 38.1147C341.251 38.1147 341.251 38.1697 341.251 38.1972C337.364 43.3342 327.276 43.9763 318.079 39.0136C308.882 34.051 305.058 25.8776 308.659 20.5755C308.659 20.5755 308.744 20.5755 308.722 20.5021C308.975 20.1838 309.248 19.8775 309.54 19.5848C313.979 14.9982 323.909 15.1267 332.065 19.5848C340.221 24.043 344.692 31.5558 341.889 37.0598Z" fill="#EBEBEB"/>
<path d="M332.405 30.3168C334.274 32.8303 333.201 35.5364 329.76 37.4077L330.822 39.6918L328.645 40.6091L327.583 38.325C325.659 39.0229 323.562 39.288 321.487 39.0956L321.201 36.1051C322.926 36.3299 324.689 36.1656 326.319 35.6281L324.684 32.1148C322.263 32.4817 319.523 32.7661 317.813 30.4819C315.944 27.9777 317.048 25.2349 320.585 23.3636L319.523 21.0794L321.7 20.1621L322.762 22.4646C324.287 21.9304 325.929 21.6924 327.573 21.7674L327.987 24.6937C326.639 24.5736 325.278 24.7308 324.015 25.1523L325.725 28.8216C328.157 28.4363 330.78 28.152 332.405 30.3168ZM323.271 29.1885L321.88 26.1981C320.818 26.9503 320.532 27.8492 321.052 28.5739C321.487 29.161 322.284 29.2527 323.271 29.1885ZM329.219 32.3716C328.815 31.8212 328.061 31.702 327.095 31.7937L328.433 34.6374C329.495 33.9402 329.771 33.0871 329.219 32.3716Z" fill="#FAFAFA"/>
<path d="M265.499 341.252C379.221 341.252 471.41 336.603 471.41 330.868C471.41 325.133 379.221 320.484 265.499 320.484C151.777 320.484 59.5879 325.133 59.5879 330.868C59.5879 336.603 151.777 341.252 265.499 341.252Z" fill="#F5F5F5"/>
<path d="M242.497 330.978C242.046 330.979 241.599 330.903 241.182 330.755C240.766 330.606 240.387 330.388 240.068 330.113C239.749 329.837 239.497 329.51 239.325 329.15C239.153 328.79 239.065 328.404 239.066 328.015V325.052H245.927V328.015C245.927 328.801 245.566 329.554 244.922 330.11C244.279 330.665 243.406 330.978 242.497 330.978Z" fill="#263238"/>
<path d="M363.501 330.978C363.05 330.978 362.604 330.901 362.188 330.752C361.772 330.603 361.394 330.385 361.075 330.11C360.756 329.835 360.504 329.508 360.331 329.149C360.159 328.789 360.07 328.404 360.07 328.015V325.052H366.931V328.015C366.932 328.404 366.844 328.79 366.673 329.15C366.501 329.51 366.248 329.837 365.929 330.113C365.61 330.388 365.232 330.606 364.815 330.755C364.398 330.903 363.951 330.979 363.501 330.978Z" fill="#263238"/>
<path d="M425.989 330.978C425.538 330.978 425.092 330.901 424.676 330.752C424.26 330.603 423.882 330.385 423.563 330.11C423.245 329.835 422.992 329.508 422.82 329.149C422.647 328.789 422.559 328.404 422.559 328.015V325.052H429.419V328.015C429.421 328.404 429.333 328.79 429.161 329.15C428.989 329.51 428.736 329.837 428.418 330.113C428.099 330.388 427.72 330.606 427.303 330.755C426.886 330.903 426.44 330.979 425.989 330.978Z" fill="#263238"/>
<path d="M431.033 290.671H233.055V327.611H431.033V290.671Z" fill="#DA3731"/>
<path opacity="0.3" d="M431.033 290.671H233.055V327.611H431.033V290.671Z" fill="white"/>
<path opacity="0.2" d="M430.841 290.671H369.5V327.621H430.841V290.671Z" fill="black"/>
<path d="M443.224 198.728L433.517 274.14C432.87 279.433 426.795 283.525 419.435 283.708C419.258 283.717 419.081 283.717 418.904 283.708H296.53C287.928 283.708 281.163 278.424 281.917 272.297L291.613 196.884C292.271 191.462 298.622 187.298 306.237 187.298H429.174C437.542 187.555 443.914 192.728 443.224 198.728Z" fill="#DA3731"/>
<path opacity="0.5" d="M443.224 198.728L433.517 274.14C432.87 279.433 426.795 283.525 419.435 283.708C419.258 283.717 419.081 283.717 418.904 283.708H296.53C287.928 283.708 281.163 278.424 281.917 272.297L291.613 196.884C292.271 191.462 298.622 187.298 306.237 187.298H429.174C437.542 187.555 443.914 192.728 443.224 198.728Z" fill="white"/>
<path d="M449.948 198.728L440.241 274.141C439.593 279.434 433.529 283.525 426.159 283.708C417.833 283.488 411.387 278.305 412.119 272.315L421.815 196.902C422.463 191.61 428.527 187.518 435.898 187.326C444.234 187.555 450.681 192.729 449.948 198.728Z" fill="#DA3731"/>
<path opacity="0.3" d="M449.948 198.728L440.241 274.141C439.593 279.434 433.529 283.525 426.159 283.708C417.833 283.488 411.387 278.305 412.119 272.315L421.815 196.902C422.463 191.61 428.527 187.518 435.898 187.326C444.234 187.555 450.681 192.729 449.948 198.728Z" fill="white"/>
<path d="M425.425 263.225H340.231C331.673 263.225 324.736 269.217 324.736 276.608V285.194C324.736 292.586 331.673 298.578 340.231 298.578H425.425C433.982 298.578 440.919 292.586 440.919 285.194V276.608C440.919 269.217 433.982 263.225 425.425 263.225Z" fill="#DA3731"/>
<path opacity="0.3" d="M425.425 263.225H340.231C331.673 263.225 324.736 269.217 324.736 276.608V285.194C324.736 292.586 331.673 298.578 340.231 298.578H425.425C433.982 298.578 440.919 292.586 440.919 285.194V276.608C440.919 269.217 433.982 263.225 425.425 263.225Z" fill="white"/>
<path d="M370.573 263.225H237.961C229.58 263.225 222.785 269.093 222.785 276.333V285.47C222.785 292.709 229.58 298.578 237.961 298.578H370.573C378.955 298.578 385.749 292.709 385.749 285.47V276.333C385.749 269.093 378.955 263.225 370.573 263.225Z" fill="#DA3731"/>
<path opacity="0.6" d="M370.573 263.225H237.961C229.58 263.225 222.785 269.093 222.785 276.333V285.47C222.785 292.709 229.58 298.578 237.961 298.578H370.573C378.955 298.578 385.749 292.709 385.749 285.47V276.333C385.749 269.093 378.955 263.225 370.573 263.225Z" fill="white"/>
<path d="M252.437 301.055L245.364 320.649L237.219 320.19L243.187 294.331L252.437 301.055Z" fill="#FF8B7B"/>
<path d="M338.087 225.753C338.087 225.753 323.219 225.312 312.322 222.45C312.322 222.45 307.777 230.568 304.166 233.559L302.722 234.751C302.722 234.751 260.061 225.789 254.231 237.375C249.25 247.254 236.283 312.192 236.283 312.192H250.801C250.801 312.192 261.007 284.773 270.575 264.491C271.085 263.418 272.848 257.712 272.848 257.712C290.318 264.223 309.278 267.203 328.284 266.426C332.532 266.252 338.904 258.593 338.989 246.686C339.094 239.699 338.793 232.713 338.087 225.753Z" fill="#263238"/>
<path opacity="0.2" d="M306.025 259.601C294.099 254.804 277.67 241.943 270.045 237.136C268.271 235.977 266.25 235.132 264.098 234.65C270.82 233.503 279.39 233.733 286.75 234.283L304.114 241.255L332.002 252.51L335.294 261.142C333.988 265.729 330.611 266.362 327.595 266.49C315.857 266.893 304.11 265.918 292.676 263.591C294.067 263.692 317.538 264.188 306.025 259.601Z" fill="black"/>
<path d="M221.722 268.224L206.398 281.131L200.652 277.058L212.557 262.179L221.722 268.224Z" fill="#FF8B7B"/>
<path d="M201.779 275.278L208.459 279.865C208.602 279.961 208.702 280.096 208.742 280.248C208.783 280.4 208.762 280.56 208.682 280.7L205.114 287.048C204.962 287.318 204.693 287.527 204.366 287.628C204.038 287.729 203.677 287.715 203.361 287.589L203.117 287.46C200.388 285.525 198.051 283.699 194.621 281.342C190.543 278.59 191.191 279.681 186.359 276.462C183.438 274.517 185.52 271.325 186.869 272.022C193.018 275.251 195.938 274.866 199.687 274.618C200.454 274.613 201.196 274.848 201.779 275.278Z" fill="#263238"/>
<path d="M199.05 275.003C199.077 275.018 199.108 275.025 199.14 275.025C199.172 275.025 199.203 275.018 199.23 275.003C199.251 274.979 199.262 274.95 199.262 274.92C199.262 274.891 199.251 274.862 199.23 274.838C199.103 274.553 197.796 272.022 196.819 271.866C196.725 271.852 196.629 271.859 196.539 271.884C196.448 271.91 196.366 271.954 196.299 272.012C196.192 272.109 196.111 272.225 196.062 272.352C196.012 272.479 195.995 272.613 196.012 272.746C196.172 273.664 197.945 274.581 198.986 275.03L199.05 275.003ZM196.851 272.132C197.393 272.297 198.211 273.544 198.752 274.526C197.35 273.847 196.48 273.159 196.395 272.691C196.374 272.604 196.381 272.514 196.415 272.43C196.448 272.346 196.507 272.272 196.586 272.214C196.61 272.189 196.641 272.17 196.677 272.158C196.712 272.147 196.75 272.144 196.788 272.15L196.851 272.132Z" fill="#DA3731"/>
<path d="M199.049 275.003C199.08 275.007 199.112 275.003 199.14 274.991C199.169 274.98 199.192 274.961 199.209 274.938C199.816 274.225 200.146 273.365 200.154 272.48C200.122 272.337 200.058 272.201 199.965 272.08C199.872 271.959 199.752 271.855 199.612 271.774C199.499 271.692 199.356 271.646 199.209 271.646C199.061 271.646 198.918 271.692 198.805 271.774C198.157 272.26 198.497 274.223 198.911 274.957C198.929 274.972 198.951 274.985 198.975 274.993C198.998 275 199.024 275.004 199.049 275.003ZM199.294 271.957L199.432 272.049C199.538 272.107 199.628 272.183 199.698 272.273C199.768 272.363 199.814 272.465 199.835 272.572C199.835 273.285 199.587 273.981 199.124 274.572C198.784 273.728 198.678 272.287 199.049 271.994C199.082 271.975 199.121 271.965 199.161 271.965C199.201 271.965 199.239 271.975 199.272 271.994L199.294 271.957Z" fill="#DA3731"/>
<path d="M320.448 223.927C332.2 225.674 344.19 225.881 356.014 224.542C356.014 224.542 368.27 265.271 333.255 265.225C320.31 265.225 315.032 260.482 306.705 256.052C287.759 246.044 272.254 231.431 264.841 232.201C254.158 233.366 259.967 244.383 215.989 274.233L207.09 267.325C207.09 267.325 240.373 204.131 262.314 204.131C281.292 204.131 311.166 229.376 315.18 229.459C319.195 229.541 320.448 223.927 320.448 223.927Z" fill="#263238"/>
<path opacity="0.2" d="M258.852 234.549C256.165 235.549 254.136 236.934 253.17 238.861C252.41 240.62 251.869 242.443 251.556 244.3C250.292 245.814 248.816 247.493 247.053 249.346C248.508 237.035 258.852 234.549 258.852 234.549Z" fill="black"/>
<path d="M234.7 320.474C234.717 320.447 234.724 320.416 234.719 320.385C234.714 320.355 234.698 320.326 234.674 320.304C234.649 320.281 234.616 320.266 234.581 320.261C234.546 320.255 234.51 320.259 234.477 320.273C234.127 320.374 231.026 321.419 230.792 322.291C230.772 322.374 230.776 322.46 230.803 322.542C230.831 322.624 230.882 322.698 230.951 322.759C231.055 322.866 231.188 322.949 231.338 323C231.489 323.051 231.651 323.069 231.812 323.052C232.874 322.96 234.084 321.41 234.7 320.502V320.474ZM231.153 322.309C231.387 321.841 232.927 321.162 234.116 320.731C233.235 321.951 232.375 322.694 231.769 322.749C231.663 322.763 231.554 322.752 231.453 322.718C231.353 322.684 231.264 322.629 231.196 322.557C231.17 322.532 231.151 322.503 231.14 322.471C231.129 322.44 231.126 322.406 231.132 322.373L231.153 322.309Z" fill="#DA3731"/>
<path d="M234.701 320.475C234.707 320.447 234.702 320.418 234.689 320.392C234.676 320.366 234.654 320.344 234.627 320.328C233.798 319.764 232.782 319.442 231.728 319.411C231.553 319.43 231.385 319.48 231.233 319.557C231.082 319.634 230.95 319.737 230.846 319.86C230.74 319.954 230.676 320.077 230.664 320.208C230.652 320.339 230.694 320.469 230.782 320.576C231.335 321.181 233.703 320.961 234.606 320.631C234.638 320.616 234.664 320.593 234.681 320.565C234.698 320.538 234.705 320.506 234.701 320.475ZM231.059 320.117L231.186 319.998C231.257 319.905 231.351 319.826 231.461 319.767C231.571 319.709 231.695 319.672 231.823 319.658C232.679 319.688 233.505 319.941 234.191 320.383C233.129 320.649 231.43 320.686 231.101 320.328C231.077 320.298 231.064 320.263 231.064 320.227C231.064 320.191 231.077 320.156 231.101 320.126L231.059 320.117Z" fill="#DA3731"/>
<path d="M237.154 319.099L245.947 318.181C246.132 318.16 246.321 318.195 246.479 318.28C246.638 318.366 246.758 318.496 246.818 318.649L249.611 325.566C249.731 325.859 249.712 326.181 249.559 326.463C249.406 326.744 249.131 326.963 248.793 327.07C248.7 327.097 248.604 327.116 248.506 327.125C244.853 327.446 241.593 327.602 237.058 328.043C231.748 328.584 233.139 328.96 226.852 329.721C223.071 330.143 221.861 326.492 223.443 326.144C230.697 324.603 232.513 322.474 235.04 319.897C235.611 319.421 236.361 319.137 237.154 319.099Z" fill="#263238"/>
<path d="M273.697 149.202C272.338 149.028 272.2 148.138 271.488 147.11C271.488 147.11 269.364 143.001 271.063 142.395C272.784 142.234 274.516 142.179 276.246 142.23C277.447 142.298 278.591 142.697 279.509 143.369C280.427 144.042 281.07 144.951 281.343 145.964C282.851 150.44 273.697 149.202 273.697 149.202Z" fill="#FF8B7B"/>
<path d="M272.498 148.606L266.392 144.56C266.169 144.413 265.982 144.229 265.842 144.019C265.702 143.809 265.611 143.576 265.576 143.336C265.54 143.095 265.56 142.851 265.635 142.617C265.709 142.383 265.836 142.165 266.009 141.974L267.549 140.277C267.844 139.949 268.258 139.716 268.725 139.618C269.192 139.52 269.683 139.561 270.119 139.735L276.247 142.194L272.498 148.606Z" fill="#FF8B7B"/>
<path d="M276.682 148.743L282.48 159.017L289.872 157.87L279.963 144.386L276.682 148.743Z" fill="#FF8B7B"/>
<path d="M323.75 171.777L319.714 183.868L301.724 178.877C289.872 176.226 276.947 153.018 276.947 153.018L285.008 150.266L303.444 168.612L323.75 171.777Z" fill="#DA3731"/>
<path d="M313.969 205.223C315.817 209.525 316.921 217.084 309.721 226.752C309.721 226.752 337.471 230.312 357.128 229.238C358.498 222.331 355.111 207.966 362.311 185.822C362.705 184.609 362.8 183.338 362.589 182.092C362.377 180.846 361.865 179.652 361.085 178.588C360.305 177.524 359.274 176.613 358.06 175.916C356.846 175.218 355.476 174.749 354.038 174.539C352.413 174.3 350.693 174.08 348.919 173.906C342.037 173.208 336.855 172.071 330.748 172.163C328.72 172.163 326.978 171.566 324.971 171.695C320.553 171.97 315.158 179.584 312.758 186.959C310.923 193.005 311.346 199.397 313.969 205.223Z" fill="#DA3731"/>
<path opacity="0.4" d="M313.969 205.223C315.817 209.525 316.921 217.084 309.721 226.752C309.721 226.752 337.471 230.312 357.128 229.238C358.498 222.331 355.111 207.966 362.311 185.822C362.705 184.609 362.8 183.338 362.589 182.092C362.377 180.846 361.865 179.652 361.085 178.588C360.305 177.524 359.274 176.613 358.06 175.916C356.846 175.218 355.476 174.749 354.038 174.539C352.413 174.3 350.693 174.08 348.919 173.906C342.037 173.208 336.855 172.071 330.748 172.163C328.72 172.163 326.978 171.566 324.971 171.695C320.553 171.97 315.158 179.584 312.758 186.959C310.923 193.005 311.346 199.397 313.969 205.223Z" fill="white"/>
<path d="M319.915 228.559C315.301 228.477 310.786 227.388 306.789 225.395C309.965 217.65 310.802 209.334 309.221 201.232C308.382 197.004 306.895 192.738 307.671 188.5C308.945 181.519 315.922 176.529 322.411 172.209C323.622 171.401 324.971 171.933 326.479 171.695C319.395 186.097 319.395 204.682 319.915 228.559Z" fill="#DA3731"/>
<path d="M360.685 228.871C360.527 229.515 360.157 230.107 359.62 230.575C359.084 231.043 358.403 231.369 357.658 231.513C356.165 231.765 354.628 231.765 353.134 231.513C348.037 230.962 342.652 230.21 337.555 229.678C334.696 210.33 337.174 190.672 344.787 172.309C350.501 172.171 356.713 172.712 360.239 176.593C363.022 179.647 362.852 183.931 362.544 187.784C361.471 201.525 362.682 215.23 360.685 228.871Z" fill="#DA3731"/>
<path opacity="0.2" d="M346.498 197.325C347.959 190.905 350.168 184.629 353.093 178.593L353.613 182.675L355.164 184.382C352.583 191.151 365.89 202.407 350.916 218.075C350.56 218.445 350.076 218.707 349.535 218.821C348.993 218.935 348.424 218.895 347.911 218.708C341.56 216.488 334.529 209.397 334.529 209.397L337.822 202.122C342.303 203.93 345.287 202.829 346.498 197.325Z" fill="black"/>
<path d="M322.211 198.572L330.696 205.819L334.424 200.691L325.28 194.426L322.211 198.572Z" fill="#FF8B7B"/>
<path d="M322.932 202.709H297.54L294.641 174.088H320.033L322.932 202.709Z" fill="#263238"/>
<path opacity="0.5" d="M322.932 202.709H297.54L294.641 174.088H320.033L322.932 202.709Z" fill="white"/>
<path d="M322.029 202.562H296.637L293.748 173.951H319.13L322.029 202.562Z" fill="#263238"/>
<path opacity="0.8" d="M322.029 202.562H296.637L293.748 173.951H319.13L322.029 202.562Z" fill="white"/>
<path d="M311.963 175.73H301.279L300.918 172.162H311.602L311.963 175.73Z" fill="#263238"/>
<path d="M300.918 172.162L301.969 171.841H313.025L313.173 173.364L312.356 174.19L312.303 175.437L311.963 175.731L311.602 172.162H300.918Z" fill="#263238"/>
<path opacity="0.5" d="M300.918 172.162L301.969 171.841H313.025L313.173 173.364L312.356 174.19L312.303 175.437L311.963 175.731L311.602 172.162H300.918Z" fill="black"/>
<path d="M314.139 197.82L315.955 199.15C316.289 199.398 316.687 199.573 317.116 199.66C317.544 199.748 317.991 199.746 318.418 199.654L322.475 198.783C324.1 198.425 325.279 194.426 325.279 194.426C323.229 192.297 317.07 191.674 317.07 191.674C316.78 191.591 316.475 191.559 316.171 191.58C315.868 191.6 315.572 191.673 315.301 191.793C315.03 191.914 314.789 192.08 314.594 192.281C314.398 192.483 314.25 192.716 314.16 192.967L313.289 195.389C313.136 195.821 313.135 196.283 313.287 196.716C313.438 197.148 313.734 197.533 314.139 197.82Z" fill="#FF8B7B"/>
<path d="M362.63 190.802C363.532 186.574 363.692 177.96 358.499 176.355C352.456 174.474 350.842 182.354 349.546 189.463C348.25 196.572 345.691 205.48 343.716 204.562C339.616 202.728 332.416 198.655 332.416 198.655L328.072 204.471C328.072 204.471 343.227 218.423 350.119 215.166C357.893 211.516 361.483 196.187 362.63 190.802Z" fill="#DA3731"/>
<path d="M344.171 162.228C343.274 165.706 343.317 169.316 344.298 172.777C344.298 172.777 327.678 181.95 327.678 172.511C327.678 172.511 332.839 173.795 333.274 168.071C333.519 164.824 337.448 161.531 344.171 162.228Z" fill="#FF8B7B"/>
<path opacity="0.2" d="M333.276 168.071C333.722 165.071 336.929 162.017 342.749 162.145L343.131 162.448L343.545 163.108C343.545 163.108 339.797 171.364 332.639 170.346C332.962 169.614 333.176 168.849 333.276 168.071Z" fill="black"/>
<path d="M347.974 150.991C346.678 158.788 346.328 162.118 341.368 165.824C333.934 171.401 323.102 168.328 321.657 160.32C320.372 153.137 322.719 141.597 331.863 139.093C333.418 138.659 335.057 138.494 336.686 138.608C338.315 138.721 339.901 139.111 341.356 139.756C342.81 140.4 344.102 141.285 345.16 142.362C346.217 143.438 347.018 144.684 347.517 146.028C348.113 147.629 348.269 149.328 347.974 150.991Z" fill="#FF8B7B"/>
<path d="M341.963 165.31C345.027 164.85 348.004 164.029 350.81 162.87C352.095 159.384 352.551 158.283 353.55 155.109C355.387 149.229 353.9 141.79 347.358 139.57C345.096 138.799 338.097 135.249 335.58 138.368C334.933 139.157 347.762 152.275 341.963 165.31Z" fill="#263238"/>
<path d="M327.86 155.284C327.066 156.697 326.051 158.008 324.844 159.182C325.198 159.442 325.613 159.631 326.061 159.737C326.508 159.843 326.977 159.864 327.435 159.797L327.86 155.284Z" fill="#FF5652"/>
<path d="M335.92 151.358C335.981 151.353 336.04 151.334 336.09 151.303C336.128 151.277 336.159 151.246 336.183 151.21C336.207 151.174 336.222 151.135 336.228 151.094C336.234 151.053 336.231 151.011 336.218 150.972C336.205 150.932 336.183 150.895 336.154 150.862C335.753 150.388 335.226 150.005 334.619 149.743C334.011 149.481 333.339 149.349 332.66 149.358C332.566 149.369 332.48 149.41 332.419 149.473C332.359 149.536 332.327 149.615 332.33 149.697C332.338 149.778 332.383 149.854 332.454 149.907C332.526 149.96 332.619 149.987 332.713 149.982C333.274 149.981 333.828 150.095 334.328 150.315C334.829 150.535 335.261 150.855 335.591 151.248C335.629 151.289 335.68 151.322 335.738 151.341C335.796 151.36 335.859 151.366 335.92 151.358Z" fill="#263238"/>
<path d="M322.518 149.881C322.578 149.874 322.637 149.855 322.688 149.826C323.134 149.529 323.657 149.33 324.211 149.244C324.765 149.157 325.335 149.187 325.874 149.33C325.962 149.361 326.061 149.359 326.149 149.326C326.236 149.294 326.305 149.233 326.341 149.156C326.358 149.118 326.366 149.077 326.364 149.035C326.363 148.994 326.352 148.954 326.332 148.916C326.312 148.879 326.284 148.845 326.249 148.817C326.214 148.789 326.173 148.767 326.128 148.753C325.482 148.575 324.795 148.534 324.126 148.633C323.457 148.732 322.826 148.968 322.284 149.321C322.215 149.36 322.164 149.419 322.138 149.487C322.113 149.555 322.116 149.628 322.145 149.695C322.175 149.761 322.231 149.817 322.302 149.852C322.374 149.888 322.457 149.901 322.539 149.89L322.518 149.881Z" fill="#263238"/>
<path d="M333.169 154.596C333.116 155.229 332.67 155.715 332.182 155.687C331.693 155.66 331.364 155.109 331.428 154.467C331.492 153.825 331.927 153.348 332.405 153.376C332.883 153.403 333.223 153.954 333.169 154.596Z" fill="#263238"/>
<path d="M324.812 154.018C324.759 154.651 324.312 155.137 323.835 155.11C323.357 155.082 323.017 154.532 323.07 153.89C323.123 153.247 323.569 152.77 324.047 152.798C324.525 152.826 324.886 153.367 324.812 154.018Z" fill="#263238"/>
<path d="M324.258 152.844L322.527 152.275C322.527 152.275 323.324 153.541 324.258 152.844Z" fill="#263238"/>
<path d="M332.617 153.431L330.875 152.862C330.875 152.862 331.682 154.109 332.617 153.431Z" fill="#263238"/>
<path d="M332.13 160.98C332.331 160.789 332.512 160.584 332.671 160.365C332.702 160.337 332.719 160.299 332.719 160.26C332.719 160.221 332.702 160.183 332.671 160.154C332.63 160.136 332.582 160.132 332.537 160.142C332.492 160.152 332.453 160.176 332.427 160.209C332.03 160.76 331.489 161.222 330.847 161.559C330.205 161.895 329.48 162.096 328.731 162.145C328.683 162.145 328.638 162.161 328.604 162.191C328.57 162.22 328.551 162.259 328.551 162.301C328.553 162.341 328.574 162.378 328.607 162.405C328.641 162.433 328.685 162.448 328.731 162.448C329.382 162.409 330.017 162.259 330.6 162.007C331.184 161.755 331.704 161.406 332.13 160.98Z" fill="#263238"/>
<path d="M349.534 157.339C349.22 158.042 348.748 158.685 348.145 159.23C347.541 159.775 346.819 160.211 346.019 160.513C343.895 161.311 342.482 159.724 342.833 157.825C343.13 156.128 344.617 153.66 346.9 153.66C347.699 153.684 348.455 153.98 349.002 154.484C349.549 154.987 349.844 155.658 349.821 156.348C349.8 156.691 349.703 157.027 349.534 157.339Z" fill="#FF8B7B"/>
<path d="M330.906 137.497C328.195 137.985 325.797 139.341 324.194 141.292C322.591 143.243 321.901 145.646 322.262 148.018C323.77 148.229 325.288 148.614 326.796 148.816C326.591 148.106 326.58 147.363 326.764 146.649C326.949 145.934 327.323 145.266 327.858 144.698C327.548 146.193 327.658 147.731 328.177 149.183C329.313 149.293 330.758 149.321 331.894 149.431C331.894 147.853 331.99 146.963 332 145.386C332.765 146.954 333.625 148.514 334.4 150.091C335.653 150.065 336.885 150.365 337.937 150.954C337.565 149.422 337.183 147.734 336.811 146.202C338.995 148.509 340.192 151.395 340.199 154.375C341.263 152.792 341.881 151.014 342.003 149.187C342.125 147.359 341.747 145.532 340.9 143.854C339.179 140.524 335.048 136.754 330.906 137.497Z" fill="#263238"/>
<path d="M343.545 170.887C339.787 173.159 335.844 175.191 331.746 176.969C332.107 179.061 333.509 182.115 335.633 183.556C342.281 179.235 344.32 176.712 346.253 172.309C345.977 171.144 344.692 170.218 343.545 170.887Z" fill="#DA3731"/>
<path opacity="0.7" d="M343.545 170.887C339.787 173.159 335.844 175.191 331.746 176.969C332.107 179.061 333.509 182.115 335.633 183.556C342.281 179.235 344.32 176.712 346.253 172.309C345.977 171.144 344.692 170.218 343.545 170.887Z" fill="white"/>
<path d="M326.638 171.814C324.439 175.025 324.822 178.832 326.585 182.244C328.231 180.41 330.217 178.878 331.895 177.043C329.484 175.208 330.11 173.667 330.503 171.934C329.306 171.564 328.019 171.466 326.765 171.649L326.563 172.09C326.712 172.053 326.457 171.851 326.638 171.814Z" fill="#DA3731"/>
<path opacity="0.7" d="M326.638 171.814C324.439 175.025 324.822 178.832 326.585 182.244C328.231 180.41 330.217 178.878 331.895 177.043C329.484 175.208 330.11 173.667 330.503 171.934C329.306 171.564 328.019 171.466 326.765 171.649L326.563 172.09C326.712 172.053 326.457 171.851 326.638 171.814Z" fill="white"/>
<path d="M381.853 124.902H358.255C358.095 116.932 354.317 109.336 347.735 103.748C341.153 98.1612 332.294 95.0304 323.066 95.0304C313.837 95.0304 304.978 98.1612 298.396 103.748C291.815 109.336 288.037 116.932 287.876 124.902H264.279C264.174 118.177 265.617 111.5 268.525 105.26C271.432 99.02 275.746 93.3411 281.215 88.5531C286.684 83.765 293.2 79.9631 300.385 77.3682C307.569 74.7733 315.279 73.437 323.066 73.437C330.853 73.437 338.563 74.7733 345.747 77.3682C352.931 79.9631 359.447 83.765 364.917 88.5531C370.386 93.3411 374.699 99.02 377.607 105.26C380.514 111.5 381.957 118.177 381.853 124.902Z" fill="#DA3731"/>
<path d="M353.53 109.711L373.984 99.5105C368.815 91.7958 361.397 85.385 352.468 80.9165L340.658 98.5841C346.003 101.255 350.442 105.092 353.53 109.711Z" fill="#DA3731"/>
<path opacity="0.8" d="M272.149 99.5107C266.979 107.227 264.264 115.987 264.279 124.902H287.877C287.868 119.568 289.495 114.326 292.592 109.711L272.149 99.5107Z" fill="white"/>
<path opacity="0.2" d="M358.255 124.902H381.853C381.868 115.987 379.153 107.227 373.983 99.5107L353.529 109.711C356.634 114.324 358.265 119.566 358.255 124.902Z" fill="black"/>
<path opacity="0.6" d="M305.474 98.5841L293.665 80.9165C284.736 85.385 277.317 91.7958 272.148 99.5105L292.592 109.711C295.686 105.093 300.128 101.257 305.474 98.5841Z" fill="white"/>
<path opacity="0.4" d="M323.062 94.4837V74.1192C312.741 74.1077 302.6 76.4527 293.666 80.9165L305.475 98.5841C310.817 95.9022 316.884 94.4876 323.062 94.4837Z" fill="white"/>
<path opacity="0.2" d="M340.658 98.5841L352.467 80.9165C343.53 76.4516 333.385 74.1066 323.061 74.1192V94.4837C329.242 94.486 335.313 95.9006 340.658 98.5841Z" fill="white"/>
<path d="M323.061 122.352L353.296 93.7959L356.078 95.9057L327.595 126.269L323.061 122.352Z" fill="#263238"/>
<path d="M328.498 126.27C328.5 127.199 328.183 128.108 327.587 128.881C326.99 129.655 326.142 130.258 325.149 130.615C324.155 130.972 323.062 131.066 322.006 130.886C320.951 130.706 319.981 130.259 319.219 129.603C318.458 128.947 317.939 128.11 317.728 127.198C317.518 126.287 317.625 125.342 318.036 124.483C318.447 123.625 319.144 122.891 320.038 122.374C320.933 121.858 321.985 121.582 323.06 121.582C324.501 121.582 325.882 122.076 326.902 122.954C327.921 123.833 328.495 125.025 328.498 126.27Z" fill="#263238"/>
<path d="M171.545 327.647C185.633 327.029 196.472 316.663 195.756 304.494C195.04 292.326 183.039 282.963 168.952 283.581C154.864 284.2 144.024 294.566 144.74 306.734C145.456 318.903 157.457 328.266 171.545 327.647Z" fill="#DA3731"/>
<path d="M198.861 304.551C199.066 308.896 197.775 313.196 195.154 316.909C192.532 320.622 188.695 323.581 184.129 325.412C179.562 327.244 174.47 327.866 169.494 327.201C164.518 326.535 159.882 324.612 156.171 321.673C152.46 318.734 149.839 314.912 148.64 310.688C147.441 306.464 147.717 302.028 149.433 297.94C151.149 293.851 154.229 290.293 158.284 287.715C162.338 285.137 167.186 283.653 172.216 283.452C175.571 283.318 178.925 283.758 182.083 284.747C185.241 285.736 188.141 287.255 190.617 289.216C193.094 291.176 195.097 293.541 196.512 296.172C197.926 298.804 198.725 301.651 198.861 304.551Z" fill="#DA3731"/>
<path opacity="0.4" d="M198.861 304.551C199.066 308.896 197.775 313.196 195.154 316.909C192.532 320.622 188.695 323.581 184.129 325.412C179.562 327.244 174.47 327.866 169.494 327.201C164.518 326.535 159.882 324.612 156.171 321.673C152.46 318.734 149.839 314.912 148.64 310.688C147.441 306.464 147.717 302.028 149.433 297.94C151.149 293.851 154.229 290.293 158.284 287.715C162.338 285.137 167.186 283.653 172.216 283.452C175.571 283.318 178.925 283.758 182.083 284.747C185.241 285.736 188.141 287.255 190.617 289.216C193.094 291.176 195.097 293.541 196.512 296.172C197.926 298.804 198.725 301.651 198.861 304.551Z" fill="white"/>
<path d="M192.445 304.752C192.605 308.014 191.643 311.243 189.679 314.032C187.715 316.821 184.838 319.045 181.411 320.422C177.985 321.799 174.163 322.268 170.428 321.77C166.693 321.271 163.213 319.828 160.427 317.622C157.642 315.416 155.676 312.546 154.778 309.375C153.88 306.204 154.09 302.874 155.382 299.807C156.674 296.739 158.99 294.071 162.037 292.14C165.084 290.208 168.725 289.1 172.501 288.956C175.012 288.86 177.52 289.193 179.882 289.935C182.244 290.677 184.413 291.814 186.266 293.282C188.118 294.749 189.617 296.517 190.678 298.485C191.738 300.454 192.339 302.583 192.445 304.752Z" fill="#DA3731"/>
<g opacity="0.3">
<path d="M181.911 308.669C182.835 312.293 180.063 314.843 174.859 315.421L174.923 318.448L171.737 318.567L171.673 315.549C168.932 315.469 166.249 314.841 163.836 313.715L165.1 310.256C167.081 311.259 169.307 311.843 171.599 311.963L171.493 307.321C168.307 306.67 164.855 305.789 164.059 302.496C163.124 298.882 165.96 296.295 171.27 295.763L171.206 292.745L174.392 292.625L174.467 295.671C176.628 295.74 178.75 296.193 180.7 297.001L179.638 300.441C178.066 299.717 176.33 299.298 174.552 299.212L174.668 304.046C177.716 304.679 181.115 305.541 181.911 308.669ZM171.397 303.413L171.323 299.46C169.581 299.826 168.785 300.707 169.018 301.744C169.231 302.588 170.155 303.046 171.397 303.413ZM176.952 309.578C176.75 308.789 175.89 308.321 174.69 308.009L174.785 311.77C176.431 311.403 177.217 310.614 176.952 309.578Z" fill="white"/>
</g>
<path d="M106.105 324.154C105.935 327.575 118.478 330.813 134.121 331.382C149.764 331.951 162.582 329.648 162.795 326.227C163.007 322.805 150.412 319.567 134.779 318.989C119.147 318.411 106.275 320.732 106.105 324.154Z" fill="#DA3731"/>
<path d="M106.44 316.996L106.152 323.197L162.842 325.156L163.129 318.955L106.44 316.996Z" fill="#DA3731"/>
<path d="M106.414 317.953C106.244 321.375 118.786 324.613 134.429 325.191C150.073 325.769 162.891 323.457 163.103 320.035C163.316 316.614 150.731 313.366 135.088 312.798C119.445 312.229 106.584 314.531 106.414 317.953Z" fill="#DA3731"/>
<path opacity="0.4" d="M106.414 317.953C106.244 321.375 118.786 324.613 134.429 325.191C150.073 325.769 162.891 323.457 163.103 320.035C163.316 316.614 150.731 313.366 135.088 312.798C119.445 312.229 106.584 314.531 106.414 317.953Z" fill="white"/>
<path d="M110.024 317.842C110.016 318.066 110.103 318.285 110.268 318.457C112.159 316.448 122.513 315.264 134.885 315.705C147.258 316.145 157.495 318.099 159.152 320.236C159.334 320.079 159.443 319.871 159.46 319.649C159.566 317.328 148.606 315.008 134.949 314.512C121.292 314.017 110.141 315.558 110.024 317.842Z" fill="#DA3731"/>
<path opacity="0.4" d="M110.024 317.842C110.016 318.066 110.103 318.285 110.268 318.457C112.159 316.448 122.513 315.264 134.885 315.705C147.258 316.145 157.495 318.099 159.152 320.236C159.334 320.079 159.443 319.871 159.46 319.649C159.566 317.328 148.606 315.008 134.949 314.512C121.292 314.017 110.141 315.558 110.024 317.842Z" fill="#DA3731"/>
<path opacity="0.4" d="M110.268 318.457C111.956 320.604 122.151 322.539 134.534 322.989C146.917 323.438 157.293 322.264 159.151 320.237C157.495 318.1 147.3 316.164 134.885 315.705C122.47 315.247 112.158 316.476 110.268 318.457Z" fill="#DA3731"/>
<path d="M100.158 314.769C99.988 318.191 112.53 321.429 128.174 322.007C143.817 322.585 156.625 320.264 156.794 316.843C156.964 313.421 144.422 310.183 128.779 309.605C113.136 309.027 100.328 311.348 100.158 314.769Z" fill="#DA3731"/>
<path d="M100.463 308.574L100.158 314.769L156.807 316.846L157.112 310.65L100.463 308.574Z" fill="#DA3731"/>
<path d="M100.455 308.568C100.285 311.99 112.838 315.228 128.481 315.806C144.124 316.384 156.932 314.072 157.155 310.651C157.378 307.229 144.783 303.982 129.139 303.413C113.496 302.844 100.625 305.147 100.455 308.568Z" fill="#DA3731"/>
<path opacity="0.4" d="M100.455 308.568C100.285 311.99 112.838 315.228 128.481 315.806C144.124 316.384 156.932 314.072 157.155 310.651C157.378 307.229 144.783 303.982 129.139 303.413C113.496 302.844 100.625 305.147 100.455 308.568Z" fill="white"/>
<path d="M104.077 308.458C104.066 308.681 104.149 308.899 104.311 309.073C106.212 307.064 116.566 305.881 128.939 306.321C141.311 306.761 151.549 308.715 153.205 310.862C153.385 310.701 153.491 310.489 153.503 310.265C153.619 307.954 142.66 305.624 129.002 305.128C115.345 304.633 104.183 306.147 104.077 308.458Z" fill="#DA3731"/>
<path opacity="0.4" d="M104.077 308.458C104.066 308.681 104.149 308.899 104.311 309.073C106.212 307.064 116.566 305.881 128.939 306.321C141.311 306.761 151.549 308.715 153.205 310.862C153.385 310.701 153.491 310.489 153.503 310.265C153.619 307.954 142.66 305.624 129.002 305.128C115.345 304.633 104.183 306.147 104.077 308.458Z" fill="#DA3731"/>
<path opacity="0.4" d="M104.311 309.073C105.999 311.219 116.205 313.155 128.577 313.604C140.95 314.054 151.347 312.88 153.205 310.852C151.548 308.706 141.353 306.77 128.938 306.312C116.524 305.853 106.201 307.064 104.311 309.073Z" fill="#DA3731"/>
<path d="M100.89 303.459C100.72 306.89 113.273 310.128 128.906 310.697C144.539 311.266 157.368 308.963 157.58 305.542C157.792 302.12 145.208 298.882 129.564 298.304C113.921 297.726 101.092 300.038 100.89 303.459Z" fill="#DA3731"/>
<path d="M101.23 297.27L100.926 303.466L157.575 305.542L157.879 299.347L101.23 297.27Z" fill="#DA3731"/>
<path d="M101.23 297.267C101.06 300.689 113.603 303.927 129.246 304.505C144.889 305.083 157.707 302.771 157.92 299.34C158.132 295.909 145.537 292.68 129.894 292.112C114.25 291.543 101.4 293.845 101.23 297.267Z" fill="#DA3731"/>
<path opacity="0.4" d="M101.23 297.267C101.06 300.689 113.603 303.927 129.246 304.505C144.889 305.083 157.707 302.771 157.92 299.34C158.132 295.909 145.537 292.68 129.894 292.112C114.25 291.543 101.4 293.845 101.23 297.267Z" fill="white"/>
<path d="M104.842 297.157C104.834 297.381 104.921 297.599 105.087 297.772C106.977 295.754 117.331 294.579 129.714 295.02C142.097 295.46 152.324 297.414 153.981 299.551C154.159 299.393 154.264 299.184 154.278 298.964C154.395 296.643 143.425 294.322 129.767 293.818C116.11 293.313 104.959 294.845 104.842 297.157Z" fill="#DA3731"/>
<path opacity="0.4" d="M104.842 297.157C104.834 297.381 104.921 297.599 105.087 297.772C106.977 295.754 117.331 294.579 129.714 295.02C142.097 295.46 152.324 297.414 153.981 299.551C154.159 299.393 154.264 299.184 154.278 298.964C154.395 296.643 143.425 294.322 129.767 293.818C116.11 293.313 104.959 294.845 104.842 297.157Z" fill="#DA3731"/>
<path opacity="0.4" d="M105.139 297.771C106.827 299.909 117.033 301.844 129.405 302.303C141.778 302.762 152.164 301.578 154.033 299.551C152.376 297.414 142.171 295.478 129.766 295.02C117.362 294.561 106.976 295.753 105.139 297.771Z" fill="#DA3731"/>
<path d="M94.9763 294.084C94.8064 297.506 107.349 300.744 122.992 301.313C138.635 301.881 151.453 299.579 151.613 296.157C151.772 292.736 139.24 289.498 123.597 288.92C107.954 288.342 95.1462 290.653 94.9763 294.084Z" fill="#DA3731"/>
<path d="M95.2731 287.86L94.9688 294.056L151.607 296.132L151.912 289.936L95.2731 287.86Z" fill="#DA3731"/>
<path d="M95.2849 287.883C95.115 291.305 107.657 294.543 123.3 295.121C138.944 295.699 151.751 293.387 151.974 289.956C152.197 286.526 139.602 283.297 123.959 282.728C108.316 282.159 95.4442 284.462 95.2849 287.883Z" fill="#DA3731"/>
<path opacity="0.4" d="M95.2849 287.883C95.115 291.305 107.657 294.543 123.3 295.121C138.944 295.699 151.751 293.387 151.974 289.956C152.197 286.526 139.602 283.297 123.959 282.728C108.316 282.159 95.4442 284.462 95.2849 287.883Z" fill="white"/>
<path d="M98.8955 287.773C98.8844 287.995 98.9675 288.214 99.1292 288.387C101.03 286.369 111.385 285.195 123.757 285.635C136.129 286.076 146.367 288.03 148.024 290.167C148.201 290.008 148.307 289.8 148.321 289.58C148.438 287.259 137.478 284.938 123.821 284.434C110.163 283.929 99.0017 285.461 98.8955 287.773Z" fill="#DA3731"/>
<path opacity="0.4" d="M98.8955 287.773C98.8844 287.995 98.9675 288.214 99.1292 288.387C101.03 286.369 111.385 285.195 123.757 285.635C136.129 286.076 146.367 288.03 148.024 290.167C148.201 290.008 148.307 289.8 148.321 289.58C148.438 287.259 137.478 284.938 123.821 284.434C110.163 283.929 99.0017 285.461 98.8955 287.773Z" fill="#DA3731"/>
<path opacity="0.4" d="M99.127 288.387C100.826 290.525 111.021 292.46 123.394 292.919C135.766 293.378 146.163 292.194 148.021 290.167C146.365 288.03 136.17 286.094 123.755 285.635C111.34 285.177 101.028 286.369 99.127 288.387Z" fill="#DA3731"/>
<path d="M104.076 286.131C103.906 289.552 116.448 292.79 132.091 293.359C147.735 293.928 160.542 291.625 160.712 288.204C160.882 284.782 148.34 281.544 132.697 280.966C117.054 280.388 104.225 282.7 104.076 286.131Z" fill="#DA3731"/>
<path d="M104.363 279.925L104.059 286.121L160.697 288.197L161.002 282.001L104.363 279.925Z" fill="#DA3731"/>
<path d="M104.365 279.93C104.195 283.351 116.737 286.589 132.381 287.167C148.024 287.745 160.842 285.434 161.055 282.003C161.267 278.572 148.682 275.343 133.039 274.774C117.396 274.206 104.535 276.508 104.365 279.93Z" fill="#DA3731"/>
<path opacity="0.4" d="M104.365 279.93C104.195 283.351 116.737 286.589 132.381 287.167C148.024 287.745 160.842 285.434 161.055 282.003C161.267 278.572 148.682 275.343 133.039 274.774C117.396 274.206 104.535 276.508 104.365 279.93Z" fill="white"/>
<path d="M107.973 279.783C107.965 280.007 108.052 280.225 108.217 280.398C110.108 278.379 120.473 277.205 132.845 277.646C145.218 278.086 155.455 280.04 157.112 282.177C157.29 282.019 157.395 281.81 157.409 281.59C157.526 279.269 146.566 276.948 132.898 276.444C119.23 275.939 108.09 277.508 107.973 279.783Z" fill="#DA3731"/>
<path opacity="0.4" d="M107.973 279.783C107.965 280.007 108.052 280.225 108.217 280.398C110.108 278.379 120.473 277.205 132.845 277.646C145.218 278.086 155.455 280.04 157.112 282.177C157.29 282.019 157.395 281.81 157.409 281.59C157.526 279.269 146.566 276.948 132.898 276.444C119.23 275.939 108.09 277.508 107.973 279.783Z" fill="#DA3731"/>
<path opacity="0.4" d="M108.219 280.434C109.907 282.572 120.113 284.507 132.485 284.966C144.858 285.425 155.255 284.241 157.113 282.214C155.457 280.077 145.251 278.141 132.847 277.682C120.442 277.224 110.109 278.416 108.219 280.434Z" fill="#DA3731"/>
<path d="M98.1091 276.747C97.9392 280.168 110.481 283.407 126.125 283.975C141.768 284.544 154.586 282.242 154.799 278.82C155.011 275.398 142.426 272.16 126.783 271.582C111.14 271.004 98.279 273.362 98.1091 276.747Z" fill="#DA3731"/>
<path d="M98.4079 270.533L98.1035 276.729L154.742 278.805L155.046 272.609L98.4079 270.533Z" fill="#DA3731"/>
<path d="M98.4177 270.546C98.2478 273.967 110.79 277.206 126.433 277.783C142.077 278.361 154.895 276.05 155.107 272.628C155.32 269.207 142.724 265.959 127.081 265.39C111.438 264.822 98.5876 267.124 98.4177 270.546Z" fill="#DA3731"/>
<path opacity="0.4" d="M98.4177 270.546C98.2478 273.967 110.79 277.206 126.433 277.783C142.077 278.361 154.895 276.05 155.107 272.628C155.32 269.207 142.724 265.959 127.081 265.39C111.438 264.822 98.5876 267.124 98.4177 270.546Z" fill="white"/>
<path d="M102.026 270.436C102.018 270.659 102.105 270.878 102.27 271.05C104.161 269.032 114.515 267.858 126.887 268.298C139.26 268.739 149.508 270.692 151.165 272.83C151.342 272.671 151.448 272.463 151.462 272.243C151.568 269.922 140.608 267.601 126.951 267.106C113.294 266.61 102.143 268.124 102.026 270.436Z" fill="#DA3731"/>
<path opacity="0.4" d="M102.026 270.436C102.018 270.659 102.105 270.878 102.27 271.05C104.161 269.032 114.515 267.858 126.887 268.298C139.26 268.739 149.508 270.692 151.165 272.83C151.342 272.671 151.448 272.463 151.462 272.243C151.568 269.922 140.608 267.601 126.951 267.106C113.294 266.61 102.143 268.124 102.026 270.436Z" fill="#DA3731"/>
<path opacity="0.4" d="M102.271 271.05C103.96 273.197 114.166 275.132 126.538 275.582C138.91 276.031 149.297 274.857 151.166 272.83C149.509 270.692 139.303 268.757 126.889 268.298C114.474 267.839 104.162 269.032 102.271 271.05Z" fill="#DA3731"/>
<path d="M160.682 270.078C160.852 273.509 148.31 276.747 132.667 277.316C117.024 277.884 104.205 275.582 103.993 272.16C103.78 268.739 116.365 265.5 132.008 264.923C147.652 264.345 160.513 266.656 160.682 270.078Z" fill="#DA3731"/>
<path d="M159.633 264.512L102.943 266.471L103.231 272.672L159.92 270.713L159.633 264.512Z" fill="#DA3731"/>
<path d="M160.363 263.886C160.532 267.307 147.99 270.545 132.347 271.123C116.704 271.701 103.885 269.39 103.726 265.959C103.567 262.528 116.098 259.299 131.742 258.73C147.385 258.162 160.203 260.464 160.363 263.886Z" fill="#DA3731"/>
<path opacity="0.4" d="M160.363 263.886C160.532 267.307 147.99 270.545 132.347 271.123C116.704 271.701 103.885 269.39 103.726 265.959C103.567 262.528 116.098 259.299 131.742 258.73C147.385 258.162 160.203 260.464 160.363 263.886Z" fill="white"/>
<path d="M156.763 263.776C156.771 264 156.684 264.219 156.519 264.391C154.628 262.373 144.274 261.199 131.902 261.639C119.529 262.079 109.281 264.033 107.635 266.171C107.453 266.014 107.344 265.805 107.327 265.583C107.221 263.263 118.181 260.942 131.838 260.437C145.495 259.933 156.646 261.437 156.763 263.776Z" fill="#DA3731"/>
<path opacity="0.4" d="M156.763 263.776C156.771 264 156.684 264.219 156.519 264.391C154.628 262.373 144.274 261.199 131.902 261.639C119.529 262.079 109.281 264.033 107.635 266.171C107.453 266.014 107.344 265.805 107.327 265.583C107.221 263.263 118.181 260.942 131.838 260.437C145.495 259.933 156.646 261.437 156.763 263.776Z" fill="#DA3731"/>
<path opacity="0.4" d="M156.519 264.39C154.83 266.528 144.635 268.463 132.252 268.922C119.869 269.381 109.493 268.197 107.635 266.17C109.281 264.033 119.487 262.097 131.901 261.638C144.316 261.18 154.628 262.354 156.519 264.39Z" fill="#DA3731"/>
<path d="M166.628 260.703C166.798 264.125 154.256 267.363 138.612 267.932C122.969 268.5 110.161 266.198 109.938 262.776C109.715 259.355 122.311 256.117 137.954 255.539C153.597 254.961 166.458 257.272 166.628 260.703Z" fill="#DA3731"/>
<path d="M166.344 254.504L109.695 256.58L110 262.776L166.649 260.699L166.344 254.504Z" fill="#DA3731"/>
<path d="M166.332 254.502C166.492 257.923 153.949 261.162 138.306 261.739C122.663 262.317 109.855 260.006 109.685 256.575C109.515 253.144 122.058 249.915 137.701 249.347C153.344 248.778 166.162 251.08 166.332 254.502Z" fill="#DA3731"/>
<path opacity="0.4" d="M166.332 254.502C166.492 257.923 153.949 261.162 138.306 261.739C122.663 262.317 109.855 260.006 109.685 256.575C109.515 253.144 122.058 249.915 137.701 249.347C153.344 248.778 166.162 251.08 166.332 254.502Z" fill="white"/>
<path d="M162.71 254.392C162.721 254.614 162.638 254.833 162.476 255.006C160.575 252.988 150.22 251.814 137.848 252.255C125.476 252.695 115.238 254.649 113.581 256.786C113.404 256.628 113.298 256.419 113.284 256.199C113.167 253.878 124.127 251.557 137.784 251.053C151.442 250.548 162.603 252.08 162.71 254.392Z" fill="#DA3731"/>
<path opacity="0.4" d="M162.71 254.392C162.721 254.614 162.638 254.833 162.476 255.006C160.575 252.988 150.22 251.814 137.848 252.255C125.476 252.695 115.238 254.649 113.581 256.786C113.404 256.628 113.298 256.419 113.284 256.199C113.167 253.878 124.127 251.557 137.784 251.053C151.442 250.548 162.603 252.08 162.71 254.392Z" fill="#DA3731"/>
<path opacity="0.4" d="M162.486 255.015C160.798 257.153 150.592 259.088 138.22 259.547C125.847 260.006 115.45 258.822 113.592 256.795C115.249 254.658 125.444 252.722 137.858 252.263C150.273 251.805 160.575 252.988 162.486 255.015Z" fill="#DA3731"/>
<path d="M165.864 249.392C166.034 252.814 153.481 256.061 137.849 256.63C122.216 257.199 109.387 254.896 109.175 251.475C108.962 248.053 121.547 244.806 137.19 244.237C152.833 243.668 165.673 245.971 165.864 249.392Z" fill="#DA3731"/>
<path d="M165.557 243.204L108.908 245.281L109.213 251.476L165.862 249.4L165.557 243.204Z" fill="#DA3731"/>
<path d="M165.555 243.2C165.725 246.622 153.183 249.86 137.54 250.438C121.897 251.016 109.078 248.695 108.866 245.273C108.654 241.852 121.249 238.613 136.881 238.036C152.514 237.458 165.386 239.778 165.555 243.2Z" fill="#DA3731"/>
<path opacity="0.4" d="M165.555 243.2C165.725 246.622 153.183 249.86 137.54 250.438C121.897 251.016 109.078 248.695 108.866 245.273C108.654 241.852 121.249 238.613 136.881 238.036C152.514 237.458 165.386 239.778 165.555 243.2Z" fill="white"/>
<path d="M161.945 243.09C161.947 243.313 161.86 243.53 161.701 243.705C159.81 241.687 149.456 240.503 137.073 240.953C124.69 241.402 114.463 243.347 112.806 245.484C112.633 245.323 112.528 245.116 112.509 244.897C112.392 242.576 123.362 240.256 137.02 239.751C150.677 239.246 161.828 240.769 161.945 243.09Z" fill="#DA3731"/>
<path opacity="0.4" d="M161.945 243.09C161.947 243.313 161.86 243.53 161.701 243.705C159.81 241.687 149.456 240.503 137.073 240.953C124.69 241.402 114.463 243.347 112.806 245.484C112.633 245.323 112.528 245.116 112.509 244.897C112.392 242.576 123.362 240.256 137.02 239.751C150.677 239.246 161.828 240.769 161.945 243.09Z" fill="#DA3731"/>
<path opacity="0.4" d="M161.701 243.705C160.013 245.842 149.807 247.778 137.434 248.236C125.062 248.695 114.676 247.512 112.807 245.484C114.463 243.347 124.669 241.402 137.073 240.953C149.478 240.503 159.811 241.687 161.701 243.705Z" fill="#DA3731"/>
<path d="M171.811 240.008C171.981 243.43 159.439 246.677 143.796 247.246C128.153 247.814 115.334 245.512 115.122 242.09C114.909 238.669 127.505 235.431 143.148 234.853C158.791 234.275 171.641 236.586 171.811 240.008Z" fill="#DA3731"/>
<path d="M171.484 233.821L114.846 235.897L115.15 242.093L171.789 240.017L171.484 233.821Z" fill="#DA3731"/>
<path d="M171.503 233.816C171.673 237.238 159.131 240.476 143.487 241.054C127.844 241.632 115.036 239.311 114.813 235.889C114.59 232.468 127.186 229.23 142.829 228.652C158.472 228.074 171.344 230.395 171.503 233.816Z" fill="#DA3731"/>
<path opacity="0.4" d="M171.503 233.816C171.673 237.238 159.131 240.476 143.487 241.054C127.844 241.632 115.036 239.311 114.813 235.889C114.59 232.468 127.186 229.23 142.829 228.652C158.472 228.074 171.344 230.395 171.503 233.816Z" fill="white"/>
<path d="M167.893 233.706C167.904 233.928 167.821 234.147 167.66 234.32C165.759 232.302 155.404 231.119 143.032 231.568C130.659 232.018 120.422 233.963 118.765 236.1C118.587 235.942 118.482 235.733 118.468 235.513C118.351 233.192 129.311 230.871 142.968 230.367C156.625 229.862 167.798 231.394 167.893 233.706Z" fill="#DA3731"/>
<path opacity="0.4" d="M167.893 233.706C167.904 233.928 167.821 234.147 167.66 234.32C165.759 232.302 155.404 231.119 143.032 231.568C130.659 232.018 120.422 233.963 118.765 236.1C118.587 235.942 118.482 235.733 118.468 235.513C118.351 233.192 129.311 230.871 142.968 230.367C156.625 229.862 167.798 231.394 167.893 233.706Z" fill="#DA3731"/>
<path opacity="0.4" d="M167.658 234.321C165.959 236.458 155.764 238.394 143.391 238.853C131.019 239.311 120.622 238.128 118.764 236.101C120.42 233.963 130.616 232.028 143.03 231.569C155.445 231.11 165.757 232.303 167.658 234.321Z" fill="#DA3731"/>
<path d="M162.72 232.083C162.89 235.504 150.348 238.751 134.705 239.32C119.061 239.889 106.254 237.586 106.084 234.165C105.914 230.743 118.456 227.505 134.099 226.927C149.743 226.349 162.561 228.633 162.72 232.083Z" fill="#DA3731"/>
<path d="M162.425 225.86L105.775 227.936L106.08 234.132L162.729 232.055L162.425 225.86Z" fill="#DA3731"/>
<path d="M162.425 225.863C162.595 229.285 150.042 232.523 134.409 233.101C118.776 233.679 105.947 231.358 105.735 227.936C105.523 224.515 118.107 221.277 133.751 220.699C149.394 220.121 162.255 222.442 162.425 225.863Z" fill="#DA3731"/>
<path opacity="0.4" d="M162.425 225.863C162.595 229.285 150.042 232.523 134.409 233.101C118.776 233.679 105.947 231.358 105.735 227.936C105.523 224.515 118.107 221.277 133.751 220.699C149.394 220.121 162.255 222.442 162.425 225.863Z" fill="white"/>
<path d="M158.812 225.753C158.81 225.976 158.725 226.191 158.568 226.368C156.667 224.35 146.312 223.166 133.94 223.616C121.568 224.065 111.33 226.01 109.673 228.147C109.496 227.989 109.39 227.781 109.376 227.56C109.259 225.24 120.219 222.919 133.887 222.414C147.555 221.91 158.695 223.442 158.812 225.753Z" fill="#DA3731"/>
<path opacity="0.4" d="M158.812 225.753C158.81 225.976 158.725 226.191 158.568 226.368C156.667 224.35 146.312 223.166 133.94 223.616C121.568 224.065 111.33 226.01 109.673 228.147C109.496 227.989 109.39 227.781 109.376 227.56C109.259 225.24 120.219 222.919 133.887 222.414C147.555 221.91 158.695 223.442 158.812 225.753Z" fill="#DA3731"/>
<path opacity="0.4" d="M158.568 226.367C156.88 228.505 146.674 230.44 134.302 230.899C121.929 231.358 111.532 230.174 109.674 228.147C111.331 226.01 121.536 224.074 133.941 223.615C146.345 223.157 156.667 224.349 158.568 226.367Z" fill="#DA3731"/>
<path d="M168.679 222.671C168.848 226.102 156.306 229.34 140.663 229.909C125.02 230.477 112.201 228.175 111.989 224.753C111.777 221.332 124.361 218.093 140.005 217.516C155.648 216.938 168.509 219.24 168.679 222.671Z" fill="#DA3731"/>
<path d="M168.351 216.487L111.713 218.563L112.017 224.758L168.656 222.682L168.351 216.487Z" fill="#DA3731"/>
<path d="M168.37 216.488C168.54 219.91 155.998 223.148 140.354 223.726C124.711 224.304 111.893 221.992 111.68 218.561C111.468 215.13 124.063 211.901 139.707 211.333C155.35 210.764 168.2 213.057 168.37 216.488Z" fill="#DA3731"/>
<path opacity="0.4" d="M168.37 216.488C168.54 219.91 155.998 223.148 140.354 223.726C124.711 224.304 111.893 221.992 111.68 218.561C111.468 215.13 124.063 211.901 139.707 211.333C155.35 210.764 168.2 213.057 168.37 216.488Z" fill="white"/>
<path d="M164.759 216.368C164.767 216.592 164.68 216.811 164.515 216.983C162.625 214.965 152.27 213.791 139.898 214.231C127.525 214.671 117.277 216.625 115.62 218.763C115.443 218.604 115.337 218.396 115.323 218.176C115.217 215.855 126.177 213.534 139.834 213.029C153.491 212.525 164.61 214.057 164.759 216.368Z" fill="#DA3731"/>
<path opacity="0.4" d="M164.759 216.368C164.767 216.592 164.68 216.811 164.515 216.983C162.625 214.965 152.27 213.791 139.898 214.231C127.525 214.671 117.277 216.625 115.62 218.763C115.443 218.604 115.337 218.396 115.323 218.176C115.217 215.855 126.177 213.534 139.834 213.029C153.491 212.525 164.61 214.057 164.759 216.368Z" fill="#DA3731"/>
<path opacity="0.4" d="M164.516 216.984C162.827 219.121 152.621 221.057 140.249 221.515C127.877 221.974 117.49 220.791 115.621 218.763C117.278 216.626 127.484 214.69 139.898 214.232C152.313 213.773 162.625 214.966 164.516 216.984Z" fill="#DA3731"/>
<path d="M232.643 183.143H93.1382L82.9961 16.0078H222.511L232.643 183.143Z" fill="#DA3731"/>
<g opacity="0.6">
<path d="M232.643 183.143H93.1382L82.9961 16.0078H222.511L232.643 183.143Z" fill="white"/>
</g>
<path d="M161.926 127.406H105.64C105.467 127.404 105.296 127.432 105.137 127.489C104.978 127.546 104.835 127.632 104.716 127.739C104.597 127.847 104.505 127.975 104.447 128.115C104.388 128.256 104.364 128.405 104.376 128.553C104.398 128.862 104.554 129.153 104.815 129.366C105.075 129.579 105.419 129.698 105.778 129.7H162.064C162.236 129.703 162.407 129.675 162.566 129.617C162.726 129.56 162.869 129.475 162.988 129.367C163.107 129.259 163.198 129.131 163.257 128.991C163.315 128.851 163.339 128.702 163.328 128.553C163.306 128.244 163.149 127.954 162.889 127.741C162.629 127.528 162.284 127.408 161.926 127.406Z" fill="#263238"/>
<path d="M147.619 118.563H105.065C104.892 118.563 104.722 118.593 104.563 118.652C104.405 118.711 104.262 118.797 104.144 118.906C104.025 119.014 103.934 119.142 103.875 119.282C103.816 119.422 103.791 119.571 103.801 119.719C103.825 120.028 103.983 120.317 104.242 120.529C104.502 120.742 104.845 120.862 105.203 120.866H147.768C147.94 120.867 148.11 120.838 148.268 120.781C148.427 120.723 148.57 120.637 148.688 120.53C148.807 120.422 148.898 120.295 148.958 120.155C149.017 120.016 149.042 119.868 149.032 119.719C149.01 119.408 148.852 119.115 148.59 118.9C148.327 118.686 147.98 118.565 147.619 118.563Z" fill="#263238"/>
<path d="M163.22 148.697H106.934C106.762 148.696 106.592 148.725 106.433 148.783C106.275 148.84 106.132 148.926 106.013 149.033C105.895 149.141 105.803 149.268 105.744 149.408C105.685 149.547 105.66 149.696 105.67 149.844C105.692 150.154 105.848 150.445 106.108 150.66C106.368 150.874 106.713 150.996 107.072 151H163.358C163.531 151.001 163.702 150.972 163.861 150.914C164.02 150.855 164.164 150.769 164.283 150.661C164.401 150.552 164.493 150.423 164.551 150.283C164.609 150.142 164.634 149.993 164.622 149.844C164.598 149.536 164.44 149.246 164.18 149.034C163.921 148.821 163.578 148.701 163.22 148.697Z" fill="#263238"/>
<path d="M148.927 139.863H106.362C106.194 139.867 106.028 139.9 105.875 139.96C105.721 140.02 105.584 140.106 105.47 140.213C105.356 140.32 105.268 140.446 105.211 140.583C105.155 140.72 105.131 140.865 105.141 141.01C105.165 141.318 105.322 141.608 105.582 141.82C105.842 142.033 106.185 142.153 106.543 142.157H149.108C149.28 142.158 149.45 142.129 149.608 142.071C149.767 142.014 149.91 141.928 150.028 141.821C150.147 141.713 150.238 141.586 150.297 141.446C150.356 141.307 150.382 141.158 150.371 141.01C150.347 140.695 150.183 140.401 149.915 140.187C149.646 139.974 149.292 139.858 148.927 139.863Z" fill="#263238"/>
<path d="M164.515 169.989H108.229C108.056 169.989 107.886 170.019 107.727 170.078C107.569 170.136 107.426 170.223 107.308 170.331C107.19 170.439 107.098 170.567 107.039 170.707C106.98 170.847 106.955 170.996 106.965 171.145C106.989 171.453 107.147 171.742 107.406 171.955C107.666 172.167 108.009 172.287 108.367 172.291H164.653C164.825 172.293 164.995 172.264 165.154 172.206C165.312 172.148 165.455 172.063 165.573 171.955C165.692 171.848 165.784 171.72 165.843 171.581C165.902 171.441 165.927 171.293 165.917 171.145C165.893 170.835 165.736 170.545 165.476 170.331C165.217 170.117 164.874 169.995 164.515 169.989Z" fill="#263238"/>
<path d="M150.21 161.155H107.645C107.473 161.153 107.303 161.182 107.145 161.24C106.988 161.298 106.845 161.384 106.728 161.491C106.61 161.599 106.519 161.727 106.461 161.866C106.404 162.005 106.38 162.154 106.392 162.301C106.411 162.612 106.566 162.905 106.827 163.12C107.087 163.335 107.433 163.455 107.793 163.457H150.348C150.521 163.46 150.693 163.432 150.853 163.374C151.013 163.316 151.157 163.23 151.276 163.121C151.395 163.012 151.486 162.883 151.544 162.742C151.602 162.601 151.625 162.451 151.612 162.301C151.59 161.992 151.433 161.702 151.173 161.489C150.913 161.276 150.568 161.157 150.21 161.155Z" fill="#263238"/>
<path d="M214.335 128.03H204.108C203.913 128.028 203.726 127.963 203.584 127.847C203.442 127.732 203.356 127.574 203.343 127.406L202.812 118.563C202.806 118.483 202.819 118.403 202.851 118.327C202.882 118.252 202.932 118.183 202.995 118.124C203.059 118.066 203.136 118.019 203.221 117.987C203.307 117.956 203.399 117.939 203.492 117.939H213.729C213.923 117.942 214.109 118.007 214.249 118.123C214.389 118.239 214.473 118.396 214.483 118.563L215.025 127.406C215.031 127.487 215.017 127.568 214.985 127.644C214.953 127.72 214.903 127.79 214.838 127.849C214.773 127.907 214.695 127.954 214.608 127.985C214.522 128.016 214.428 128.031 214.335 128.03ZM204.777 126.773H213.559L213.103 119.187H204.32L204.777 126.773Z" fill="#DA3731"/>
<path d="M215.694 150.44H205.467C205.27 150.438 205.082 150.372 204.94 150.254C204.798 150.136 204.713 149.977 204.702 149.807L204.171 140.973C204.165 140.893 204.179 140.813 204.21 140.737C204.242 140.662 204.291 140.593 204.355 140.534C204.418 140.476 204.495 140.429 204.581 140.398C204.666 140.366 204.758 140.349 204.851 140.35H215.089C215.284 140.352 215.47 140.417 215.612 140.532C215.754 140.648 215.84 140.805 215.853 140.973L216.384 149.807C216.39 149.888 216.377 149.97 216.344 150.047C216.312 150.123 216.262 150.193 216.198 150.253C216.133 150.312 216.055 150.359 215.968 150.391C215.882 150.424 215.788 150.44 215.694 150.44ZM206.136 149.183H214.919L214.462 141.597H205.679L206.136 149.183Z" fill="#DA3731"/>
<path d="M216.989 171.768H206.762C206.567 171.766 206.38 171.701 206.238 171.585C206.097 171.47 206.011 171.312 205.997 171.144L205.466 162.302C205.46 162.221 205.474 162.141 205.505 162.066C205.537 161.99 205.586 161.921 205.65 161.862C205.713 161.804 205.79 161.757 205.876 161.726C205.961 161.694 206.053 161.678 206.146 161.678H216.384C216.577 161.682 216.761 161.748 216.9 161.864C217.04 161.979 217.124 162.135 217.138 162.302L217.679 171.144C217.685 171.225 217.671 171.306 217.639 171.383C217.607 171.459 217.557 171.528 217.492 171.587C217.427 171.646 217.349 171.692 217.262 171.723C217.176 171.754 217.083 171.77 216.989 171.768ZM207.431 170.521H216.214L215.757 162.934H206.964L207.431 170.521Z" fill="#DA3731"/>
<path d="M184.598 90.2374H137.403L134.578 43.5825H181.773L184.598 90.2374Z" fill="white"/>
<path d="M209.078 125.673C208.673 125.655 208.291 125.5 208.016 125.242L205.223 122.59C205.1 122.47 205.005 122.33 204.945 122.178C204.884 122.026 204.858 121.865 204.87 121.704C204.881 121.544 204.929 121.386 205.011 121.242C205.092 121.097 205.206 120.968 205.345 120.861C205.627 120.646 205.996 120.536 206.372 120.556C206.558 120.566 206.739 120.607 206.907 120.678C207.074 120.748 207.224 120.846 207.347 120.967L209.036 122.554L215.408 116.426C215.673 116.173 216.043 116.021 216.437 116.004C216.832 115.987 217.218 116.106 217.511 116.334C217.804 116.563 217.979 116.883 217.999 117.224C218.019 117.564 217.882 117.898 217.617 118.151L210.183 125.278C210.045 125.412 209.874 125.517 209.683 125.585C209.492 125.653 209.285 125.683 209.078 125.673Z" fill="#DA3731"/>
<path d="M210.435 148.083C210.03 148.065 209.648 147.911 209.373 147.652L206.58 145.01C206.456 144.89 206.361 144.749 206.3 144.597C206.238 144.445 206.212 144.284 206.223 144.123C206.234 143.962 206.281 143.804 206.363 143.659C206.444 143.514 206.558 143.384 206.697 143.277C206.837 143.169 206.999 143.087 207.176 143.034C207.352 142.981 207.539 142.959 207.725 142.968C207.911 142.977 208.094 143.018 208.262 143.089C208.43 143.159 208.58 143.257 208.704 143.377L210.276 144.937L216.648 138.809C216.917 138.574 217.28 138.437 217.662 138.427C218.044 138.417 218.416 138.535 218.701 138.756C218.985 138.977 219.16 139.284 219.189 139.613C219.218 139.943 219.099 140.269 218.857 140.525L211.423 147.661C211.3 147.786 211.149 147.887 210.979 147.96C210.81 148.032 210.625 148.074 210.435 148.083Z" fill="#DA3731"/>
<path d="M211.742 169.704C211.541 169.696 211.344 169.654 211.162 169.58C210.979 169.506 210.816 169.402 210.68 169.273L207.887 166.631C207.751 166.517 207.643 166.38 207.569 166.229C207.495 166.077 207.457 165.915 207.457 165.751C207.457 165.587 207.495 165.424 207.569 165.273C207.643 165.122 207.751 164.985 207.887 164.87C208.179 164.653 208.559 164.544 208.943 164.568C209.327 164.592 209.685 164.747 209.937 164.998L211.626 166.595L217.998 160.467C218.266 160.232 218.629 160.095 219.011 160.085C219.394 160.075 219.766 160.193 220.05 160.414C220.335 160.635 220.509 160.942 220.539 161.271C220.568 161.6 220.449 161.927 220.206 162.182L212.772 169.319C212.642 169.443 212.483 169.541 212.306 169.608C212.128 169.674 211.936 169.707 211.742 169.704Z" fill="#DA3731"/>
<path d="M183.642 96.3194H139.123C138.952 96.3179 138.781 96.3469 138.623 96.4047C138.464 96.4625 138.321 96.5479 138.203 96.6554C138.084 96.763 137.993 96.8904 137.934 97.0299C137.875 97.1693 137.849 97.3178 137.86 97.466C137.881 97.776 138.038 98.0675 138.298 98.2819C138.558 98.4963 138.902 98.6178 139.261 98.6219H183.802C183.974 98.6221 184.145 98.5919 184.303 98.5331C184.462 98.4742 184.604 98.388 184.723 98.2798C184.841 98.1715 184.933 98.0435 184.992 97.9035C185.05 97.7636 185.076 97.6147 185.066 97.466C185.041 97.1546 184.881 96.8627 184.616 96.6498C184.352 96.4368 184.004 96.3187 183.642 96.3194Z" fill="#263238"/>
<path d="M160.501 103.96H139.569C139.397 103.958 139.226 103.988 139.068 104.045C138.91 104.103 138.767 104.188 138.648 104.296C138.53 104.404 138.438 104.531 138.379 104.671C138.32 104.81 138.295 104.958 138.305 105.107C138.329 105.416 138.486 105.706 138.746 105.92C139.005 106.134 139.348 106.256 139.707 106.262H160.639C160.812 106.264 160.983 106.235 161.142 106.176C161.301 106.118 161.445 106.032 161.563 105.923C161.682 105.815 161.773 105.686 161.832 105.546C161.89 105.405 161.914 105.256 161.903 105.107C161.881 104.798 161.724 104.507 161.464 104.294C161.204 104.081 160.859 103.962 160.501 103.96Z" fill="#263238"/>
<path d="M185.362 27.5195H129.076C128.904 27.5192 128.734 27.5494 128.576 27.6084C128.418 27.6673 128.276 27.7536 128.159 27.8621C128.041 27.9705 127.951 28.0986 127.893 28.2386C127.835 28.3785 127.812 28.5272 127.823 28.6754C127.845 28.9845 128.002 29.2749 128.262 29.4879C128.522 29.7008 128.867 29.8202 129.225 29.822H185.511C185.683 29.8249 185.855 29.7968 186.014 29.7395C186.173 29.6821 186.316 29.5968 186.435 29.489C186.554 29.3811 186.646 29.2531 186.704 29.113C186.763 28.973 186.787 28.8239 186.775 28.6754C186.751 28.3646 186.592 28.073 186.33 27.8588C186.069 27.6446 185.723 27.5235 185.362 27.5195Z" fill="#263238"/>
<path d="M166.642 72.4032C170.255 69.1989 170.014 63.9332 166.103 60.6419C162.191 57.3507 156.091 57.2803 152.477 60.4846C148.863 63.689 149.104 68.9547 153.016 72.2459C156.927 75.5371 163.028 75.6076 166.642 72.4032Z" fill="#DA3731"/>
<path d="M178.587 90.2372H143.371C143.262 88.2941 143.614 86.3523 144.406 84.531C145.198 82.7098 146.412 81.0475 147.975 79.6464C149.537 78.2452 151.415 77.1348 153.492 76.3832C155.569 75.6316 157.803 75.2547 160.055 75.2757C164.744 75.3212 169.244 76.8827 172.666 79.6521C176.089 82.4216 178.186 86.1982 178.544 90.2372H178.587Z" fill="#DA3731"/>
</svg>
