<svg width="50" height="50" viewBox="0 0 50 50" fill="none" xmlns="http://www.w3.org/2000/svg">
<rect width="50" height="50" rx="5" fill="#243A85"/>
<path d="M29.8171 17.2777C30.6211 17.2777 31.3051 17.5657 31.8691 18.1417C32.4331 18.7177 32.7151 19.3957 32.7151 20.1757V29.8237C32.7151 30.6157 32.4331 31.2937 31.8691 31.8577C31.3051 32.4217 30.6211 32.7097 29.8171 32.7217H27.9451V26.7277H29.9431L30.2311 24.4057H27.9451V22.9117C27.9451 22.5397 28.0231 22.2637 28.1791 22.0837C28.3351 21.9037 28.6411 21.8077 29.0971 21.7957L30.3211 21.7777V19.7077C29.9011 19.6477 29.3011 19.6177 28.5211 19.6177C27.6211 19.6177 26.8951 19.8817 26.3431 20.4097C25.7911 20.9377 25.5211 21.6997 25.5331 22.6957V24.4057H23.5171V26.7277H25.5331V32.7217H20.1871C19.3831 32.7217 18.6991 32.4337 18.1351 31.8577C17.5711 31.2817 17.2891 30.6037 17.2891 29.8237V20.1757C17.2891 19.3837 17.5711 18.7057 18.1351 18.1417C18.6991 17.5777 19.3831 17.2897 20.1871 17.2777H29.8171Z" fill="white"/>
</svg>
