<svg width="57" height="58" viewBox="0 0 57 58" fill="none" xmlns="http://www.w3.org/2000/svg">
<g filter="url(#filter0_d_1_8469)">
<path d="M51 25.3615C51 11.8036 40.024 0.800049 26.5 0.800049C12.976 0.800049 2 11.8036 2 25.3615C2 37.2492 10.428 47.1474 21.6 49.4316V32.7299H16.7V25.3615H21.6V19.2211C21.6 14.4808 25.4465 10.6246 30.175 10.6246H36.3V17.993H31.4C30.0525 17.993 28.95 19.0983 28.95 20.4492V25.3615H36.3V32.7299H28.95V49.8C41.3225 48.572 51 38.1088 51 25.3615Z" fill="url(#paint0_linear_1_8469)"/>
</g>
<defs>
<filter id="filter0_d_1_8469" x="0" y="0.800049" width="57" height="57" filterUnits="userSpaceOnUse" color-interpolation-filters="sRGB">
<feFlood flood-opacity="0" result="BackgroundImageFix"/>
<feColorMatrix in="SourceAlpha" type="matrix" values="0 0 0 0 0 0 0 0 0 0 0 0 0 0 0 0 0 0 127 0" result="hardAlpha"/>
<feOffset dx="2" dy="4"/>
<feGaussianBlur stdDeviation="2"/>
<feComposite in2="hardAlpha" operator="out"/>
<feColorMatrix type="matrix" values="0 0 0 0 0.164706 0 0 0 0 0.156863 0 0 0 0 0.670588 0 0 0 0.5 0"/>
<feBlend mode="normal" in2="BackgroundImageFix" result="effect1_dropShadow_1_8469"/>
<feBlend mode="normal" in="SourceGraphic" in2="effect1_dropShadow_1_8469" result="shape"/>
</filter>
<linearGradient id="paint0_linear_1_8469" x1="26.5" y1="0.800049" x2="26.5" y2="49.8" gradientUnits="userSpaceOnUse">
<stop stop-color="#2C21A4"/>
<stop offset="1" stop-color="#1975EF"/>
</linearGradient>
</defs>
</svg>
