<svg width="50" height="50" viewBox="0 0 50 50" fill="none" xmlns="http://www.w3.org/2000/svg">
<rect width="50" height="50" rx="5" fill="#243A85"/>
<path d="M27.5671 24.9997C27.5671 24.2917 27.3211 23.6857 26.8291 23.1817C26.3371 22.6777 25.7311 22.4257 25.0111 22.4257C24.2911 22.4257 23.6851 22.6777 23.1931 23.1817C22.7011 23.6857 22.4491 24.2917 22.4371 24.9997C22.4251 25.7077 22.6771 26.3137 23.1931 26.8177C23.7091 27.3217 24.3151 27.5737 25.0111 27.5737C25.7071 27.5737 26.3131 27.3217 26.8291 26.8177C27.3451 26.3137 27.5911 25.7077 27.5671 24.9997ZM28.9531 24.9997C28.9531 26.0917 28.5691 27.0277 27.8011 27.8077C27.0331 28.5877 26.1031 28.9717 25.0111 28.9597C23.9191 28.9477 22.9831 28.5637 22.2031 27.8077C21.4231 27.0517 21.0391 26.1157 21.0511 24.9997C21.0631 23.8837 21.4471 22.9477 22.2031 22.1917C22.9591 21.4357 23.8951 21.0517 25.0111 21.0397C26.1271 21.0277 27.0571 21.4117 27.8011 22.1917C28.5451 22.9717 28.9291 23.9077 28.9531 24.9997ZM30.0511 20.8777C30.0511 21.1297 29.9611 21.3457 29.7811 21.5257C29.6011 21.7057 29.3791 21.7957 29.1151 21.7957C28.8511 21.7957 28.6351 21.7057 28.4671 21.5257C28.2991 21.3457 28.2091 21.1297 28.1971 20.8777C28.1851 20.6257 28.2751 20.4097 28.4671 20.2297C28.6591 20.0497 28.8751 19.9597 29.1151 19.9597C29.3551 19.9597 29.5771 20.0497 29.7811 20.2297C29.9851 20.4097 30.0751 20.6257 30.0511 20.8777ZM25.0111 18.6637C24.9631 18.6637 24.7051 18.6637 24.2371 18.6637H23.1751C22.9351 18.6637 22.6111 18.6757 22.2031 18.6997C21.7951 18.7237 21.4531 18.7537 21.1771 18.7897C20.9011 18.8257 20.6611 18.8917 20.4571 18.9877C20.1211 19.1197 19.8271 19.3117 19.5751 19.5637C19.3231 19.8157 19.1251 20.1097 18.9811 20.4457C18.9091 20.6377 18.8491 20.8777 18.8011 21.1657C18.7531 21.4537 18.7171 21.8017 18.6931 22.2097C18.6691 22.6177 18.6631 22.9357 18.6751 23.1637C18.6871 23.3917 18.6871 23.7457 18.6751 24.2257C18.6631 24.7057 18.6631 24.9637 18.6751 24.9997C18.6871 25.0357 18.6871 25.2937 18.6751 25.7737C18.6631 26.2537 18.6631 26.6077 18.6751 26.8357C18.6871 27.0637 18.6931 27.3817 18.6931 27.7897C18.6931 28.1977 18.7291 28.5457 18.8011 28.8337L18.9811 29.5537C19.1251 29.8897 19.3231 30.1837 19.5751 30.4357C19.8271 30.6877 20.1211 30.8797 20.4571 31.0117C20.6491 31.0837 20.8891 31.1497 21.1771 31.2097C21.4651 31.2697 21.8071 31.2997 22.2031 31.2997C22.5991 31.2997 22.9231 31.3117 23.1751 31.3357C23.4271 31.3597 23.7811 31.3597 24.2371 31.3357C24.6931 31.3117 24.9511 31.3117 25.0111 31.3357C25.0711 31.3597 25.3231 31.3597 25.7671 31.3357C26.2111 31.3117 26.5651 31.3117 26.8291 31.3357C27.0931 31.3597 27.4171 31.3477 27.8011 31.2997C28.1851 31.2517 28.5331 31.2217 28.8451 31.2097C29.1571 31.1977 29.3911 31.1317 29.5471 31.0117C29.8831 30.8797 30.1831 30.6877 30.4471 30.4357C30.7111 30.1837 30.9031 29.8897 31.0231 29.5537C31.0951 29.3617 31.1551 29.1217 31.2031 28.8337C31.2511 28.5457 31.2871 28.1977 31.3111 27.7897C31.3351 27.3817 31.3411 27.0637 31.3291 26.8357C31.3171 26.6077 31.3171 26.2537 31.3291 25.7737C31.3411 25.2937 31.3411 25.0357 31.3291 24.9997C31.3171 24.9637 31.3171 24.7057 31.3291 24.2257C31.3411 23.7457 31.3411 23.3917 31.3291 23.1637C31.3171 22.9357 31.3111 22.6177 31.3111 22.2097C31.3111 21.8017 31.2751 21.4537 31.2031 21.1657L31.0231 20.4457C30.8911 20.1097 30.6991 19.8157 30.4471 19.5637C30.1951 19.3117 29.8951 19.1197 29.5471 18.9877C29.3551 18.9157 29.1211 18.8497 28.8451 18.7897C28.5691 18.7297 28.2211 18.6997 27.8011 18.6997C27.3811 18.6997 27.0571 18.6877 26.8291 18.6637C26.6011 18.6397 26.2471 18.6397 25.7671 18.6637C25.2871 18.6877 25.0351 18.6877 25.0111 18.6637ZM32.7151 24.9997C32.7151 26.5357 32.6971 27.5977 32.6611 28.1857C32.6011 29.5777 32.1871 30.6577 31.4191 31.4257C30.6511 32.1937 29.5771 32.6077 28.1971 32.6677C27.5971 32.7037 26.5351 32.7217 25.0111 32.7217C23.4871 32.7217 22.4251 32.7037 21.8251 32.6677C20.4331 32.5957 19.3531 32.1817 18.5851 31.4257C17.8171 30.6697 17.4031 29.5897 17.3431 28.1857C17.3071 27.5977 17.2891 26.5357 17.2891 24.9997C17.2891 23.4637 17.3071 22.4017 17.3431 21.8137C17.4031 20.4217 17.8171 19.3417 18.5851 18.5737C19.3531 17.8057 20.4331 17.3917 21.8251 17.3317C22.4131 17.2957 23.4751 17.2777 25.0111 17.2777C26.5471 17.2777 27.6091 17.2957 28.1971 17.3317C29.5891 17.4037 30.6631 17.8177 31.4191 18.5737C32.1751 19.3297 32.5891 20.4097 32.6611 21.8137C32.6971 22.4017 32.7151 23.4637 32.7151 24.9997Z" fill="white"/>
</svg>
