<svg width="50" height="50" viewBox="0 0 50 50" fill="none" xmlns="http://www.w3.org/2000/svg">
<rect width="50" height="50" rx="5" fill="#243A85"/>
<g clip-path="url(#clip0_1_2888)">
<path d="M18.5742 21.9937C18.5742 21.2737 18.7002 20.5957 18.9522 19.9597C19.2042 19.3237 19.5522 18.7657 19.9962 18.2857C20.4402 17.8057 20.9502 17.3917 21.5262 17.0437C22.1022 16.6957 22.7202 16.4317 23.3802 16.2517C24.0402 16.0717 24.7182 15.9877 25.4142 15.9997C26.4702 15.9997 27.4542 16.2217 28.3662 16.6657C29.2782 17.1097 30.0162 17.7577 30.5802 18.6097C31.1442 19.4617 31.4262 20.4217 31.4262 21.4897C31.4262 22.1377 31.3662 22.7677 31.2462 23.3797C31.1262 23.9917 30.9222 24.5857 30.6342 25.1617C30.3462 25.7377 30.0102 26.2357 29.6262 26.6557C29.2422 27.0757 28.7622 27.4237 28.1862 27.6997C27.6102 27.9757 26.9742 28.1017 26.2782 28.0777C25.8222 28.0777 25.3722 27.9697 24.9282 27.7537C24.4842 27.5377 24.1602 27.2437 23.9562 26.8717L23.6862 28.0057C23.5662 28.4977 23.4822 28.8157 23.4342 28.9597C23.3862 29.1037 23.3202 29.3437 23.2362 29.6797C23.1522 30.0157 23.0622 30.2497 22.9662 30.3817C22.8702 30.5137 22.7682 30.7237 22.6602 31.0117C22.5522 31.2997 22.3962 31.5637 22.1922 31.8037C21.9882 32.0437 21.7782 32.3317 21.5622 32.6677L21.4362 32.7217L21.3462 32.6137C21.2382 31.5577 21.1842 30.9277 21.1842 30.7237C21.1842 30.1117 21.2562 29.4217 21.4002 28.6537C21.5442 27.8857 21.7662 26.9197 22.0662 25.7557L22.5882 23.7217C22.3722 23.2897 22.2642 22.7257 22.2642 22.0297C22.2642 21.4657 22.4382 20.9437 22.7862 20.4637C23.1342 19.9837 23.5782 19.7377 24.1182 19.7257C24.5262 19.7257 24.8442 19.8637 25.0722 20.1397C25.3002 20.4157 25.4142 20.7577 25.4142 21.1657C25.4142 21.6097 25.2702 22.2457 24.9822 23.0737C24.6942 23.9017 24.5472 24.5287 24.5412 24.9547C24.5352 25.3807 24.6822 25.7317 24.9822 26.0077C25.2822 26.2837 25.6482 26.4217 26.0802 26.4217C26.4522 26.4217 26.7942 26.3377 27.1062 26.1697C27.4182 26.0017 27.6822 25.7737 27.8982 25.4857C28.1142 25.1977 28.3002 24.8797 28.4562 24.5317C28.6122 24.1837 28.7382 23.8177 28.8342 23.4337C28.9302 23.0497 28.9962 22.6777 29.0322 22.3177C29.0682 21.9577 29.0922 21.6217 29.1042 21.3097C29.1042 20.1577 28.7382 19.2577 28.0062 18.6097C27.2742 17.9617 26.3142 17.6377 25.1262 17.6377C23.7942 17.6377 22.6782 18.0697 21.7782 18.9337C20.8782 19.7977 20.4282 20.8957 20.4282 22.2277C20.4282 22.5277 20.4702 22.8157 20.5542 23.0917C20.6382 23.3677 20.7282 23.5837 20.8242 23.7397C20.9202 23.8957 21.0102 24.0517 21.0942 24.2077C21.1782 24.3637 21.2202 24.4657 21.2202 24.5137C21.2202 24.6937 21.1722 24.9337 21.0762 25.2337C20.9802 25.5337 20.8542 25.6837 20.6982 25.6837L20.5362 25.6657C20.1882 25.5577 19.8822 25.3717 19.6182 25.1077C19.3542 24.8437 19.1502 24.5257 19.0062 24.1537C18.8622 23.7817 18.7542 23.4217 18.6822 23.0737C18.6102 22.7257 18.5742 22.3657 18.5742 21.9937Z" fill="white"/>
</g>
<defs>
<clipPath id="clip0_1_2888">
<rect width="18" height="18" fill="white" transform="matrix(1 0 0 -1 16 34)"/>
</clipPath>
</defs>
</svg>
