<svg width="50" height="50" viewBox="0 0 50 50" fill="none" xmlns="http://www.w3.org/2000/svg">
<rect width="50" height="50" rx="5" fill="#243A85"/>
<path d="M32.4704 20.1036C32.0264 20.7516 31.4864 21.3096 30.8504 21.7776V22.1916C30.8504 23.0676 30.7244 23.9376 30.4724 24.8016C30.2204 25.6656 29.8364 26.4996 29.3204 27.3036C28.8044 28.1076 28.1864 28.8096 27.4664 29.4096C26.7464 30.0096 25.8824 30.5016 24.8744 30.8856C23.8664 31.2696 22.7804 31.4496 21.6164 31.4256C19.8044 31.4256 18.1484 30.9396 16.6484 29.9676C16.8764 29.9916 17.1344 30.0036 17.4224 30.0036C18.9344 30.0036 20.2784 29.5416 21.4544 28.6176C20.7464 28.6056 20.1164 28.3896 19.5644 27.9696C19.0124 27.5496 18.6284 27.0156 18.4124 26.3676C18.6404 26.4036 18.8444 26.4216 19.0244 26.4216C19.3124 26.4216 19.6004 26.3856 19.8884 26.3136C19.1324 26.1576 18.5084 25.7856 18.0164 25.1976C17.5244 24.6096 17.2784 23.9196 17.2784 23.1276V23.0916C17.7344 23.3436 18.2264 23.4816 18.7544 23.5056C18.3104 23.2056 17.9564 22.8216 17.6924 22.3536C17.4284 21.8856 17.2964 21.3636 17.2964 20.7876C17.2964 20.2116 17.4464 19.6716 17.7464 19.1676C18.5624 20.1636 19.5464 20.9616 20.6984 21.5616C21.8504 22.1616 23.0984 22.4916 24.4424 22.5516C24.3824 22.2996 24.3524 22.0536 24.3524 21.8136C24.3524 20.9136 24.6704 20.1516 25.3064 19.5276C25.9424 18.9036 26.7044 18.5856 27.5924 18.5736C28.5404 18.5736 29.3324 18.9156 29.9684 19.5996C30.7004 19.4556 31.3904 19.1916 32.0384 18.8076C31.7864 19.5756 31.3064 20.1756 30.5984 20.6076C31.2224 20.5356 31.8464 20.3676 32.4704 20.1036Z" fill="white"/>
</svg>
