<svg width="57" height="58" viewBox="0 0 57 58" fill="none" xmlns="http://www.w3.org/2000/svg">
<g filter="url(#filter0_d_1_8472)">
<circle cx="26.5" cy="25.3" r="24.5" fill="#039BE5"/>
</g>
<path d="M20.585 39.1849C23.1449 39.2705 25.696 38.8422 28.0875 37.9251C30.479 37.008 32.6624 35.6209 34.5087 33.8456C36.355 32.0703 37.8267 29.943 38.8368 27.5893C39.8469 25.2355 40.3749 22.7032 40.3897 20.1419C41.5628 18.6902 42.4339 17.0186 42.9518 15.2254C42.9905 15.0837 42.9874 14.9339 42.9428 14.7939C42.8983 14.654 42.8143 14.5299 42.7009 14.4366C42.5875 14.3433 42.4495 14.2848 42.3036 14.2681C42.1577 14.2514 42.0101 14.2772 41.8785 14.3425C41.2648 14.6379 40.5738 14.7333 39.903 14.6153C39.2321 14.4973 38.6152 14.1718 38.1391 13.6846C37.5314 13.0191 36.7963 12.4824 35.9773 12.1062C35.1584 11.73 34.2722 11.522 33.3714 11.4946C32.4706 11.4671 31.5734 11.6208 30.7331 11.9464C29.8927 12.2721 29.1263 12.7631 28.4792 13.3903C27.5931 14.2484 26.9442 15.3211 26.5953 16.5042C26.2465 17.6872 26.2096 18.9404 26.4883 20.1419C20.6889 20.4882 16.7072 17.7356 13.5218 13.9616C13.4261 13.8533 13.3009 13.7751 13.1615 13.7367C13.0222 13.6983 12.8746 13.7013 12.7369 13.7454C12.5992 13.7894 12.4773 13.8726 12.3861 13.9848C12.295 14.097 12.2384 14.2333 12.2234 14.3771C11.6166 17.7432 12.0543 21.2145 13.4778 24.3246C14.9014 27.4347 17.2425 30.0347 20.1868 31.7755C18.2127 34.0395 15.4403 35.4536 12.4485 35.7225C12.2882 35.7491 12.1402 35.8252 12.0253 35.94C11.9103 36.0548 11.8342 36.2027 11.8075 36.363C11.7808 36.5233 11.8048 36.6879 11.8763 36.8338C11.9478 36.9797 12.0631 37.0996 12.2061 37.1767C14.809 38.4775 17.6753 39.1645 20.585 39.1849Z" fill="white"/>
<defs>
<filter id="filter0_d_1_8472" x="0" y="0.800049" width="57" height="57" filterUnits="userSpaceOnUse" color-interpolation-filters="sRGB">
<feFlood flood-opacity="0" result="BackgroundImageFix"/>
<feColorMatrix in="SourceAlpha" type="matrix" values="0 0 0 0 0 0 0 0 0 0 0 0 0 0 0 0 0 0 127 0" result="hardAlpha"/>
<feOffset dx="2" dy="4"/>
<feGaussianBlur stdDeviation="2"/>
<feComposite in2="hardAlpha" operator="out"/>
<feColorMatrix type="matrix" values="0 0 0 0 0.0117647 0 0 0 0 0.607843 0 0 0 0 0.898039 0 0 0 0.5 0"/>
<feBlend mode="normal" in2="BackgroundImageFix" result="effect1_dropShadow_1_8472"/>
<feBlend mode="normal" in="SourceGraphic" in2="effect1_dropShadow_1_8472" result="shape"/>
</filter>
</defs>
</svg>
